{"glyphs":{"0":{"ha":833,"x_min":0,"x_max":0,"o":"m 285 972 l 248 935 l 248 882 l 232 867 l 179 867 l 142 829 l 142 143 l 179 106 l 232 106 l 248 90 l 248 37 l 285 0 l 549 0 l 586 37 l 586 90 l 602 106 l 654 106 l 692 143 l 692 829 l 654 867 l 602 867 l 586 882 l 586 935 l 549 972 z m 258 343 l 285 317 l 338 317 l 575 554 l 590 539 l 564 513 l 564 143 l 549 127 l 285 127 l 269 143 l 269 301 l 243 328 z m 549 844 l 564 829 l 564 671 l 590 644 l 575 629 l 549 656 l 496 656 l 258 418 l 243 433 l 269 460 l 269 829 l 285 844 z "},"1":{"ha":833,"x_min":0,"x_max":0,"o":"m 363 766 l 379 750 l 353 724 l 353 143 l 379 117 l 363 102 l 336 127 l 283 127 l 248 90 l 248 37 l 283 0 l 549 0 l 585 37 l 585 90 l 549 127 l 496 127 l 468 102 l 453 117 l 479 143 l 479 935 l 441 972 l 390 972 l 353 935 l 353 884 l 379 856 l 363 840 l 336 867 l 283 867 l 248 829 l 248 777 l 283 741 l 336 741 z "},"2":{"ha":833,"x_min":0,"x_max":0,"o":"m 549 972 l 285 972 l 248 935 l 248 882 l 232 867 l 179 867 l 142 829 l 142 777 l 179 739 l 232 739 l 269 777 l 269 829 l 285 844 l 549 844 l 564 829 l 564 671 l 549 656 l 496 656 l 248 407 l 248 354 l 232 339 l 179 339 l 142 301 l 142 37 l 179 0 l 654 0 l 692 37 l 692 90 l 654 127 l 285 127 l 258 102 l 243 117 l 269 143 l 269 301 l 285 317 l 338 317 l 586 566 l 586 618 l 602 633 l 654 633 l 692 671 l 692 829 l 654 867 l 602 867 l 586 882 l 586 935 z "},"3":{"ha":833,"x_min":0,"x_max":0,"o":"m 586 37 l 586 90 l 602 106 l 654 106 l 692 143 l 692 407 l 654 444 l 602 444 l 586 460 l 586 513 l 602 528 l 654 528 l 692 566 l 692 829 l 654 867 l 602 867 l 586 882 l 586 935 l 549 972 l 285 972 l 248 935 l 248 882 l 232 867 l 179 867 l 142 829 l 142 777 l 179 739 l 232 739 l 269 777 l 269 829 l 285 844 l 549 844 l 564 829 l 564 566 l 549 550 l 285 550 l 248 513 l 248 460 l 285 422 l 549 422 l 564 407 l 564 143 l 549 127 l 285 127 l 269 143 l 269 196 l 232 233 l 179 233 l 142 196 l 142 143 l 179 106 l 232 106 l 248 90 l 248 37 l 285 0 l 549 0 z "},"4":{"ha":833,"x_min":0,"x_max":0,"o":"m 269 935 l 232 972 l 179 972 l 142 935 l 142 566 l 179 528 l 232 528 l 248 513 l 248 460 l 285 422 l 549 422 l 575 449 l 590 433 l 564 407 l 564 37 l 602 0 l 654 0 l 692 37 l 692 935 l 654 972 l 602 972 l 564 935 l 564 566 l 590 539 l 575 524 l 549 550 l 285 550 l 269 566 z "},"5":{"ha":833,"x_min":0,"x_max":0,"o":"m 586 37 l 586 90 l 602 106 l 654 106 l 692 143 l 692 407 l 654 444 l 602 444 l 586 460 l 586 513 l 549 550 l 285 550 l 269 566 l 269 829 l 243 856 l 258 871 l 285 844 l 654 844 l 692 882 l 692 935 l 654 972 l 179 972 l 142 935 l 142 566 l 179 528 l 232 528 l 248 513 l 248 460 l 285 422 l 549 422 l 564 407 l 564 143 l 549 127 l 285 127 l 269 143 l 269 196 l 232 233 l 179 233 l 142 196 l 142 143 l 179 106 l 232 106 l 248 90 l 248 37 l 285 0 l 549 0 z "},"6":{"ha":833,"x_min":0,"x_max":0,"o":"m 549 972 l 285 972 l 248 935 l 248 882 l 232 867 l 179 867 l 142 829 l 142 143 l 179 106 l 232 106 l 248 90 l 248 37 l 285 0 l 549 0 l 586 37 l 586 90 l 602 106 l 654 106 l 692 143 l 692 407 l 654 444 l 602 444 l 586 460 l 586 513 l 549 550 l 285 550 l 258 524 l 243 539 l 269 566 l 269 829 l 285 844 l 549 844 l 564 829 l 564 777 l 602 739 l 654 739 l 692 777 l 692 829 l 654 867 l 602 867 l 586 882 l 586 935 z m 285 127 l 269 143 l 269 407 l 243 433 l 258 449 l 285 422 l 549 422 l 564 407 l 564 143 l 549 127 z "},"7":{"ha":833,"x_min":0,"x_max":0,"o":"m 458 724 l 458 671 l 443 656 l 390 656 l 353 618 l 353 37 l 390 0 l 443 0 l 481 37 l 481 618 l 496 633 l 549 633 l 586 671 l 586 724 l 602 739 l 654 739 l 692 777 l 692 935 l 654 972 l 179 972 l 142 935 l 142 882 l 179 844 l 549 844 l 575 871 l 590 856 l 564 829 l 564 777 l 549 761 l 496 761 z "},"8":{"ha":833,"x_min":0,"x_max":0,"o":"m 586 37 l 586 90 l 602 106 l 654 106 l 692 143 l 692 407 l 654 444 l 602 444 l 586 460 l 586 513 l 602 528 l 654 528 l 692 566 l 692 829 l 654 867 l 602 867 l 586 882 l 586 935 l 549 972 l 285 972 l 248 935 l 248 882 l 232 867 l 179 867 l 142 829 l 142 566 l 179 528 l 232 528 l 248 513 l 248 460 l 232 444 l 179 444 l 142 407 l 142 143 l 179 106 l 232 106 l 248 90 l 248 37 l 285 0 l 549 0 z m 549 844 l 564 829 l 564 566 l 549 550 l 285 550 l 269 566 l 269 829 l 285 844 z m 564 407 l 564 143 l 549 127 l 285 127 l 269 143 l 269 407 l 285 422 l 549 422 z "},"9":{"ha":833,"x_min":0,"x_max":0,"o":"m 586 37 l 586 90 l 602 106 l 654 106 l 692 143 l 692 829 l 654 867 l 602 867 l 586 882 l 586 935 l 549 972 l 285 972 l 248 935 l 248 882 l 232 867 l 179 867 l 142 829 l 142 566 l 179 528 l 232 528 l 248 513 l 248 460 l 285 422 l 549 422 l 575 449 l 590 433 l 564 407 l 564 143 l 549 127 l 285 127 l 269 143 l 269 196 l 232 233 l 179 233 l 142 196 l 142 143 l 179 106 l 232 106 l 248 90 l 248 37 l 285 0 l 549 0 z m 590 539 l 575 524 l 549 550 l 285 550 l 269 566 l 269 829 l 285 844 l 549 844 l 564 829 l 564 566 z "}," ":{"ha":833,"x_min":0,"x_max":0,"o":""},"!":{"ha":833,"x_min":0,"x_max":0,"o":"m 353 249 l 390 211 l 443 211 l 479 249 l 479 935 l 443 972 l 390 972 l 353 935 z m 347 102 l 347 37 l 383 0 l 449 0 l 486 37 l 486 102 l 449 139 l 383 139 z "},"\"":{"ha":833,"x_min":0,"x_max":0,"o":"m 458 777 l 496 739 l 549 739 l 585 777 l 585 935 l 549 972 l 496 972 l 458 935 z m 248 935 l 248 777 l 285 739 l 336 739 l 374 777 l 374 935 l 336 972 l 285 972 z "},"#":{"ha":833,"x_min":0,"x_max":0,"o":"m 458 777 l 485 750 l 469 734 l 443 761 l 390 761 l 364 734 l 347 750 l 374 777 l 374 935 l 336 972 l 285 972 l 248 935 l 248 777 l 273 750 l 257 734 l 231 761 l 178 761 l 142 724 l 142 671 l 178 633 l 231 633 l 257 660 l 273 644 l 248 618 l 248 354 l 273 328 l 257 313 l 231 339 l 178 339 l 142 301 l 142 249 l 178 211 l 231 211 l 257 237 l 273 222 l 248 196 l 248 37 l 285 0 l 336 0 l 374 37 l 374 196 l 347 222 l 364 237 l 390 211 l 443 211 l 469 237 l 485 222 l 458 196 l 458 37 l 496 0 l 549 0 l 585 37 l 585 196 l 558 222 l 575 237 l 602 211 l 654 211 l 690 249 l 690 301 l 654 339 l 602 339 l 575 313 l 558 328 l 585 354 l 585 618 l 558 644 l 575 660 l 602 633 l 654 633 l 690 671 l 690 724 l 654 761 l 602 761 l 575 734 l 558 750 l 585 777 l 585 935 l 549 972 l 496 972 l 458 935 z m 347 328 l 374 354 l 374 618 l 347 644 l 364 660 l 390 633 l 443 633 l 469 660 l 485 644 l 458 618 l 458 354 l 485 328 l 469 313 l 443 339 l 390 339 l 364 313 z "},"$":{"ha":833,"x_min":0,"x_max":0,"o":"m 549 867 l 496 867 l 469 840 l 453 856 l 479 882 l 479 935 l 443 972 l 390 972 l 353 935 l 353 882 l 379 856 l 364 840 l 336 867 l 285 867 l 248 829 l 248 777 l 231 761 l 178 761 l 142 724 l 142 566 l 178 528 l 231 528 l 248 513 l 248 460 l 285 422 l 336 422 l 364 449 l 379 433 l 353 407 l 353 249 l 379 222 l 364 207 l 336 233 l 285 233 l 268 249 l 268 301 l 231 339 l 178 339 l 142 301 l 142 249 l 178 211 l 231 211 l 248 196 l 248 143 l 285 106 l 336 106 l 364 132 l 379 117 l 353 90 l 353 37 l 390 0 l 443 0 l 479 37 l 479 90 l 453 117 l 469 132 l 496 106 l 549 106 l 585 143 l 585 196 l 602 211 l 654 211 l 690 249 l 690 407 l 654 444 l 602 444 l 585 460 l 585 513 l 549 550 l 496 550 l 469 524 l 453 539 l 479 566 l 479 724 l 453 750 l 469 765 l 496 739 l 549 739 l 564 724 l 564 671 l 602 633 l 654 633 l 690 671 l 690 724 l 654 761 l 602 761 l 585 777 l 585 829 z m 564 249 l 549 233 l 496 233 l 469 207 l 453 222 l 479 249 l 479 407 l 453 433 l 469 449 l 496 422 l 549 422 l 564 407 z m 336 550 l 285 550 l 268 566 l 268 724 l 285 739 l 336 739 l 364 765 l 379 750 l 353 724 l 353 566 l 379 539 l 364 524 z "},"%":{"ha":833,"x_min":0,"x_max":0,"o":"m 248 407 l 248 354 l 231 339 l 178 339 l 142 301 l 142 37 l 178 0 l 231 0 l 268 37 l 268 301 l 285 317 l 336 317 l 585 566 l 585 618 l 602 633 l 654 633 l 690 671 l 690 935 l 654 972 l 602 972 l 564 935 l 564 671 l 549 656 l 496 656 z m 575 26 l 602 0 l 654 0 l 690 37 l 690 90 l 664 117 l 690 143 l 690 196 l 654 233 l 602 233 l 575 207 l 549 233 l 496 233 l 458 196 l 458 143 l 485 117 l 458 90 l 458 37 l 496 0 l 549 0 z m 257 765 l 285 739 l 336 739 l 374 777 l 374 829 l 347 856 l 374 882 l 374 935 l 336 972 l 285 972 l 257 946 l 231 972 l 178 972 l 142 935 l 142 882 l 168 856 l 142 829 l 142 777 l 178 739 l 231 739 z m 257 872 l 273 856 l 257 840 l 241 856 z m 575 132 l 590 117 l 575 102 l 558 117 z "},"&":{"ha":833,"x_min":0,"x_max":0,"o":"m 178 526 l 231 526 l 248 511 l 248 458 l 231 443 l 178 443 l 142 406 l 142 142 l 178 104 l 231 104 l 248 89 l 248 36 l 285 -1 l 443 -1 l 479 36 l 479 89 l 443 126 l 285 126 l 268 142 l 268 406 l 285 421 l 336 421 l 353 406 l 353 353 l 590 115 l 564 89 l 564 36 l 602 -1 l 654 -1 l 690 36 l 690 89 l 664 115 l 690 142 l 690 195 l 479 406 l 496 421 l 549 421 l 585 458 l 585 511 l 602 526 l 654 526 l 690 564 l 690 616 l 654 654 l 602 654 l 564 616 l 564 564 l 549 549 l 496 549 l 458 511 l 458 458 l 443 443 l 390 443 l 374 458 l 374 511 l 390 526 l 443 526 l 479 564 l 479 828 l 443 865 l 390 865 l 374 880 l 374 933 l 336 971 l 285 971 l 248 933 l 248 880 l 231 865 l 178 865 l 142 828 l 142 564 z m 268 828 l 285 843 l 336 843 l 353 828 l 353 564 l 336 549 l 285 549 l 268 564 z "},"'":{"ha":833,"x_min":0,"x_max":0,"o":"m 353 777 l 390 739 l 443 739 l 479 777 l 479 935 l 443 972 l 390 972 l 353 935 z "},"(":{"ha":833,"x_min":0,"x_max":0,"o":"m 248 249 l 285 211 l 336 211 l 353 196 l 353 143 l 390 106 l 443 106 l 458 90 l 458 37 l 496 0 l 549 0 l 585 37 l 585 90 l 549 127 l 496 127 l 479 143 l 479 196 l 443 233 l 390 233 l 374 249 l 374 724 l 390 739 l 443 739 l 479 777 l 479 829 l 496 844 l 549 844 l 585 882 l 585 935 l 549 972 l 496 972 l 458 935 l 458 882 l 443 867 l 390 867 l 353 829 l 353 777 l 336 761 l 285 761 l 248 724 z "},")":{"ha":833,"x_min":0,"x_max":0,"o":"m 585 249 l 585 724 l 549 761 l 496 761 l 479 777 l 479 829 l 443 867 l 390 867 l 374 882 l 374 935 l 336 972 l 285 972 l 248 935 l 248 882 l 285 844 l 336 844 l 353 829 l 353 777 l 390 739 l 443 739 l 458 724 l 458 249 l 443 233 l 390 233 l 353 196 l 353 143 l 336 127 l 285 127 l 248 90 l 248 37 l 285 0 l 336 0 l 374 37 l 374 90 l 390 106 l 443 106 l 479 143 l 479 196 l 496 211 l 549 211 z "},"*":{"ha":833,"x_min":0,"x_max":0,"o":"m 564 829 l 564 777 l 549 761 l 496 761 l 469 734 l 453 750 l 479 777 l 479 935 l 443 972 l 390 972 l 353 935 l 353 777 l 379 750 l 364 734 l 336 761 l 285 761 l 268 777 l 268 829 l 231 867 l 178 867 l 142 829 l 142 777 l 178 739 l 231 739 l 248 724 l 248 671 l 231 656 l 178 656 l 142 618 l 142 566 l 178 528 l 231 528 l 268 566 l 268 618 l 285 633 l 336 633 l 364 660 l 379 644 l 353 618 l 353 460 l 390 422 l 443 422 l 479 460 l 479 618 l 453 644 l 469 660 l 496 633 l 549 633 l 564 618 l 564 566 l 602 528 l 654 528 l 690 566 l 690 618 l 654 656 l 602 656 l 585 671 l 585 724 l 602 739 l 654 739 l 690 777 l 690 829 l 654 867 l 602 867 z "},"+":{"ha":833,"x_min":0,"x_max":0,"o":"m 353 724 l 353 566 l 379 539 l 364 524 l 336 550 l 178 550 l 142 513 l 142 460 l 178 422 l 336 422 l 364 449 l 379 433 l 353 407 l 353 249 l 390 211 l 443 211 l 479 249 l 479 407 l 453 433 l 469 449 l 496 422 l 654 422 l 690 460 l 690 513 l 654 550 l 496 550 l 469 524 l 453 539 l 479 566 l 479 724 l 443 761 l 390 761 z "},",":{"ha":833,"x_min":0,"x_max":0,"o":"m 406 90 l 406 37 l 389 22 l 336 22 l 300 -16 l 300 -68 l 336 -106 l 389 -106 l 427 -68 l 427 -16 l 441 0 l 494 0 l 532 37 l 532 90 l 505 117 l 532 143 l 532 196 l 494 233 l 441 233 l 415 207 l 389 233 l 336 233 l 300 196 l 300 143 l 336 106 l 389 106 l 415 132 l 432 117 z "},"-":{"ha":833,"x_min":0,"x_max":0,"o":"m 654 422 l 690 460 l 690 513 l 654 550 l 178 550 l 142 513 l 142 460 l 178 422 z "},".":{"ha":833,"x_min":0,"x_max":0,"o":"m 415 26 l 443 0 l 494 0 l 532 37 l 532 90 l 505 117 l 532 143 l 532 196 l 494 233 l 443 233 l 415 207 l 389 233 l 336 233 l 300 196 l 300 143 l 326 117 l 300 90 l 300 37 l 336 0 l 389 0 z m 415 132 l 432 117 l 415 102 l 400 117 z "},"/":{"ha":833,"x_min":0,"x_max":0,"o":"m 248 407 l 248 354 l 231 339 l 178 339 l 142 301 l 142 37 l 178 0 l 231 0 l 268 37 l 268 301 l 285 317 l 336 317 l 585 566 l 585 618 l 602 633 l 654 633 l 690 671 l 690 935 l 654 972 l 602 972 l 564 935 l 564 671 l 549 656 l 496 656 z "},":":{"ha":833,"x_min":0,"x_max":0,"o":"m 416 449 l 443 422 l 496 422 l 532 460 l 532 513 l 505 539 l 532 566 l 532 618 l 496 656 l 443 656 l 416 629 l 390 656 l 338 656 l 300 618 l 300 566 l 326 539 l 300 513 l 300 460 l 338 422 l 390 422 z m 416 26 l 443 0 l 496 0 l 532 37 l 532 90 l 505 117 l 532 143 l 532 196 l 496 233 l 443 233 l 416 207 l 390 233 l 338 233 l 300 196 l 300 143 l 326 117 l 300 90 l 300 37 l 338 0 l 390 0 z m 416 132 l 432 117 l 416 102 l 400 117 z m 416 554 l 432 539 l 416 524 l 400 539 z "},";":{"ha":833,"x_min":0,"x_max":0,"o":"m 406 90 l 406 37 l 390 22 l 338 22 l 300 -16 l 300 -68 l 338 -106 l 390 -106 l 427 -68 l 427 -16 l 443 0 l 496 0 l 532 37 l 532 90 l 505 117 l 532 143 l 532 196 l 496 233 l 443 233 l 416 207 l 390 233 l 338 233 l 300 196 l 300 143 l 338 106 l 390 106 l 416 132 l 432 117 z m 416 449 l 443 422 l 496 422 l 532 460 l 532 513 l 505 539 l 532 566 l 532 618 l 496 656 l 443 656 l 416 629 l 390 656 l 338 656 l 300 618 l 300 566 l 326 539 l 300 513 l 300 460 l 338 422 l 390 422 z m 416 554 l 432 539 l 416 524 l 400 539 z "},"<":{"ha":833,"x_min":0,"x_max":0,"o":"m 300 618 l 300 566 l 283 550 l 232 550 l 195 513 l 195 460 l 232 422 l 283 422 l 300 407 l 300 354 l 549 106 l 602 106 l 637 143 l 637 196 l 389 444 l 338 444 l 321 460 l 321 513 l 338 528 l 389 528 l 637 777 l 637 829 l 602 867 l 549 867 z "},"=":{"ha":833,"x_min":0,"x_max":0,"o":"m 654 633 l 690 671 l 690 724 l 654 761 l 178 761 l 142 724 l 142 671 l 178 633 z m 142 301 l 142 249 l 178 211 l 654 211 l 690 249 l 690 301 l 654 339 l 178 339 z "},">":{"ha":833,"x_min":0,"x_max":0,"o":"m 532 618 l 283 867 l 231 867 l 195 829 l 195 777 l 443 528 l 494 528 l 511 513 l 511 460 l 494 444 l 443 444 l 195 196 l 195 143 l 231 106 l 283 106 l 532 354 l 532 407 l 549 422 l 600 422 l 637 460 l 637 513 l 600 550 l 549 550 l 532 566 z "},"?":{"ha":833,"x_min":0,"x_max":0,"o":"m 353 249 l 390 211 l 443 211 l 479 249 l 479 513 l 496 528 l 549 528 l 585 566 l 585 618 l 602 633 l 654 633 l 690 671 l 690 829 l 654 867 l 602 867 l 585 882 l 585 935 l 549 972 l 285 972 l 248 935 l 248 882 l 231 867 l 178 867 l 142 829 l 142 777 l 178 739 l 231 739 l 268 777 l 268 829 l 285 844 l 549 844 l 564 829 l 564 671 l 549 656 l 496 656 l 458 618 l 458 566 l 443 550 l 390 550 l 353 513 z m 347 102 l 347 37 l 383 0 l 449 0 l 486 37 l 486 102 l 449 139 l 383 139 z "},"@":{"ha":833,"x_min":0,"x_max":0,"o":"m 564 354 l 549 339 l 496 339 l 469 313 l 453 328 l 479 354 l 479 618 l 443 656 l 390 656 l 353 618 l 353 249 l 390 211 l 549 211 l 585 249 l 585 301 l 602 317 l 654 317 l 690 354 l 690 829 l 654 867 l 602 867 l 585 882 l 585 935 l 549 972 l 285 972 l 248 935 l 248 882 l 231 867 l 178 867 l 142 829 l 142 143 l 178 106 l 231 106 l 248 90 l 248 37 l 285 0 l 654 0 l 690 37 l 690 90 l 654 127 l 285 127 l 268 143 l 268 829 l 285 844 l 549 844 l 564 829 z "},"A":{"ha":833,"x_min":0,"x_max":0,"o":"m 586 882 l 586 935 l 549 972 l 285 972 l 248 935 l 248 882 l 232 867 l 179 867 l 142 829 l 142 36 l 179 0 l 232 0 l 269 36 l 269 406 l 243 433 l 258 449 l 285 422 l 549 422 l 575 449 l 591 433 l 566 406 l 566 36 l 602 0 l 654 0 l 692 36 l 692 829 l 654 867 l 602 867 z m 566 829 l 566 566 l 591 539 l 575 522 l 549 549 l 285 549 l 258 522 l 243 539 l 269 566 l 269 829 l 285 844 l 549 844 z "},"B":{"ha":833,"x_min":0,"x_max":0,"o":"m 586 89 l 602 106 l 654 106 l 692 142 l 692 406 l 654 443 l 602 443 l 586 460 l 586 513 l 602 528 l 654 528 l 692 566 l 692 829 l 654 867 l 602 867 l 586 882 l 586 935 l 549 972 l 179 972 l 142 935 l 142 36 l 179 0 l 549 0 l 586 36 z m 566 829 l 566 566 l 549 549 l 285 549 l 258 522 l 243 539 l 269 566 l 269 829 l 243 856 l 258 871 l 285 844 l 549 844 z m 566 142 l 549 126 l 285 126 l 258 100 l 243 115 l 269 142 l 269 406 l 243 433 l 258 449 l 285 422 l 549 422 l 566 406 z "},"C":{"ha":833,"x_min":0,"x_max":0,"o":"m 566 829 l 566 777 l 602 739 l 654 739 l 692 777 l 692 829 l 654 867 l 602 867 l 586 882 l 586 935 l 549 972 l 285 972 l 248 935 l 248 882 l 232 867 l 179 867 l 142 829 l 142 142 l 179 106 l 232 106 l 248 89 l 248 36 l 285 0 l 549 0 l 586 36 l 586 89 l 602 106 l 654 106 l 692 142 l 692 195 l 654 232 l 602 232 l 566 195 l 566 142 l 549 126 l 285 126 l 269 142 l 269 829 l 285 844 l 549 844 z "},"D":{"ha":833,"x_min":0,"x_max":0,"o":"m 602 106 l 654 106 l 692 142 l 692 829 l 654 867 l 602 867 l 586 882 l 586 935 l 549 972 l 179 972 l 142 935 l 142 36 l 179 0 l 549 0 l 586 36 l 586 89 z m 566 829 l 566 142 l 549 126 l 285 126 l 258 100 l 243 115 l 269 142 l 269 829 l 243 856 l 258 871 l 285 844 l 549 844 z "},"E":{"ha":833,"x_min":0,"x_max":0,"o":"m 142 36 l 179 0 l 654 0 l 692 36 l 692 89 l 654 126 l 285 126 l 258 100 l 243 115 l 269 142 l 269 406 l 243 433 l 258 449 l 285 422 l 549 422 l 586 460 l 586 513 l 549 549 l 285 549 l 258 522 l 243 539 l 269 566 l 269 829 l 243 856 l 258 871 l 285 844 l 654 844 l 692 882 l 692 935 l 654 972 l 179 972 l 142 935 z "},"F":{"ha":833,"x_min":0,"x_max":0,"o":"m 142 36 l 179 0 l 232 0 l 269 36 l 269 406 l 243 433 l 258 449 l 285 422 l 549 422 l 586 460 l 586 513 l 549 549 l 285 549 l 258 522 l 243 539 l 269 566 l 269 829 l 243 856 l 258 871 l 285 844 l 654 844 l 692 882 l 692 935 l 654 972 l 179 972 l 142 935 z "},"G":{"ha":833,"x_min":0,"x_max":0,"o":"m 142 829 l 142 142 l 179 106 l 232 106 l 248 89 l 248 36 l 285 0 l 549 0 l 586 36 l 586 89 l 602 106 l 654 106 l 692 142 l 692 513 l 654 549 l 390 549 l 354 513 l 354 460 l 390 422 l 549 422 l 575 449 l 591 433 l 566 406 l 566 142 l 549 126 l 285 126 l 269 142 l 269 829 l 285 844 l 549 844 l 566 829 l 566 777 l 602 739 l 654 739 l 692 777 l 692 829 l 654 867 l 602 867 l 586 882 l 586 935 l 549 972 l 285 972 l 248 935 l 248 882 l 232 867 l 179 867 z "},"H":{"ha":833,"x_min":0,"x_max":0,"o":"m 566 566 l 591 539 l 575 522 l 549 549 l 285 549 l 258 522 l 243 539 l 269 566 l 269 935 l 232 972 l 179 972 l 142 935 l 142 36 l 179 0 l 232 0 l 269 36 l 269 406 l 243 433 l 258 449 l 285 422 l 549 422 l 575 449 l 591 433 l 566 406 l 566 36 l 602 0 l 654 0 l 692 36 l 692 935 l 654 972 l 602 972 l 566 935 z "},"I":{"ha":833,"x_min":0,"x_max":0,"o":"m 353 829 l 353 143 l 379 117 l 364 100 l 336 126 l 285 126 l 248 89 l 248 37 l 285 0 l 549 0 l 585 37 l 585 89 l 549 126 l 496 126 l 469 100 l 453 117 l 479 143 l 479 829 l 453 856 l 469 871 l 496 844 l 549 844 l 585 882 l 585 935 l 549 972 l 285 972 l 248 935 l 248 882 l 285 844 l 336 844 l 364 871 l 379 856 z "},"J":{"ha":833,"x_min":0,"x_max":0,"o":"m 566 829 l 566 142 l 549 126 l 285 126 l 269 142 l 269 195 l 232 232 l 179 232 l 142 195 l 142 142 l 179 106 l 232 106 l 248 89 l 248 36 l 285 0 l 549 0 l 586 36 l 586 89 l 602 106 l 654 106 l 692 142 l 692 935 l 654 972 l 285 972 l 248 935 l 248 882 l 285 844 l 549 844 l 575 871 l 591 856 z "},"K":{"ha":833,"x_min":0,"x_max":0,"o":"m 258 554 l 285 528 l 338 528 l 354 513 l 354 460 l 390 422 l 549 422 l 566 406 l 566 36 l 602 0 l 654 0 l 692 36 l 692 406 l 654 443 l 602 443 l 586 460 l 586 513 l 549 549 l 390 549 l 375 566 l 692 882 l 692 935 l 654 972 l 602 972 l 258 628 l 243 644 l 269 671 l 269 935 l 232 972 l 179 972 l 142 935 l 142 36 l 179 0 l 232 0 l 269 36 l 269 513 l 243 539 z "},"L":{"ha":833,"x_min":0,"x_max":0,"o":"m 142 36 l 179 0 l 654 0 l 692 36 l 692 89 l 654 126 l 285 126 l 258 100 l 243 115 l 269 142 l 269 935 l 232 972 l 179 972 l 142 935 z "},"M":{"ha":833,"x_min":0,"x_max":0,"o":"m 575 765 l 591 750 l 566 724 l 566 36 l 603 0 l 654 0 l 692 36 l 692 935 l 654 972 l 603 972 l 566 935 l 566 882 l 591 856 l 575 839 l 549 867 l 496 867 l 460 829 l 460 777 l 443 760 l 390 760 l 375 777 l 375 829 l 338 867 l 285 867 l 258 839 l 243 856 l 269 882 l 269 935 l 232 972 l 179 972 l 142 935 l 142 36 l 179 0 l 232 0 l 269 36 l 269 724 l 243 750 l 258 765 l 285 739 l 338 739 l 354 724 l 354 566 l 390 528 l 443 528 l 481 566 l 481 724 l 496 739 l 549 739 z "},"N":{"ha":833,"x_min":0,"x_max":0,"o":"m 258 765 l 496 528 l 549 528 l 575 554 l 591 539 l 566 513 l 566 36 l 603 0 l 654 0 l 692 36 l 692 935 l 654 972 l 603 972 l 566 935 l 566 671 l 591 644 l 575 628 l 338 867 l 285 867 l 258 839 l 243 856 l 269 882 l 269 935 l 232 972 l 179 972 l 142 935 l 142 36 l 179 0 l 232 0 l 269 36 l 269 724 l 243 750 z "},"O":{"ha":833,"x_min":0,"x_max":0,"o":"m 549 0 l 586 36 l 586 89 l 603 106 l 654 106 l 692 142 l 692 829 l 654 867 l 603 867 l 586 882 l 586 935 l 549 972 l 285 972 l 249 935 l 249 882 l 232 867 l 179 867 l 142 829 l 142 142 l 179 106 l 232 106 l 249 89 l 249 36 l 285 0 z m 566 829 l 566 142 l 549 126 l 285 126 l 269 142 l 269 829 l 285 844 l 549 844 z "},"P":{"ha":833,"x_min":0,"x_max":0,"o":"m 603 528 l 654 528 l 692 566 l 692 829 l 654 867 l 603 867 l 586 882 l 586 935 l 549 972 l 179 972 l 142 935 l 142 36 l 179 0 l 232 0 l 269 36 l 269 406 l 243 433 l 258 449 l 285 422 l 549 422 l 586 460 l 586 513 z m 566 829 l 566 566 l 549 549 l 285 549 l 258 522 l 243 539 l 269 566 l 269 829 l 243 856 l 258 871 l 285 844 l 549 844 z "},"Q":{"ha":833,"x_min":0,"x_max":0,"o":"m 585 195 l 602 211 l 653 211 l 690 249 l 690 829 l 653 867 l 602 867 l 585 882 l 585 935 l 547 972 l 283 972 l 248 935 l 248 882 l 231 867 l 178 867 l 142 829 l 142 142 l 178 106 l 231 106 l 248 89 l 248 36 l 283 0 l 441 0 l 479 36 l 479 89 l 494 106 l 547 106 l 564 89 l 564 36 l 602 0 l 653 0 l 690 36 l 690 89 l 653 126 l 602 126 l 585 142 z m 564 829 l 564 249 l 547 232 l 494 232 l 479 249 l 479 300 l 441 338 l 389 338 l 353 300 l 353 249 l 389 211 l 441 211 l 458 195 l 458 142 l 441 126 l 283 126 l 268 142 l 268 829 l 283 844 l 547 844 z "},"R":{"ha":833,"x_min":0,"x_max":0,"o":"m 564 36 l 602 0 l 653 0 l 690 36 l 690 406 l 653 443 l 602 443 l 585 460 l 585 513 l 602 528 l 653 528 l 690 566 l 690 829 l 653 867 l 602 867 l 585 882 l 585 935 l 547 972 l 178 972 l 142 935 l 142 36 l 178 0 l 231 0 l 268 36 l 268 406 l 241 433 l 257 449 l 283 422 l 547 422 l 564 406 z m 564 829 l 564 566 l 547 549 l 283 549 l 257 522 l 241 539 l 268 566 l 268 829 l 241 856 l 257 871 l 283 844 l 547 844 z "},"S":{"ha":833,"x_min":0,"x_max":0,"o":"m 564 829 l 564 777 l 602 739 l 654 739 l 690 777 l 690 829 l 654 867 l 602 867 l 585 882 l 585 935 l 547 972 l 283 972 l 248 935 l 248 882 l 231 867 l 178 867 l 142 829 l 142 566 l 178 528 l 231 528 l 248 513 l 248 460 l 283 422 l 547 422 l 564 406 l 564 142 l 547 126 l 283 126 l 268 142 l 268 195 l 231 232 l 178 232 l 142 195 l 142 142 l 178 106 l 231 106 l 248 89 l 248 36 l 283 0 l 547 0 l 585 36 l 585 89 l 602 106 l 654 106 l 690 142 l 690 406 l 654 443 l 602 443 l 585 460 l 585 513 l 547 549 l 283 549 l 268 566 l 268 829 l 283 844 l 547 844 z "},"T":{"ha":833,"x_min":0,"x_max":0,"o":"m 353 829 l 353 36 l 389 0 l 441 0 l 479 36 l 479 829 l 453 856 l 468 871 l 496 844 l 654 844 l 690 882 l 690 935 l 654 972 l 178 972 l 142 935 l 142 882 l 178 844 l 336 844 l 363 871 l 379 856 z "},"U":{"ha":833,"x_min":0,"x_max":0,"o":"m 564 142 l 547 126 l 283 126 l 268 142 l 268 935 l 231 972 l 178 972 l 142 935 l 142 142 l 178 106 l 231 106 l 248 89 l 248 36 l 283 0 l 547 0 l 585 36 l 585 89 l 602 106 l 654 106 l 690 142 l 690 935 l 654 972 l 602 972 l 564 935 z "},"V":{"ha":833,"x_min":0,"x_max":0,"o":"m 441 126 l 389 126 l 374 142 l 374 195 l 336 232 l 283 232 l 268 249 l 268 935 l 231 972 l 178 972 l 142 935 l 142 249 l 178 211 l 231 211 l 248 195 l 248 142 l 283 106 l 336 106 l 353 89 l 353 36 l 389 0 l 441 0 l 479 36 l 479 89 l 496 106 l 547 106 l 585 142 l 585 195 l 602 211 l 654 211 l 690 249 l 690 935 l 654 972 l 602 972 l 564 935 l 564 249 l 547 232 l 496 232 l 458 195 l 458 142 z "},"W":{"ha":833,"x_min":0,"x_max":0,"o":"m 564 142 l 547 126 l 496 126 l 479 142 l 479 406 l 441 443 l 389 443 l 353 406 l 353 142 l 336 126 l 283 126 l 268 142 l 268 935 l 231 972 l 178 972 l 142 935 l 142 142 l 178 106 l 231 106 l 248 89 l 248 36 l 283 0 l 336 0 l 374 36 l 374 89 l 389 106 l 441 106 l 458 89 l 458 36 l 496 0 l 547 0 l 585 36 l 585 89 l 602 106 l 654 106 l 690 142 l 690 935 l 654 972 l 602 972 l 564 935 z "},"X":{"ha":833,"x_min":0,"x_max":0,"o":"m 564 671 l 547 654 l 496 654 l 458 618 l 458 566 l 441 549 l 336 654 l 283 654 l 268 671 l 268 935 l 231 972 l 178 972 l 142 935 l 142 671 l 178 633 l 231 633 l 248 618 l 248 566 l 353 460 l 336 443 l 283 443 l 248 406 l 248 354 l 231 338 l 178 338 l 142 300 l 142 36 l 178 0 l 231 0 l 268 36 l 268 300 l 283 317 l 336 317 l 374 354 l 374 406 l 390 422 l 496 317 l 547 317 l 564 300 l 564 36 l 602 0 l 654 0 l 690 36 l 690 300 l 654 338 l 602 338 l 585 354 l 585 406 l 479 513 l 496 528 l 547 528 l 585 566 l 585 618 l 602 633 l 654 633 l 690 671 l 690 935 l 654 972 l 602 972 l 564 935 z "},"Y":{"ha":833,"x_min":0,"x_max":0,"o":"m 564 671 l 549 656 l 496 656 l 458 618 l 458 566 l 443 550 l 390 550 l 374 566 l 374 618 l 338 656 l 285 656 l 268 671 l 268 935 l 231 972 l 179 972 l 142 935 l 142 671 l 179 633 l 231 633 l 248 618 l 248 566 l 285 528 l 338 528 l 353 513 l 353 37 l 390 0 l 443 0 l 479 37 l 479 513 l 496 528 l 549 528 l 585 566 l 585 618 l 602 633 l 654 633 l 692 671 l 692 935 l 654 972 l 602 972 l 564 935 z "},"Z":{"ha":833,"x_min":0,"x_max":0,"o":"m 564 829 l 564 671 l 549 656 l 496 656 l 248 407 l 248 354 l 231 338 l 179 338 l 142 301 l 142 37 l 179 0 l 654 0 l 692 37 l 692 89 l 654 126 l 285 126 l 258 100 l 241 117 l 268 143 l 268 301 l 285 317 l 338 317 l 585 566 l 585 618 l 602 633 l 654 633 l 692 671 l 692 935 l 654 972 l 179 972 l 142 935 l 142 882 l 179 844 l 549 844 l 575 871 l 590 856 z "},"[":{"ha":833,"x_min":0,"x_max":0,"o":"m 347 856 l 364 872 l 390 844 l 549 844 l 585 882 l 585 935 l 549 972 l 285 972 l 248 935 l 248 37 l 285 0 l 549 0 l 585 37 l 585 90 l 549 127 l 390 127 l 364 102 l 347 117 l 374 143 l 374 829 z "},"\\":{"ha":833,"x_min":0,"x_max":0,"o":"m 336 656 l 283 656 l 268 671 l 268 935 l 231 972 l 178 972 l 142 935 l 142 671 l 178 633 l 231 633 l 248 618 l 248 566 l 496 317 l 547 317 l 564 301 l 564 37 l 602 0 l 654 0 l 690 37 l 690 301 l 654 339 l 602 339 l 585 354 l 585 407 z "},"]":{"ha":833,"x_min":0,"x_max":0,"o":"m 458 829 l 458 143 l 485 117 l 468 102 l 441 127 l 283 127 l 248 90 l 248 37 l 283 0 l 547 0 l 585 37 l 585 935 l 547 972 l 283 972 l 248 935 l 248 882 l 283 844 l 441 844 l 468 872 l 485 856 z "},"^":{"ha":833,"x_min":0,"x_max":0,"o":"m 248 829 l 248 777 l 231 761 l 178 761 l 142 724 l 142 671 l 178 633 l 231 633 l 268 671 l 268 724 l 285 739 l 336 739 l 374 777 l 374 829 l 390 844 l 443 844 l 458 829 l 458 777 l 496 739 l 549 739 l 564 724 l 564 671 l 602 633 l 654 633 l 690 671 l 690 724 l 654 761 l 602 761 l 585 777 l 585 829 l 549 867 l 496 867 l 479 882 l 479 935 l 443 972 l 390 972 l 353 935 l 353 882 l 336 867 l 285 867 z "},"_":{"ha":833,"x_min":0,"x_max":0,"o":"m 654 0 l 690 37 l 690 90 l 654 127 l 178 127 l 142 90 l 142 37 l 178 0 z "},"`":{"ha":833,"x_min":0,"x_max":0,"o":"m 425 1185 l 399 1211 l 361 1211 l 335 1185 l 335 1149 l 361 1122 l 399 1122 l 410 1111 l 410 1074 l 436 1047 l 473 1047 l 498 1074 l 498 1111 l 473 1137 l 436 1137 l 425 1149 z "},"a":{"ha":833,"x_min":0,"x_max":0,"o":"m 285 0 l 654 0 l 692 37 l 692 618 l 654 656 l 603 656 l 586 671 l 586 724 l 549 761 l 285 761 l 249 724 l 249 671 l 232 656 l 179 656 l 142 618 l 142 566 l 179 528 l 232 528 l 269 566 l 269 618 l 285 633 l 549 633 l 566 618 l 566 460 l 591 433 l 575 418 l 549 444 l 285 444 l 249 407 l 249 354 l 232 339 l 179 339 l 142 301 l 142 143 l 179 106 l 232 106 l 249 90 l 249 37 z m 285 127 l 269 143 l 269 301 l 285 317 l 549 317 l 575 343 l 591 328 l 566 301 l 566 143 l 591 117 l 575 102 l 549 127 z "},"b":{"ha":833,"x_min":0,"x_max":0,"o":"m 585 37 l 585 90 l 602 107 l 654 107 l 690 143 l 690 618 l 654 656 l 602 656 l 585 672 l 585 725 l 549 761 l 283 761 l 257 734 l 241 751 l 268 778 l 268 936 l 231 972 l 178 972 l 142 936 l 142 37 l 178 0 l 549 0 z m 241 117 l 268 143 l 268 618 l 241 646 l 257 661 l 283 635 l 549 635 l 564 618 l 564 143 l 549 127 l 283 127 l 257 102 z "},"c":{"ha":833,"x_min":0,"x_max":0,"o":"m 585 37 l 585 90 l 602 107 l 654 107 l 690 143 l 690 196 l 654 233 l 602 233 l 564 196 l 564 143 l 549 127 l 283 127 l 268 143 l 268 618 l 283 635 l 549 635 l 564 618 l 564 567 l 602 529 l 654 529 l 690 567 l 690 618 l 654 656 l 602 656 l 585 672 l 585 725 l 549 761 l 283 761 l 248 725 l 248 672 l 231 656 l 178 656 l 142 618 l 142 143 l 178 107 l 231 107 l 248 90 l 248 37 l 283 0 l 549 0 z "},"d":{"ha":833,"x_min":0,"x_max":0,"o":"m 283 0 l 654 0 l 690 37 l 690 936 l 654 972 l 602 972 l 564 936 l 564 778 l 590 751 l 575 734 l 549 761 l 283 761 l 248 725 l 248 672 l 231 656 l 178 656 l 142 618 l 142 143 l 178 107 l 231 107 l 248 90 l 248 37 z m 283 127 l 268 143 l 268 618 l 283 635 l 549 635 l 575 661 l 590 646 l 564 618 l 564 143 l 590 117 l 575 102 l 549 127 z "},"e":{"ha":833,"x_min":0,"x_max":0,"o":"m 585 37 l 585 90 l 602 107 l 654 107 l 690 143 l 690 196 l 654 233 l 602 233 l 564 196 l 564 143 l 549 127 l 283 127 l 268 143 l 268 301 l 241 328 l 257 345 l 283 318 l 549 318 l 585 354 l 585 407 l 602 424 l 654 424 l 690 460 l 690 618 l 654 656 l 602 656 l 585 672 l 585 725 l 549 761 l 283 761 l 248 725 l 248 672 l 231 656 l 178 656 l 142 618 l 142 143 l 178 107 l 231 107 l 248 90 l 248 37 l 283 0 l 549 0 z m 283 444 l 257 418 l 241 433 l 268 460 l 268 618 l 283 635 l 549 635 l 564 618 l 564 460 l 549 444 z "},"f":{"ha":833,"x_min":0,"x_max":0,"o":"m 353 936 l 353 884 l 336 867 l 285 867 l 248 831 l 248 672 l 273 646 l 257 629 l 231 656 l 178 656 l 142 618 l 142 567 l 178 529 l 231 529 l 257 555 l 273 539 l 248 513 l 248 37 l 285 0 l 336 0 l 374 37 l 374 513 l 347 539 l 364 555 l 390 529 l 549 529 l 585 567 l 585 618 l 549 656 l 390 656 l 364 629 l 347 646 l 374 672 l 374 831 l 390 846 l 654 846 l 690 884 l 690 936 l 654 972 l 390 972 z "},"g":{"ha":833,"x_min":0,"x_max":0,"o":"m 564 -16 l 564 -68 l 549 -83 l 285 -83 l 248 -121 l 248 -174 l 285 -211 l 549 -211 l 585 -174 l 585 -121 l 602 -106 l 654 -106 l 690 -68 l 690 725 l 654 761 l 285 761 l 248 725 l 248 672 l 231 656 l 178 656 l 142 618 l 142 143 l 178 107 l 231 107 l 248 90 l 248 37 l 285 0 l 549 0 l 575 28 l 590 11 z m 549 635 l 575 661 l 590 646 l 564 618 l 564 143 l 590 117 l 575 102 l 549 127 l 285 127 l 268 143 l 268 618 l 285 635 z "},"h":{"ha":833,"x_min":0,"x_max":0,"o":"m 585 725 l 549 761 l 285 761 l 257 734 l 241 751 l 268 778 l 268 936 l 231 972 l 178 972 l 142 936 l 142 37 l 178 0 l 231 0 l 268 37 l 268 618 l 241 646 l 257 661 l 285 635 l 549 635 l 564 618 l 564 37 l 602 0 l 654 0 l 690 37 l 690 618 l 654 656 l 602 656 l 585 672 z "},"i":{"ha":833,"x_min":0,"x_max":0,"o":"m 469 660 l 496 633 l 549 633 l 585 671 l 585 724 l 549 761 l 285 761 l 248 724 l 248 671 l 285 633 l 336 633 l 364 660 l 379 644 l 353 618 l 353 143 l 379 117 l 364 102 l 336 127 l 285 127 l 248 90 l 248 37 l 285 0 l 549 0 l 585 37 l 585 90 l 549 127 l 496 127 l 469 102 l 453 117 l 479 143 l 479 618 l 453 644 z m 347 974 l 347 909 l 383 872 l 449 872 l 486 909 l 486 974 l 449 1011 l 383 1011 z "},"j":{"ha":833,"x_min":0,"x_max":0,"o":"m 458 -68 l 443 -83 l 285 -83 l 268 -68 l 268 -16 l 231 22 l 178 22 l 142 -16 l 142 -68 l 178 -106 l 231 -106 l 248 -121 l 248 -174 l 285 -211 l 443 -211 l 479 -174 l 479 -121 l 496 -106 l 549 -106 l 585 -68 l 585 618 l 558 644 l 575 661 l 602 635 l 654 635 l 690 671 l 690 724 l 654 761 l 390 761 l 353 724 l 353 671 l 390 635 l 443 635 l 469 661 l 485 644 l 458 618 z m 453 974 l 453 909 l 489 872 l 554 872 l 591 909 l 591 974 l 554 1011 l 489 1011 z "},"k":{"ha":833,"x_min":0,"x_max":0,"o":"m 257 450 l 285 424 l 336 424 l 353 407 l 353 354 l 390 318 l 549 318 l 564 301 l 564 37 l 602 0 l 654 0 l 690 37 l 690 301 l 654 339 l 602 339 l 585 354 l 585 407 l 549 444 l 390 444 l 374 460 l 585 672 l 585 725 l 549 761 l 496 761 l 257 524 l 241 539 l 268 567 l 268 936 l 231 972 l 178 972 l 142 936 l 142 37 l 178 0 l 231 0 l 268 37 l 268 407 l 241 433 z "},"l":{"ha":833,"x_min":0,"x_max":0,"o":"m 353 829 l 353 37 l 390 0 l 549 0 l 585 37 l 585 90 l 549 127 l 496 127 l 469 102 l 453 117 l 479 143 l 479 935 l 443 972 l 285 972 l 248 935 l 248 882 l 285 844 l 336 844 l 364 871 l 379 856 z "},"m":{"ha":833,"x_min":0,"x_max":0,"o":"m 549 761 l 179 761 l 142 724 l 142 37 l 179 0 l 232 0 l 269 37 l 269 618 l 243 644 l 258 660 l 285 633 l 338 633 l 364 660 l 379 644 l 353 618 l 353 354 l 390 317 l 443 317 l 481 354 l 481 618 l 454 644 l 469 660 l 496 633 l 549 633 l 564 618 l 564 37 l 602 0 l 654 0 l 692 37 l 692 618 l 654 656 l 602 656 l 586 671 l 586 724 z "},"n":{"ha":833,"x_min":0,"x_max":0,"o":"m 585 724 l 547 761 l 178 761 l 142 724 l 142 37 l 178 0 l 231 0 l 268 37 l 268 618 l 241 644 l 257 660 l 283 633 l 547 633 l 564 618 l 564 37 l 602 0 l 654 0 l 690 37 l 690 618 l 654 656 l 602 656 l 585 671 z "},"o":{"ha":833,"x_min":0,"x_max":0,"o":"m 283 0 l 547 0 l 585 37 l 585 90 l 602 106 l 654 106 l 690 143 l 690 618 l 654 656 l 602 656 l 585 671 l 585 724 l 547 761 l 283 761 l 248 724 l 248 671 l 231 656 l 178 656 l 142 618 l 142 143 l 178 106 l 231 106 l 248 90 l 248 37 z m 283 127 l 268 143 l 268 618 l 283 633 l 547 633 l 564 618 l 564 143 l 547 127 z "},"p":{"ha":833,"x_min":0,"x_max":0,"o":"m 585 37 l 585 90 l 602 106 l 654 106 l 690 143 l 690 618 l 654 656 l 602 656 l 585 671 l 585 724 l 547 761 l 178 761 l 142 724 l 142 -174 l 178 -211 l 231 -211 l 268 -174 l 268 -16 l 241 11 l 257 26 l 283 0 l 547 0 z m 257 660 l 283 633 l 547 633 l 564 618 l 564 143 l 547 127 l 283 127 l 257 102 l 241 117 l 268 143 l 268 618 l 241 644 z "},"q":{"ha":833,"x_min":0,"x_max":0,"o":"m 283 0 l 547 0 l 575 26 l 590 11 l 564 -16 l 564 -174 l 602 -211 l 654 -211 l 690 -174 l 690 724 l 654 761 l 283 761 l 248 724 l 248 671 l 231 656 l 178 656 l 142 618 l 142 143 l 178 106 l 231 106 l 248 90 l 248 37 z m 590 644 l 564 618 l 564 143 l 590 117 l 575 102 l 547 127 l 283 127 l 268 143 l 268 618 l 283 633 l 547 633 l 575 660 z "},"r":{"ha":833,"x_min":0,"x_max":0,"o":"m 585 724 l 549 761 l 389 761 l 353 724 l 353 671 l 336 656 l 283 656 l 257 629 l 241 644 l 268 671 l 268 724 l 231 761 l 178 761 l 142 724 l 142 37 l 178 0 l 231 0 l 268 37 l 268 513 l 241 539 l 257 554 l 283 528 l 336 528 l 374 566 l 374 618 l 389 633 l 549 633 l 564 618 l 564 566 l 602 528 l 654 528 l 690 566 l 690 618 l 654 656 l 602 656 l 585 671 z "},"s":{"ha":833,"x_min":0,"x_max":0,"o":"m 585 407 l 549 444 l 283 444 l 268 460 l 268 618 l 283 633 l 549 633 l 564 618 l 564 566 l 602 528 l 654 528 l 690 566 l 690 618 l 654 656 l 602 656 l 585 671 l 585 724 l 549 761 l 283 761 l 248 724 l 248 671 l 231 656 l 178 656 l 142 618 l 142 460 l 178 422 l 231 422 l 248 407 l 248 354 l 283 317 l 549 317 l 564 301 l 564 143 l 549 127 l 283 127 l 268 143 l 268 196 l 231 233 l 178 233 l 142 196 l 142 143 l 178 106 l 231 106 l 248 90 l 248 37 l 283 0 l 549 0 l 585 37 l 585 90 l 602 106 l 654 106 l 690 143 l 690 301 l 654 339 l 602 339 l 585 354 z "},"t":{"ha":833,"x_min":0,"x_max":0,"o":"m 353 37 l 390 0 l 549 0 l 585 37 l 585 90 l 602 106 l 654 106 l 690 143 l 690 196 l 654 233 l 602 233 l 564 196 l 564 143 l 549 127 l 390 127 l 374 143 l 374 618 l 347 644 l 363 660 l 390 633 l 549 633 l 585 671 l 585 724 l 549 761 l 390 761 l 363 734 l 347 750 l 374 777 l 374 829 l 336 867 l 283 867 l 248 829 l 248 777 l 273 750 l 257 734 l 231 761 l 178 761 l 142 724 l 142 671 l 178 633 l 231 633 l 257 660 l 273 644 l 248 618 l 248 143 l 283 106 l 336 106 l 353 90 z "},"u":{"ha":833,"x_min":0,"x_max":0,"o":"m 248 37 l 283 0 l 654 0 l 690 37 l 690 724 l 654 761 l 602 761 l 564 724 l 564 143 l 590 117 l 575 102 l 549 127 l 283 127 l 268 143 l 268 724 l 231 761 l 178 761 l 142 724 l 142 143 l 178 106 l 231 106 l 248 90 z "},"v":{"ha":833,"x_min":0,"x_max":0,"o":"m 390 127 l 374 143 l 374 196 l 336 233 l 285 233 l 268 249 l 268 724 l 231 761 l 178 761 l 142 724 l 142 249 l 178 211 l 231 211 l 248 196 l 248 143 l 285 106 l 336 106 l 353 90 l 353 37 l 390 0 l 443 0 l 479 37 l 479 90 l 496 106 l 549 106 l 585 143 l 585 196 l 602 211 l 654 211 l 690 249 l 690 724 l 654 761 l 602 761 l 564 724 l 564 249 l 549 233 l 496 233 l 458 196 l 458 143 l 443 127 z "},"w":{"ha":833,"x_min":0,"x_max":0,"o":"m 285 0 l 336 0 l 374 37 l 374 90 l 390 106 l 443 106 l 458 90 l 458 37 l 496 0 l 549 0 l 585 37 l 585 90 l 602 106 l 654 106 l 690 143 l 690 724 l 654 761 l 602 761 l 564 724 l 564 143 l 549 127 l 496 127 l 479 143 l 479 407 l 443 444 l 390 444 l 353 407 l 353 143 l 336 127 l 285 127 l 268 143 l 268 724 l 231 761 l 178 761 l 142 724 l 142 143 l 178 106 l 231 106 l 248 90 l 248 37 z "},"x":{"ha":833,"x_min":0,"x_max":0,"o":"m 564 566 l 549 550 l 496 550 l 458 513 l 458 460 l 443 444 l 336 550 l 285 550 l 268 566 l 268 724 l 231 761 l 178 761 l 142 724 l 142 566 l 178 528 l 231 528 l 248 513 l 248 460 l 353 354 l 336 339 l 285 339 l 248 301 l 248 249 l 231 233 l 178 233 l 142 196 l 142 37 l 178 0 l 231 0 l 268 37 l 268 196 l 285 211 l 336 211 l 374 249 l 374 301 l 390 317 l 496 211 l 549 211 l 564 196 l 564 37 l 602 0 l 654 0 l 690 37 l 690 196 l 654 233 l 602 233 l 585 249 l 585 301 l 479 407 l 496 422 l 549 422 l 585 460 l 585 513 l 602 528 l 654 528 l 690 566 l 690 724 l 654 761 l 602 761 l 564 724 z "},"y":{"ha":833,"x_min":0,"x_max":0,"o":"m 564 -16 l 564 -68 l 549 -83 l 285 -83 l 248 -121 l 248 -174 l 285 -211 l 549 -211 l 585 -174 l 585 -121 l 602 -106 l 654 -106 l 690 -68 l 690 724 l 654 761 l 602 761 l 564 724 l 564 143 l 590 117 l 575 102 l 549 127 l 285 127 l 268 143 l 268 724 l 231 761 l 178 761 l 142 724 l 142 143 l 178 106 l 231 106 l 248 90 l 248 37 l 285 0 l 549 0 l 575 26 l 590 11 z "},"z":{"ha":833,"x_min":0,"x_max":0,"o":"m 564 618 l 564 566 l 549 550 l 496 550 l 248 301 l 248 249 l 231 233 l 178 233 l 142 196 l 142 37 l 178 0 l 654 0 l 690 37 l 690 90 l 654 127 l 285 127 l 257 102 l 241 117 l 268 143 l 268 196 l 285 211 l 336 211 l 585 460 l 585 513 l 602 528 l 654 528 l 690 566 l 690 724 l 654 761 l 178 761 l 142 724 l 142 671 l 178 633 l 549 633 l 575 660 l 590 644 z "},"{":{"ha":833,"x_min":0,"x_max":0,"o":"m 458 37 l 496 0 l 549 0 l 585 37 l 585 90 l 549 127 l 496 127 l 479 143 l 479 407 l 443 444 l 390 444 l 374 460 l 374 513 l 390 528 l 443 528 l 479 566 l 479 829 l 496 844 l 549 844 l 585 882 l 585 935 l 549 972 l 496 972 l 458 935 l 458 882 l 443 867 l 390 867 l 353 829 l 353 566 l 336 550 l 285 550 l 248 513 l 248 460 l 285 422 l 336 422 l 353 407 l 353 143 l 390 106 l 443 106 l 458 90 z "},"|":{"ha":833,"x_min":0,"x_max":0,"o":"m 353 -68 l 390 -106 l 443 -106 l 479 -68 l 479 1040 l 443 1078 l 390 1078 l 353 1040 z "},"}":{"ha":833,"x_min":0,"x_max":0,"o":"m 374 37 l 374 90 l 390 106 l 443 106 l 479 143 l 479 407 l 496 422 l 549 422 l 585 460 l 585 513 l 549 550 l 496 550 l 479 566 l 479 829 l 443 867 l 390 867 l 374 882 l 374 935 l 336 972 l 285 972 l 248 935 l 248 882 l 285 844 l 336 844 l 353 829 l 353 566 l 390 528 l 443 528 l 458 513 l 458 460 l 443 444 l 390 444 l 353 407 l 353 143 l 336 127 l 285 127 l 248 90 l 248 37 l 285 0 l 336 0 z "},"~":{"ha":833,"x_min":0,"x_max":0,"o":"m 248 618 l 248 566 l 231 550 l 178 550 l 142 513 l 142 460 l 178 422 l 231 422 l 268 460 l 268 513 l 285 528 l 443 528 l 458 513 l 458 460 l 496 422 l 549 422 l 585 460 l 585 513 l 602 528 l 654 528 l 690 566 l 690 618 l 654 656 l 602 656 l 564 618 l 564 566 l 549 550 l 496 550 l 479 566 l 479 618 l 443 656 l 285 656 z "},"¡":{"ha":833,"x_min":0,"x_max":0,"o":"m 353 513 l 353 -174 l 390 -211 l 443 -211 l 479 -174 l 479 513 l 443 550 l 390 550 z m 347 660 l 383 623 l 449 623 l 486 660 l 486 724 l 449 761 l 383 761 l 347 724 z "},"¢":{"ha":833,"x_min":0,"x_max":0,"o":"m 585 143 l 585 196 l 602 211 l 654 211 l 690 249 l 690 301 l 654 339 l 602 339 l 564 301 l 564 249 l 549 233 l 496 233 l 469 207 l 453 222 l 479 249 l 479 724 l 453 750 l 469 765 l 496 739 l 549 739 l 564 724 l 564 671 l 602 633 l 654 633 l 690 671 l 690 724 l 654 761 l 602 761 l 585 777 l 585 829 l 549 867 l 496 867 l 469 840 l 453 856 l 479 882 l 479 935 l 443 972 l 390 972 l 353 935 l 353 882 l 379 856 l 364 840 l 336 867 l 285 867 l 248 829 l 248 777 l 231 761 l 178 761 l 142 724 l 142 249 l 178 211 l 231 211 l 248 196 l 248 143 l 285 106 l 336 106 l 364 132 l 379 117 l 353 90 l 353 37 l 390 0 l 443 0 l 479 37 l 479 90 l 453 117 l 469 132 l 496 106 l 549 106 z m 379 222 l 364 207 l 336 233 l 285 233 l 268 249 l 268 724 l 285 739 l 336 739 l 364 765 l 379 750 l 353 724 l 353 249 z "},"£":{"ha":833,"x_min":0,"x_max":0,"o":"m 353 935 l 353 882 l 336 867 l 285 867 l 248 829 l 248 460 l 273 433 l 258 418 l 231 444 l 178 444 l 142 407 l 142 354 l 178 317 l 231 317 l 258 343 l 273 328 l 248 301 l 248 143 l 273 117 l 258 102 l 231 127 l 178 127 l 142 90 l 142 37 l 178 0 l 654 0 l 690 37 l 690 90 l 654 127 l 390 127 l 364 102 l 347 117 l 374 143 l 374 301 l 347 328 l 364 343 l 390 317 l 549 317 l 585 354 l 585 407 l 549 444 l 390 444 l 364 418 l 347 433 l 374 460 l 374 829 l 390 844 l 549 844 l 564 829 l 564 671 l 602 633 l 654 633 l 690 671 l 690 829 l 654 867 l 602 867 l 585 882 l 585 935 l 549 972 l 390 972 z "},"¤":{"ha":833,"x_min":0,"x_max":0,"o":"m 602 211 l 654 211 l 690 249 l 690 301 l 654 339 l 602 339 l 585 354 l 585 407 l 558 433 l 585 460 l 585 513 l 558 539 l 585 566 l 585 618 l 602 633 l 654 633 l 690 671 l 690 724 l 654 761 l 602 761 l 564 724 l 564 671 l 549 656 l 496 656 l 469 629 l 443 656 l 390 656 l 364 629 l 336 656 l 285 656 l 268 671 l 268 724 l 231 761 l 178 761 l 142 724 l 142 671 l 178 633 l 231 633 l 248 618 l 248 566 l 273 539 l 248 513 l 248 460 l 273 433 l 248 407 l 248 354 l 231 339 l 178 339 l 142 301 l 142 249 l 178 211 l 231 211 l 268 249 l 268 301 l 285 317 l 336 317 l 364 343 l 390 317 l 443 317 l 469 343 l 496 317 l 549 317 l 564 301 l 564 249 z m 443 444 l 390 444 l 364 418 l 347 433 l 374 460 l 374 513 l 347 539 l 364 554 l 390 528 l 443 528 l 469 554 l 485 539 l 458 513 l 458 460 l 485 433 l 469 418 z "},"¥":{"ha":833,"x_min":0,"x_max":0,"o":"m 479 513 l 496 528 l 549 528 l 585 566 l 585 618 l 602 633 l 654 633 l 690 671 l 690 935 l 654 972 l 602 972 l 564 935 l 564 671 l 549 656 l 496 656 l 458 618 l 458 566 l 443 550 l 390 550 l 374 566 l 374 618 l 336 656 l 285 656 l 268 671 l 268 935 l 231 972 l 178 972 l 142 935 l 142 671 l 178 633 l 231 633 l 248 618 l 248 566 l 285 528 l 336 528 l 353 513 l 353 460 l 379 433 l 364 418 l 336 444 l 178 444 l 142 407 l 142 354 l 178 317 l 336 317 l 364 343 l 379 328 l 353 301 l 353 249 l 379 222 l 364 207 l 336 233 l 178 233 l 142 196 l 142 143 l 178 106 l 336 106 l 364 132 l 379 117 l 353 90 l 353 37 l 390 0 l 443 0 l 479 37 l 479 90 l 453 117 l 469 132 l 496 106 l 654 106 l 690 143 l 690 196 l 654 233 l 496 233 l 469 207 l 453 222 l 479 249 l 479 301 l 453 328 l 469 343 l 496 317 l 654 317 l 690 354 l 690 407 l 654 444 l 496 444 l 469 418 l 453 433 l 479 460 z "},"¦":{"ha":833,"x_min":0,"x_max":0,"o":"m 353 566 l 390 528 l 443 528 l 479 566 l 479 1040 l 443 1078 l 390 1078 l 353 1040 z m 353 -68 l 390 -106 l 443 -106 l 479 -68 l 479 407 l 443 444 l 390 444 l 353 407 z "},"§":{"ha":833,"x_min":0,"x_max":0,"o":"m 549 656 l 285 656 l 268 671 l 268 829 l 285 844 l 549 844 l 564 829 l 564 777 l 602 739 l 654 739 l 690 777 l 690 829 l 654 867 l 602 867 l 585 882 l 585 935 l 549 972 l 285 972 l 248 935 l 248 882 l 231 867 l 178 867 l 142 829 l 142 671 l 178 633 l 231 633 l 248 618 l 248 566 l 231 550 l 178 550 l 142 513 l 142 354 l 178 317 l 231 317 l 248 301 l 248 249 l 285 211 l 549 211 l 564 196 l 564 37 l 549 22 l 285 22 l 268 37 l 268 90 l 231 127 l 178 127 l 142 90 l 142 37 l 178 0 l 231 0 l 248 -16 l 248 -68 l 285 -106 l 549 -106 l 585 -68 l 585 -16 l 602 0 l 654 0 l 690 37 l 690 196 l 654 233 l 602 233 l 585 249 l 585 301 l 602 317 l 654 317 l 690 354 l 690 513 l 654 550 l 602 550 l 585 566 l 585 618 z m 268 513 l 285 528 l 549 528 l 564 513 l 564 354 l 549 339 l 285 339 l 268 354 z "},"¨":{"ha":833,"x_min":0,"x_max":0,"o":"m 446 1185 l 446 1074 l 472 1047 l 509 1047 l 534 1074 l 534 1185 l 509 1211 l 472 1211 z m 297 1074 l 323 1047 l 359 1047 l 386 1074 l 386 1185 l 359 1211 l 323 1211 l 297 1185 z "},"©":{"ha":833,"x_min":0,"x_max":0,"o":"m 597 237 l 597 267 l 606 275 l 635 275 l 656 296 l 656 325 l 665 335 l 694 335 l 714 354 l 714 618 l 694 639 l 665 639 l 656 647 l 656 676 l 635 697 l 606 697 l 597 705 l 597 734 l 576 755 l 547 755 l 539 764 l 539 793 l 518 814 l 314 814 l 293 793 l 293 764 l 285 755 l 256 755 l 235 734 l 235 705 l 227 697 l 197 697 l 176 676 l 176 647 l 168 639 l 139 639 l 118 618 l 118 354 l 139 335 l 168 335 l 176 325 l 176 296 l 197 275 l 227 275 l 235 267 l 235 237 l 256 216 l 285 216 l 293 208 l 293 179 l 314 158 l 518 158 l 539 179 l 539 208 l 547 216 l 576 216 z m 197 627 l 227 627 l 248 647 l 248 676 l 256 685 l 285 685 l 306 705 l 306 734 l 314 743 l 518 743 l 526 734 l 526 705 l 547 685 l 576 685 l 586 676 l 586 647 l 606 627 l 635 627 l 644 618 l 644 354 l 635 346 l 606 346 l 586 325 l 586 296 l 576 288 l 547 288 l 526 267 l 526 237 l 518 229 l 314 229 l 306 237 l 306 267 l 285 288 l 256 288 l 248 296 l 248 325 l 227 346 l 197 346 l 187 354 l 187 618 z m 293 354 l 314 335 l 343 335 l 351 325 l 351 296 l 372 275 l 460 275 l 481 296 l 481 325 l 489 335 l 518 335 l 539 354 l 539 383 l 518 404 l 489 404 l 468 383 l 468 354 l 460 346 l 372 346 l 364 354 l 364 618 l 372 627 l 460 627 l 468 618 l 468 589 l 489 568 l 518 568 l 539 589 l 539 618 l 518 639 l 489 639 l 481 647 l 481 676 l 460 697 l 372 697 l 351 676 l 351 647 l 343 639 l 314 639 l 293 618 z "},"ª":{"ha":833,"x_min":0,"x_max":0,"o":"m 361 657 l 515 657 l 530 672 l 530 914 l 515 929 l 493 929 l 486 935 l 486 957 l 471 972 l 361 972 l 346 957 l 346 935 l 339 929 l 318 929 l 302 914 l 302 892 l 318 876 l 339 876 l 355 892 l 355 914 l 361 920 l 471 920 l 478 914 l 478 847 l 489 836 l 482 831 l 471 842 l 361 842 l 346 825 l 346 804 l 339 798 l 318 798 l 302 782 l 302 717 l 318 701 l 339 701 l 346 694 l 346 672 z m 361 710 l 355 717 l 355 782 l 361 789 l 471 789 l 482 799 l 489 793 l 478 782 l 478 717 l 489 705 l 482 699 l 471 710 z "},"«":{"ha":833,"x_min":0,"x_max":0,"o":"m 248 618 l 248 566 l 231 550 l 178 550 l 142 513 l 142 354 l 178 317 l 231 317 l 248 301 l 248 249 l 285 211 l 336 211 l 353 196 l 353 143 l 390 106 l 443 106 l 479 143 l 479 196 l 443 233 l 390 233 l 374 249 l 374 301 l 336 339 l 285 339 l 268 354 l 268 513 l 285 528 l 336 528 l 374 566 l 374 618 l 390 633 l 443 633 l 479 671 l 479 724 l 443 761 l 390 761 l 353 724 l 353 671 l 336 656 l 285 656 z m 458 618 l 458 566 l 443 550 l 390 550 l 353 513 l 353 354 l 390 317 l 443 317 l 458 301 l 458 249 l 496 211 l 549 211 l 564 196 l 564 143 l 602 106 l 654 106 l 690 143 l 690 196 l 654 233 l 602 233 l 585 249 l 585 301 l 549 339 l 496 339 l 479 354 l 479 513 l 496 528 l 549 528 l 585 566 l 585 618 l 602 633 l 654 633 l 690 671 l 690 724 l 654 761 l 602 761 l 564 724 l 564 671 l 549 656 l 496 656 z "},"¬":{"ha":833,"x_min":0,"x_max":0,"o":"m 628 554 l 643 539 l 616 513 l 616 354 l 654 317 l 707 317 l 743 354 l 743 618 l 707 656 l 125 656 l 89 618 l 89 566 l 125 528 l 602 528 z "},"­":{"ha":833,"x_min":0,"x_max":0,"o":"m 654 422 l 690 460 l 690 513 l 654 550 l 178 550 l 142 513 l 142 460 l 178 422 z "},"®":{"ha":833,"x_min":0,"x_max":0,"o":"m 551 542 l 551 562 l 558 570 l 581 570 l 596 585 l 596 607 l 603 614 l 624 614 l 639 629 l 639 825 l 624 842 l 603 842 l 596 847 l 596 869 l 581 885 l 558 885 l 551 892 l 551 914 l 536 929 l 515 929 l 509 935 l 509 957 l 493 972 l 339 972 l 323 957 l 323 935 l 318 929 l 296 929 l 281 914 l 281 892 l 273 885 l 252 885 l 236 869 l 236 847 l 231 842 l 208 842 l 193 825 l 193 629 l 208 614 l 231 614 l 236 607 l 236 585 l 252 570 l 273 570 l 281 562 l 281 542 l 296 525 l 318 525 l 323 519 l 323 497 l 339 482 l 493 482 l 509 497 l 509 519 l 515 525 l 536 525 z m 252 832 l 273 832 l 289 847 l 289 869 l 296 876 l 318 876 l 334 892 l 334 914 l 339 920 l 493 920 l 498 914 l 498 892 l 515 876 l 536 876 l 543 869 l 543 847 l 558 832 l 581 832 l 586 825 l 586 629 l 581 623 l 558 623 l 543 607 l 543 585 l 536 578 l 515 578 l 498 562 l 498 542 l 493 534 l 339 534 l 334 542 l 334 562 l 318 578 l 296 578 l 289 585 l 289 607 l 273 623 l 252 623 l 245 629 l 245 825 z m 471 745 l 493 745 l 509 760 l 509 825 l 493 842 l 471 842 l 464 847 l 464 869 l 449 885 l 383 885 l 372 873 l 361 885 l 339 885 l 323 869 l 323 585 l 339 570 l 361 570 l 376 585 l 376 694 l 366 705 l 372 711 l 383 701 l 449 701 l 456 694 l 456 585 l 471 570 l 493 570 l 509 585 l 509 694 l 493 710 l 471 710 l 464 717 l 464 737 z m 456 825 l 456 760 l 449 754 l 383 754 l 372 743 l 366 749 l 376 760 l 376 825 l 366 836 l 372 843 l 383 832 l 449 832 z "},"°":{"ha":833,"x_min":0,"x_max":0,"o":"m 258 760 l 273 745 l 296 745 l 302 737 l 302 717 l 318 701 l 339 701 l 346 694 l 346 672 l 361 657 l 471 657 l 486 672 l 486 694 l 493 701 l 515 701 l 530 717 l 530 737 l 536 745 l 558 745 l 574 760 l 574 869 l 558 885 l 536 885 l 530 892 l 530 914 l 515 929 l 493 929 l 486 935 l 486 957 l 471 972 l 361 972 l 346 957 l 346 935 l 339 929 l 318 929 l 302 914 l 302 892 l 296 885 l 273 885 l 258 869 z m 311 760 l 311 869 l 318 876 l 339 876 l 355 892 l 355 914 l 361 920 l 471 920 l 478 914 l 478 892 l 493 876 l 515 876 l 521 869 l 521 760 l 515 754 l 493 754 l 478 737 l 478 717 l 471 710 l 361 710 l 355 717 l 355 737 l 339 754 l 318 754 z "},"±":{"ha":833,"x_min":0,"x_max":0,"o":"m 654 0 l 690 37 l 690 90 l 654 127 l 178 127 l 142 90 l 142 37 l 178 0 z m 353 724 l 353 566 l 379 539 l 364 524 l 336 550 l 178 550 l 142 513 l 142 460 l 178 422 l 336 422 l 364 449 l 379 433 l 353 407 l 353 249 l 390 211 l 443 211 l 479 249 l 479 407 l 453 433 l 469 449 l 496 422 l 654 422 l 690 460 l 690 513 l 654 550 l 496 550 l 469 524 l 453 539 l 479 566 l 479 724 l 443 761 l 390 761 z "},"²":{"ha":833,"x_min":0,"x_max":0,"o":"m 486 957 l 471 972 l 361 972 l 346 957 l 346 935 l 339 929 l 318 929 l 302 914 l 302 892 l 318 876 l 339 876 l 355 892 l 355 914 l 361 920 l 471 920 l 478 914 l 478 847 l 471 842 l 449 842 l 346 737 l 346 717 l 339 710 l 318 710 l 302 694 l 302 585 l 318 570 l 515 570 l 530 585 l 530 607 l 515 623 l 361 623 l 350 611 l 345 618 l 355 629 l 355 694 l 361 701 l 383 701 l 486 804 l 486 825 l 493 832 l 515 832 l 530 847 l 530 914 l 515 929 l 493 929 l 486 935 z "},"³":{"ha":833,"x_min":0,"x_max":0,"o":"m 486 585 l 486 607 l 493 614 l 515 614 l 530 629 l 530 737 l 515 754 l 493 754 l 486 760 l 486 782 l 493 789 l 515 789 l 530 804 l 530 914 l 515 929 l 493 929 l 486 935 l 486 957 l 471 972 l 361 972 l 346 957 l 346 935 l 339 929 l 318 929 l 302 914 l 302 892 l 318 876 l 339 876 l 355 892 l 355 914 l 361 920 l 471 920 l 478 914 l 478 804 l 471 798 l 361 798 l 346 782 l 346 760 l 361 745 l 471 745 l 478 737 l 478 629 l 471 623 l 361 623 l 355 629 l 355 650 l 339 665 l 318 665 l 302 650 l 302 629 l 318 614 l 339 614 l 346 607 l 346 585 l 361 570 l 471 570 z "},"´":{"ha":833,"x_min":0,"x_max":0,"o":"m 408 1149 l 397 1137 l 359 1137 l 335 1111 l 335 1074 l 359 1047 l 397 1047 l 424 1074 l 424 1111 l 435 1122 l 472 1122 l 498 1149 l 498 1185 l 472 1211 l 435 1211 l 408 1185 z "},"µ":{"ha":833,"x_min":0,"x_max":0,"o":"m 458 196 l 458 143 l 443 127 l 285 127 l 257 102 l 241 117 l 268 143 l 268 724 l 231 761 l 178 761 l 142 724 l 142 -174 l 178 -211 l 231 -211 l 268 -174 l 268 -16 l 241 11 l 257 26 l 285 0 l 443 0 l 479 37 l 479 90 l 496 106 l 549 106 l 575 132 l 590 117 l 564 90 l 564 37 l 602 0 l 654 0 l 690 37 l 690 724 l 654 761 l 602 761 l 564 724 l 564 249 l 590 222 l 575 207 l 549 233 l 496 233 z "},"¶":{"ha":833,"x_min":0,"x_max":0,"o":"m 564 829 l 564 37 l 602 0 l 654 0 l 690 37 l 690 935 l 654 972 l 285 972 l 142 829 l 142 566 l 285 422 l 336 422 l 364 449 l 379 433 l 353 407 l 353 37 l 390 0 l 443 0 l 479 37 l 479 829 l 453 856 l 469 872 l 496 844 l 549 844 l 575 872 l 590 856 z "},"·":{"ha":833,"x_min":0,"x_max":0,"o":"m 347 518 l 347 454 l 383 416 l 449 416 l 486 454 l 486 518 l 449 555 l 383 555 z "},"¸":{"ha":833,"x_min":0,"x_max":0,"o":"m 359 -286 l 472 -286 l 498 -260 l 498 -222 l 510 -212 l 546 -212 l 572 -186 l 572 -149 l 546 -122 l 510 -122 l 498 -111 l 498 -74 l 472 -47 l 435 -47 l 424 -37 l 424 0 l 397 26 l 359 26 l 335 0 l 335 -37 l 359 -62 l 397 -62 l 408 -74 l 408 -111 l 435 -138 l 472 -138 l 484 -149 l 484 -186 l 472 -197 l 359 -197 l 350 -186 l 350 -149 l 323 -122 l 286 -122 l 260 -149 l 260 -186 l 286 -212 l 323 -212 l 335 -222 l 335 -260 z "},"¹":{"ha":833,"x_min":0,"x_max":0,"o":"m 395 888 l 400 880 l 390 869 l 390 629 l 400 618 l 395 611 l 383 623 l 361 623 l 346 607 l 346 585 l 361 570 l 471 570 l 486 585 l 486 607 l 471 623 l 449 623 l 437 611 l 432 618 l 443 629 l 443 957 l 427 972 l 406 972 l 390 957 l 390 935 l 400 924 l 395 918 l 383 929 l 361 929 l 346 914 l 346 892 l 361 876 l 383 876 z "},"»":{"ha":833,"x_min":0,"x_max":0,"o":"m 547 656 l 496 656 l 479 671 l 479 724 l 441 761 l 389 761 l 353 724 l 353 671 l 389 633 l 441 633 l 458 618 l 458 566 l 496 528 l 547 528 l 564 513 l 564 354 l 547 339 l 496 339 l 458 301 l 458 249 l 441 233 l 389 233 l 353 196 l 353 143 l 389 106 l 441 106 l 479 143 l 479 196 l 496 211 l 547 211 l 585 249 l 585 301 l 602 317 l 654 317 l 690 354 l 690 513 l 654 550 l 602 550 l 585 566 l 585 618 z m 336 656 l 283 656 l 268 671 l 268 724 l 231 761 l 178 761 l 142 724 l 142 671 l 178 633 l 231 633 l 248 618 l 248 566 l 283 528 l 336 528 l 353 513 l 353 354 l 336 339 l 283 339 l 248 301 l 248 249 l 231 233 l 178 233 l 142 196 l 142 143 l 178 106 l 231 106 l 268 143 l 268 196 l 283 211 l 336 211 l 374 249 l 374 301 l 389 317 l 441 317 l 479 354 l 479 513 l 441 550 l 389 550 l 374 566 l 374 618 z "},"¿":{"ha":833,"x_min":0,"x_max":0,"o":"m 441 550 l 389 550 l 353 513 l 353 249 l 336 233 l 283 233 l 248 196 l 248 143 l 231 127 l 178 127 l 142 90 l 142 -68 l 178 -106 l 231 -106 l 248 -121 l 248 -174 l 283 -211 l 547 -211 l 585 -174 l 585 -121 l 602 -106 l 654 -106 l 690 -68 l 690 -16 l 654 22 l 602 22 l 564 -16 l 564 -68 l 547 -83 l 283 -83 l 268 -68 l 268 90 l 283 106 l 336 106 l 374 143 l 374 196 l 389 211 l 441 211 l 479 249 l 479 513 z m 485 724 l 449 761 l 383 761 l 346 724 l 346 660 l 383 623 l 449 623 l 485 660 z "},"À":{"ha":833,"x_min":0,"x_max":0,"o":"m 585 884 l 585 936 l 549 974 l 285 974 l 248 936 l 248 884 l 231 868 l 178 868 l 142 831 l 142 39 l 178 1 l 231 1 l 268 39 l 268 408 l 241 435 l 258 450 l 285 424 l 549 424 l 575 450 l 590 435 l 564 408 l 564 39 l 602 1 l 654 1 l 690 39 l 690 831 l 654 868 l 602 868 z m 564 831 l 564 567 l 590 541 l 575 524 l 549 550 l 285 550 l 258 524 l 241 541 l 268 567 l 268 831 l 285 846 l 549 846 z m 425 1185 l 399 1211 l 361 1211 l 335 1185 l 335 1149 l 361 1122 l 399 1122 l 410 1111 l 410 1074 l 436 1047 l 473 1047 l 498 1074 l 498 1111 l 473 1137 l 436 1137 l 425 1149 z "},"Á":{"ha":833,"x_min":0,"x_max":0,"o":"m 585 884 l 585 936 l 549 974 l 285 974 l 248 936 l 248 884 l 231 868 l 178 868 l 142 831 l 142 39 l 178 1 l 231 1 l 268 39 l 268 408 l 241 435 l 258 450 l 285 424 l 549 424 l 575 450 l 590 435 l 564 408 l 564 39 l 602 1 l 654 1 l 690 39 l 690 831 l 654 868 l 602 868 z m 564 831 l 564 567 l 590 541 l 575 524 l 549 550 l 285 550 l 258 524 l 241 541 l 268 567 l 268 831 l 285 846 l 549 846 z m 408 1149 l 397 1137 l 359 1137 l 335 1111 l 335 1074 l 359 1047 l 397 1047 l 424 1074 l 424 1111 l 435 1122 l 472 1122 l 498 1149 l 498 1185 l 472 1211 l 435 1211 l 408 1185 z "},"Â":{"ha":833,"x_min":0,"x_max":0,"o":"m 585 882 l 585 935 l 549 972 l 285 972 l 248 935 l 248 882 l 231 867 l 178 867 l 142 829 l 142 37 l 178 0 l 231 0 l 268 37 l 268 407 l 241 433 l 257 449 l 285 422 l 549 422 l 575 449 l 590 433 l 564 407 l 564 37 l 602 0 l 654 0 l 690 37 l 690 829 l 654 867 l 602 867 z m 564 829 l 564 566 l 590 539 l 575 524 l 549 550 l 285 550 l 257 524 l 241 539 l 268 566 l 268 829 l 285 846 l 549 846 z m 297 1109 l 297 1074 l 323 1047 l 359 1047 l 386 1074 l 386 1109 l 397 1121 l 435 1121 l 446 1109 l 446 1074 l 472 1047 l 509 1047 l 534 1074 l 534 1109 l 509 1136 l 472 1136 l 461 1147 l 461 1185 l 435 1211 l 397 1211 l 371 1185 l 371 1147 l 359 1136 l 323 1136 z "},"Ã":{"ha":833,"x_min":0,"x_max":0,"o":"m 585 882 l 585 935 l 549 972 l 285 972 l 248 935 l 248 882 l 231 867 l 178 867 l 142 829 l 142 37 l 178 0 l 231 0 l 268 37 l 268 407 l 241 433 l 257 449 l 285 422 l 549 422 l 575 449 l 590 433 l 564 407 l 564 37 l 602 0 l 654 0 l 690 37 l 690 829 l 654 867 l 602 867 z m 564 829 l 564 566 l 590 539 l 575 524 l 549 550 l 285 550 l 257 524 l 241 539 l 268 566 l 268 829 l 285 846 l 549 846 z m 297 1185 l 297 1147 l 286 1136 l 249 1136 l 222 1109 l 222 1074 l 249 1047 l 286 1047 l 313 1074 l 313 1109 l 323 1121 l 435 1121 l 446 1109 l 446 1074 l 472 1047 l 509 1047 l 534 1074 l 534 1109 l 546 1121 l 583 1121 l 610 1147 l 610 1185 l 583 1211 l 546 1211 l 519 1185 l 519 1147 l 509 1136 l 472 1136 l 461 1147 l 461 1185 l 435 1211 l 323 1211 z "},"Ä":{"ha":833,"x_min":0,"x_max":0,"o":"m 585 882 l 585 935 l 549 972 l 285 972 l 248 935 l 248 882 l 231 867 l 178 867 l 142 829 l 142 37 l 178 0 l 231 0 l 268 37 l 268 407 l 241 433 l 257 449 l 285 422 l 549 422 l 575 449 l 590 433 l 564 407 l 564 37 l 602 0 l 654 0 l 690 37 l 690 829 l 654 867 l 602 867 z m 564 829 l 564 566 l 590 539 l 575 524 l 549 550 l 285 550 l 257 524 l 241 539 l 268 566 l 268 829 l 285 846 l 549 846 z m 446 1185 l 446 1074 l 472 1047 l 509 1047 l 534 1074 l 534 1185 l 509 1211 l 472 1211 z m 297 1074 l 323 1047 l 359 1047 l 386 1074 l 386 1185 l 359 1211 l 323 1211 l 297 1185 z "},"Å":{"ha":833,"x_min":0,"x_max":0,"o":"m 281 1060 l 296 1044 l 318 1044 l 323 1038 l 323 1017 l 339 1002 l 361 1002 l 368 994 l 368 972 l 285 972 l 248 935 l 248 882 l 231 867 l 178 867 l 142 829 l 142 37 l 178 0 l 231 0 l 268 37 l 268 407 l 241 433 l 258 449 l 285 422 l 549 422 l 575 449 l 590 433 l 564 407 l 564 37 l 602 0 l 654 0 l 690 37 l 690 829 l 654 867 l 602 867 l 585 882 l 585 935 l 549 972 l 464 972 l 464 994 l 471 1002 l 493 1002 l 509 1017 l 509 1038 l 515 1044 l 536 1044 l 551 1060 l 551 1125 l 536 1141 l 515 1141 l 509 1147 l 509 1169 l 493 1185 l 471 1185 l 464 1192 l 464 1213 l 449 1229 l 383 1229 l 368 1213 l 368 1192 l 361 1185 l 339 1185 l 323 1169 l 323 1147 l 318 1141 l 296 1141 l 281 1125 z m 339 1132 l 361 1132 l 376 1147 l 376 1169 l 383 1177 l 449 1177 l 456 1169 l 456 1147 l 471 1132 l 493 1132 l 498 1125 l 498 1060 l 493 1053 l 471 1053 l 456 1038 l 456 1017 l 449 1010 l 383 1010 l 376 1017 l 376 1038 l 361 1053 l 339 1053 l 334 1060 l 334 1125 z m 564 829 l 564 566 l 590 539 l 575 524 l 549 550 l 285 550 l 258 524 l 241 539 l 268 566 l 268 829 l 285 846 l 549 846 z "},"Æ":{"ha":833,"x_min":0,"x_max":0,"o":"m 248 935 l 248 882 l 231 867 l 178 867 l 142 829 l 142 37 l 178 0 l 231 0 l 268 37 l 268 407 l 241 433 l 257 449 l 285 422 l 336 422 l 364 449 l 379 433 l 353 407 l 353 37 l 390 0 l 654 0 l 690 37 l 690 90 l 654 127 l 496 127 l 469 102 l 453 117 l 479 143 l 479 407 l 453 433 l 469 449 l 496 422 l 654 422 l 690 460 l 690 513 l 654 550 l 496 550 l 469 524 l 453 539 l 479 566 l 479 829 l 453 856 l 469 872 l 496 844 l 654 844 l 690 882 l 690 935 l 654 972 l 285 972 z m 379 856 l 353 829 l 353 566 l 379 539 l 364 524 l 336 550 l 285 550 l 257 524 l 241 539 l 268 566 l 268 829 l 285 844 l 336 844 l 364 872 z "},"Ç":{"ha":833,"x_min":0,"x_max":0,"o":"m 564 143 l 549 127 l 285 127 l 268 143 l 268 829 l 285 846 l 549 846 l 564 829 l 564 777 l 602 739 l 654 739 l 690 777 l 690 829 l 654 867 l 602 867 l 585 882 l 585 935 l 549 972 l 285 972 l 248 935 l 248 882 l 231 867 l 178 867 l 142 829 l 142 143 l 178 106 l 231 106 l 248 90 l 248 37 l 285 0 l 335 0 l 335 -37 l 359 -64 l 397 -64 l 408 -74 l 408 -111 l 435 -138 l 472 -138 l 484 -149 l 484 -186 l 472 -197 l 359 -197 l 349 -186 l 349 -149 l 323 -122 l 286 -122 l 260 -149 l 260 -186 l 286 -212 l 323 -212 l 335 -224 l 335 -260 l 359 -286 l 472 -286 l 498 -260 l 498 -224 l 510 -212 l 546 -212 l 572 -186 l 572 -149 l 546 -122 l 510 -122 l 498 -111 l 498 -74 l 472 -49 l 435 -49 l 424 -37 l 424 0 l 549 0 l 585 37 l 585 90 l 602 106 l 654 106 l 690 143 l 690 196 l 654 233 l 602 233 l 564 196 z "},"È":{"ha":833,"x_min":0,"x_max":0,"o":"m 425 1185 l 399 1211 l 361 1211 l 335 1185 l 335 1149 l 361 1122 l 399 1122 l 410 1111 l 410 1074 l 436 1047 l 473 1047 l 498 1074 l 498 1111 l 473 1137 l 436 1137 l 425 1149 z m 142 36 l 179 0 l 654 0 l 692 36 l 692 89 l 654 126 l 285 126 l 258 100 l 243 115 l 269 142 l 269 406 l 243 433 l 258 449 l 285 422 l 549 422 l 586 460 l 586 513 l 549 549 l 285 549 l 258 522 l 243 539 l 269 566 l 269 829 l 243 856 l 258 871 l 285 844 l 654 844 l 692 882 l 692 935 l 654 972 l 179 972 l 142 935 z "},"É":{"ha":833,"x_min":0,"x_max":0,"o":"m 408 1149 l 397 1137 l 359 1137 l 335 1111 l 335 1074 l 359 1047 l 397 1047 l 424 1074 l 424 1111 l 435 1122 l 472 1122 l 498 1149 l 498 1185 l 472 1211 l 435 1211 l 408 1185 z m 142 36 l 179 0 l 654 0 l 692 36 l 692 89 l 654 126 l 285 126 l 258 100 l 243 115 l 269 142 l 269 406 l 243 433 l 258 449 l 285 422 l 549 422 l 586 460 l 586 513 l 549 549 l 285 549 l 258 522 l 243 539 l 269 566 l 269 829 l 243 856 l 258 871 l 285 844 l 654 844 l 692 882 l 692 935 l 654 972 l 179 972 l 142 935 z "},"Ê":{"ha":833,"x_min":0,"x_max":0,"o":"m 297 1109 l 297 1074 l 323 1047 l 359 1047 l 386 1074 l 386 1109 l 397 1121 l 435 1121 l 446 1109 l 446 1074 l 472 1047 l 509 1047 l 534 1074 l 534 1109 l 509 1136 l 472 1136 l 461 1147 l 461 1185 l 435 1211 l 397 1211 l 371 1185 l 371 1147 l 359 1136 l 323 1136 z m 142 36 l 179 0 l 654 0 l 692 36 l 692 89 l 654 126 l 285 126 l 258 100 l 243 115 l 269 142 l 269 406 l 243 433 l 258 449 l 285 422 l 549 422 l 586 460 l 586 513 l 549 549 l 285 549 l 258 522 l 243 539 l 269 566 l 269 829 l 243 856 l 258 871 l 285 844 l 654 844 l 692 882 l 692 935 l 654 972 l 179 972 l 142 935 z "},"Ë":{"ha":833,"x_min":0,"x_max":0,"o":"m 446 1185 l 446 1074 l 472 1047 l 509 1047 l 534 1074 l 534 1185 l 509 1211 l 472 1211 z m 297 1074 l 323 1047 l 359 1047 l 386 1074 l 386 1185 l 359 1211 l 323 1211 l 297 1185 z m 142 36 l 179 0 l 654 0 l 692 36 l 692 89 l 654 126 l 285 126 l 258 100 l 243 115 l 269 142 l 269 406 l 243 433 l 258 449 l 285 422 l 549 422 l 586 460 l 586 513 l 549 549 l 285 549 l 258 522 l 243 539 l 269 566 l 269 829 l 243 856 l 258 871 l 285 844 l 654 844 l 692 882 l 692 935 l 654 972 l 179 972 l 142 935 z "},"Ì":{"ha":833,"x_min":0,"x_max":0,"o":"m 425 1185 l 399 1211 l 361 1211 l 335 1185 l 335 1149 l 361 1122 l 399 1122 l 410 1111 l 410 1074 l 436 1047 l 473 1047 l 498 1074 l 498 1111 l 473 1137 l 436 1137 l 425 1149 z m 353 829 l 353 143 l 379 117 l 364 100 l 336 126 l 285 126 l 248 89 l 248 37 l 285 0 l 549 0 l 585 37 l 585 89 l 549 126 l 496 126 l 469 100 l 453 117 l 479 143 l 479 829 l 453 856 l 469 871 l 496 844 l 549 844 l 585 882 l 585 935 l 549 972 l 285 972 l 248 935 l 248 882 l 285 844 l 336 844 l 364 871 l 379 856 z "},"Í":{"ha":833,"x_min":0,"x_max":0,"o":"m 408 1149 l 397 1137 l 359 1137 l 335 1111 l 335 1074 l 359 1047 l 397 1047 l 424 1074 l 424 1111 l 435 1122 l 472 1122 l 498 1149 l 498 1185 l 472 1211 l 435 1211 l 408 1185 z m 353 829 l 353 143 l 379 117 l 364 100 l 336 126 l 285 126 l 248 89 l 248 37 l 285 0 l 549 0 l 585 37 l 585 89 l 549 126 l 496 126 l 469 100 l 453 117 l 479 143 l 479 829 l 453 856 l 469 871 l 496 844 l 549 844 l 585 882 l 585 935 l 549 972 l 285 972 l 248 935 l 248 882 l 285 844 l 336 844 l 364 871 l 379 856 z "},"Î":{"ha":833,"x_min":0,"x_max":0,"o":"m 297 1109 l 297 1074 l 323 1047 l 359 1047 l 386 1074 l 386 1109 l 397 1121 l 435 1121 l 446 1109 l 446 1074 l 472 1047 l 509 1047 l 534 1074 l 534 1109 l 509 1136 l 472 1136 l 461 1147 l 461 1185 l 435 1211 l 397 1211 l 371 1185 l 371 1147 l 359 1136 l 323 1136 z m 353 829 l 353 143 l 379 117 l 364 100 l 336 126 l 285 126 l 248 89 l 248 37 l 285 0 l 549 0 l 585 37 l 585 89 l 549 126 l 496 126 l 469 100 l 453 117 l 479 143 l 479 829 l 453 856 l 469 871 l 496 844 l 549 844 l 585 882 l 585 935 l 549 972 l 285 972 l 248 935 l 248 882 l 285 844 l 336 844 l 364 871 l 379 856 z "},"Ï":{"ha":833,"x_min":0,"x_max":0,"o":"m 446 1185 l 446 1074 l 472 1047 l 509 1047 l 534 1074 l 534 1185 l 509 1211 l 472 1211 z m 297 1074 l 323 1047 l 359 1047 l 386 1074 l 386 1185 l 359 1211 l 323 1211 l 297 1185 z m 353 829 l 353 143 l 379 117 l 364 100 l 336 126 l 285 126 l 248 89 l 248 37 l 285 0 l 549 0 l 585 37 l 585 89 l 549 126 l 496 126 l 469 100 l 453 117 l 479 143 l 479 829 l 453 856 l 469 871 l 496 844 l 549 844 l 585 882 l 585 935 l 549 972 l 285 972 l 248 935 l 248 882 l 285 844 l 336 844 l 364 871 l 379 856 z "},"Ð":{"ha":833,"x_min":0,"x_max":0,"o":"m 285 972 l 248 935 l 248 566 l 273 539 l 257 524 l 231 550 l 178 550 l 142 513 l 142 460 l 178 422 l 231 422 l 257 449 l 273 433 l 248 407 l 248 37 l 285 0 l 549 0 l 585 37 l 585 90 l 602 106 l 654 106 l 690 143 l 690 829 l 654 867 l 602 867 l 585 882 l 585 935 l 549 972 z m 564 143 l 549 127 l 390 127 l 364 102 l 347 117 l 374 143 l 374 407 l 347 433 l 364 449 l 390 422 l 443 422 l 479 460 l 479 513 l 443 550 l 390 550 l 364 524 l 347 539 l 374 566 l 374 829 l 347 856 l 364 872 l 390 844 l 549 844 l 564 829 z "},"Ñ":{"ha":833,"x_min":0,"x_max":0,"o":"m 297 1185 l 297 1147 l 286 1136 l 249 1136 l 222 1109 l 222 1074 l 249 1047 l 286 1047 l 313 1074 l 313 1109 l 323 1121 l 435 1121 l 446 1109 l 446 1074 l 472 1047 l 509 1047 l 534 1074 l 534 1109 l 546 1121 l 583 1121 l 610 1147 l 610 1185 l 583 1211 l 546 1211 l 519 1185 l 519 1147 l 509 1136 l 472 1136 l 461 1147 l 461 1185 l 435 1211 l 323 1211 z m 258 765 l 496 528 l 549 528 l 575 554 l 591 539 l 566 513 l 566 36 l 603 0 l 654 0 l 692 36 l 692 935 l 654 972 l 603 972 l 566 935 l 566 671 l 591 644 l 575 628 l 338 867 l 285 867 l 258 839 l 243 856 l 269 882 l 269 935 l 232 972 l 179 972 l 142 935 l 142 36 l 179 0 l 232 0 l 269 36 l 269 724 l 243 750 z "},"Ò":{"ha":833,"x_min":0,"x_max":0,"o":"m 425 1185 l 399 1211 l 361 1211 l 335 1185 l 335 1149 l 361 1122 l 399 1122 l 410 1111 l 410 1074 l 436 1047 l 473 1047 l 498 1074 l 498 1111 l 473 1137 l 436 1137 l 425 1149 z m 549 0 l 586 36 l 586 89 l 603 106 l 654 106 l 692 142 l 692 829 l 654 867 l 603 867 l 586 882 l 586 935 l 549 972 l 285 972 l 249 935 l 249 882 l 232 867 l 179 867 l 142 829 l 142 142 l 179 106 l 232 106 l 249 89 l 249 36 l 285 0 z m 566 829 l 566 142 l 549 126 l 285 126 l 269 142 l 269 829 l 285 844 l 549 844 z "},"Ó":{"ha":833,"x_min":0,"x_max":0,"o":"m 549 0 l 586 36 l 586 89 l 603 106 l 654 106 l 692 142 l 692 829 l 654 867 l 603 867 l 586 882 l 586 935 l 549 972 l 285 972 l 249 935 l 249 882 l 232 867 l 179 867 l 142 829 l 142 142 l 179 106 l 232 106 l 249 89 l 249 36 l 285 0 z m 566 829 l 566 142 l 549 126 l 285 126 l 269 142 l 269 829 l 285 844 l 549 844 z m 408 1149 l 397 1137 l 359 1137 l 335 1111 l 335 1074 l 359 1047 l 397 1047 l 424 1074 l 424 1111 l 435 1122 l 472 1122 l 498 1149 l 498 1185 l 472 1211 l 435 1211 l 408 1185 z "},"Ô":{"ha":833,"x_min":0,"x_max":0,"o":"m 297 1074 l 323 1047 l 359 1047 l 386 1074 l 386 1109 l 397 1121 l 435 1121 l 446 1109 l 446 1074 l 472 1047 l 509 1047 l 534 1074 l 534 1109 l 509 1136 l 472 1136 l 461 1147 l 461 1185 l 461 1046 l 424 1046 l 412 1035 l 376 1035 l 297 1109 z m 602 -102 l 639 -65 l 639 -12 l 656 4 l 707 4 l 745 40 l 745 728 l 707 765 l 656 765 l 639 781 l 639 833 l 602 871 l 338 871 l 301 833 l 301 781 l 285 765 l 232 765 l 195 728 l 195 40 l 232 4 l 285 4 l 301 -12 l 301 -65 l 338 -102 z m 618 728 l 618 40 l 602 25 l 338 25 l 322 40 l 322 728 l 338 743 l 602 743 z "},"Õ":{"ha":833,"x_min":0,"x_max":0,"o":"m 297 1185 l 297 1147 l 286 1136 l 249 1136 l 222 1109 l 222 1074 l 249 1047 l 286 1047 l 313 1074 l 313 1109 l 323 1121 l 435 1121 l 446 1109 l 446 1074 l 472 1047 l 509 1047 l 534 1074 l 534 1109 l 546 1121 l 583 1121 l 610 1147 l 610 1185 l 583 1211 l 546 1211 l 519 1185 l 519 1147 l 509 1136 l 472 1136 l 461 1147 l 461 1185 l 435 1211 l 323 1211 z m 549 0 l 586 36 l 586 89 l 603 106 l 654 106 l 692 142 l 692 829 l 654 867 l 603 867 l 586 882 l 586 935 l 549 972 l 285 972 l 249 935 l 249 882 l 232 867 l 179 867 l 142 829 l 142 142 l 179 106 l 232 106 l 249 89 l 249 36 l 285 0 z m 566 829 l 566 142 l 549 126 l 285 126 l 269 142 l 269 829 l 285 844 l 549 844 z "},"Ö":{"ha":833,"x_min":0,"x_max":0,"o":"m 446 1185 l 446 1074 l 472 1047 l 509 1047 l 534 1074 l 534 1185 l 509 1211 l 472 1211 z m 297 1074 l 323 1047 l 359 1047 l 386 1074 l 386 1185 l 359 1211 l 323 1211 l 297 1185 z m 549 0 l 586 36 l 586 89 l 603 106 l 654 106 l 692 142 l 692 829 l 654 867 l 603 867 l 586 882 l 586 935 l 549 972 l 285 972 l 249 935 l 249 882 l 232 867 l 179 867 l 142 829 l 142 142 l 179 106 l 232 106 l 249 89 l 249 36 l 285 0 z m 566 829 l 566 142 l 549 126 l 285 126 l 269 142 l 269 829 l 285 844 l 549 844 z "},"×":{"ha":833,"x_min":0,"x_max":0,"o":"m 564 671 l 549 656 l 496 656 l 458 618 l 458 566 l 443 550 l 336 656 l 285 656 l 268 671 l 268 724 l 231 761 l 178 761 l 142 724 l 142 671 l 178 633 l 231 633 l 248 618 l 248 566 l 353 460 l 336 444 l 285 444 l 248 407 l 248 354 l 231 339 l 178 339 l 142 301 l 142 249 l 178 211 l 231 211 l 268 249 l 268 301 l 285 317 l 336 317 l 374 354 l 374 407 l 390 422 l 496 317 l 549 317 l 564 301 l 564 249 l 602 211 l 654 211 l 690 249 l 690 301 l 654 339 l 602 339 l 585 354 l 585 407 l 479 513 l 496 528 l 549 528 l 585 566 l 585 618 l 602 633 l 654 633 l 690 671 l 690 724 l 654 761 l 602 761 l 564 724 z "},"Ø":{"ha":833,"x_min":0,"x_max":0,"o":"m 36 196 l 36 143 l 72 106 l 125 106 l 151 132 l 178 106 l 231 106 l 248 90 l 248 37 l 283 0 l 549 0 l 585 37 l 585 90 l 602 106 l 654 106 l 690 143 l 690 724 l 664 750 l 681 765 l 707 739 l 760 739 l 796 777 l 796 829 l 760 867 l 707 867 l 681 840 l 654 867 l 602 867 l 585 882 l 585 935 l 549 972 l 283 972 l 248 935 l 248 882 l 231 867 l 178 867 l 142 829 l 142 249 l 168 222 l 151 207 l 125 233 l 72 233 z m 241 433 l 268 460 l 268 829 l 283 844 l 549 844 l 564 829 l 564 671 l 590 644 l 575 629 l 549 656 l 496 656 l 257 418 z m 257 343 l 283 317 l 336 317 l 575 554 l 590 539 l 564 513 l 564 143 l 549 127 l 283 127 l 268 143 l 268 301 l 241 328 z "},"Ù":{"ha":833,"x_min":0,"x_max":0,"o":"m 425 1185 l 399 1211 l 361 1211 l 335 1185 l 335 1149 l 361 1122 l 399 1122 l 410 1111 l 410 1074 l 436 1047 l 473 1047 l 498 1074 l 498 1111 l 473 1137 l 436 1137 l 425 1149 z m 564 142 l 547 126 l 283 126 l 268 142 l 268 935 l 231 972 l 178 972 l 142 935 l 142 142 l 178 106 l 231 106 l 248 89 l 248 36 l 283 0 l 547 0 l 585 36 l 585 89 l 602 106 l 654 106 l 690 142 l 690 935 l 654 972 l 602 972 l 564 935 z "},"Ú":{"ha":833,"x_min":0,"x_max":0,"o":"m 564 142 l 547 126 l 283 126 l 268 142 l 268 935 l 231 972 l 178 972 l 142 935 l 142 142 l 178 106 l 231 106 l 248 89 l 248 36 l 283 0 l 547 0 l 585 36 l 585 89 l 602 106 l 654 106 l 690 142 l 690 935 l 654 972 l 602 972 l 564 935 z m 408 1149 l 397 1137 l 359 1137 l 335 1111 l 335 1074 l 359 1047 l 397 1047 l 424 1074 l 424 1111 l 435 1122 l 472 1122 l 498 1149 l 498 1185 l 472 1211 l 435 1211 l 408 1185 z "},"Û":{"ha":833,"x_min":0,"x_max":0,"o":"m 297 1074 l 323 1047 l 359 1047 l 386 1074 l 386 1109 l 397 1121 l 435 1121 l 446 1109 l 446 1074 l 472 1047 l 509 1047 l 534 1074 l 534 1109 l 509 1136 l 472 1136 l 461 1147 l 461 1185 l 461 1046 l 424 1046 l 412 1035 l 376 1035 l 297 1109 z m 616 40 l 600 25 l 336 25 l 321 40 l 321 833 l 283 871 l 231 871 l 195 833 l 195 40 l 231 4 l 283 4 l 300 -12 l 300 -65 l 336 -102 l 600 -102 l 637 -65 l 637 -12 l 654 4 l 707 4 l 743 40 l 743 833 l 707 871 l 654 871 l 616 833 z "},"Ü":{"ha":833,"x_min":0,"x_max":0,"o":"m 446 1185 l 446 1074 l 472 1047 l 509 1047 l 534 1074 l 534 1185 l 509 1211 l 472 1211 z m 297 1074 l 323 1047 l 359 1047 l 386 1074 l 386 1185 l 359 1211 l 323 1211 l 297 1185 z m 564 142 l 547 126 l 283 126 l 268 142 l 268 935 l 231 972 l 178 972 l 142 935 l 142 142 l 178 106 l 231 106 l 248 89 l 248 36 l 283 0 l 547 0 l 585 36 l 585 89 l 602 106 l 654 106 l 690 142 l 690 935 l 654 972 l 602 972 l 564 935 z "},"Ý":{"ha":833,"x_min":0,"x_max":0,"o":"m 564 671 l 549 656 l 496 656 l 458 618 l 458 566 l 443 550 l 390 550 l 374 566 l 374 618 l 338 656 l 285 656 l 268 671 l 268 935 l 231 972 l 179 972 l 142 935 l 142 671 l 179 633 l 231 633 l 248 618 l 248 566 l 285 528 l 338 528 l 353 513 l 353 37 l 390 0 l 443 0 l 479 37 l 479 513 l 496 528 l 549 528 l 585 566 l 585 618 l 602 633 l 654 633 l 692 671 l 692 935 l 654 972 l 602 972 l 564 935 z m 408 1149 l 397 1137 l 359 1137 l 335 1111 l 335 1074 l 359 1047 l 397 1047 l 424 1074 l 424 1111 l 435 1122 l 472 1122 l 498 1149 l 498 1185 l 472 1211 l 435 1211 l 408 1185 z "},"Þ":{"ha":833,"x_min":0,"x_max":0,"o":"m 654 550 l 602 550 l 585 566 l 585 618 l 549 656 l 285 656 l 258 629 l 241 644 l 268 671 l 268 724 l 232 761 l 179 761 l 142 724 l 142 37 l 179 0 l 232 0 l 268 37 l 268 90 l 241 117 l 258 132 l 285 106 l 549 106 l 585 143 l 585 196 l 602 211 l 654 211 l 692 249 l 692 513 z m 241 222 l 268 249 l 268 513 l 241 539 l 258 554 l 285 528 l 549 528 l 564 513 l 564 249 l 549 233 l 285 233 l 258 207 z "},"ß":{"ha":833,"x_min":0,"x_max":0,"o":"m 458 671 l 443 656 l 390 656 l 353 618 l 353 566 l 390 528 l 443 528 l 458 513 l 458 460 l 496 422 l 549 422 l 564 407 l 564 143 l 549 127 l 390 127 l 353 90 l 353 37 l 390 0 l 549 0 l 585 37 l 585 90 l 602 106 l 654 106 l 692 143 l 692 407 l 654 444 l 602 444 l 585 460 l 585 513 l 549 550 l 496 550 l 479 566 l 479 618 l 496 633 l 549 633 l 585 671 l 585 829 l 549 867 l 496 867 l 479 882 l 479 935 l 443 972 l 285 972 l 248 935 l 248 882 l 231 867 l 179 867 l 142 829 l 142 37 l 179 0 l 231 0 l 268 37 l 268 829 l 285 846 l 443 846 l 458 829 z "},"à":{"ha":833,"x_min":0,"x_max":0,"o":"m 422 974 l 396 1000 l 358 1000 l 334 974 l 334 936 l 358 909 l 396 909 l 407 899 l 407 861 l 433 835 l 471 835 l 497 861 l 497 899 l 471 925 l 433 925 l 422 936 z m 248 37 l 283 0 l 654 0 l 690 37 l 690 618 l 654 656 l 602 656 l 585 671 l 585 724 l 547 761 l 283 761 l 248 724 l 248 671 l 231 656 l 178 656 l 142 618 l 142 566 l 178 528 l 231 528 l 268 566 l 268 618 l 283 633 l 547 633 l 564 618 l 564 460 l 590 433 l 575 418 l 547 444 l 283 444 l 248 407 l 248 354 l 231 339 l 178 339 l 142 301 l 142 143 l 178 106 l 231 106 l 248 90 z m 547 127 l 283 127 l 268 143 l 268 301 l 283 317 l 547 317 l 575 343 l 590 328 l 564 301 l 564 143 l 590 117 l 575 102 z "},"á":{"ha":833,"x_min":0,"x_max":0,"o":"m 408 974 l 408 936 l 397 925 l 359 925 l 334 899 l 334 861 l 359 835 l 397 835 l 424 861 l 424 899 l 435 909 l 472 909 l 497 936 l 497 974 l 472 1000 l 435 1000 z m 248 37 l 283 0 l 654 0 l 690 37 l 690 618 l 654 656 l 602 656 l 585 671 l 585 724 l 547 761 l 283 761 l 248 724 l 248 671 l 231 656 l 178 656 l 142 618 l 142 566 l 178 528 l 231 528 l 268 566 l 268 618 l 283 633 l 547 633 l 564 618 l 564 460 l 590 433 l 575 418 l 547 444 l 283 444 l 248 407 l 248 354 l 231 339 l 178 339 l 142 301 l 142 143 l 178 106 l 231 106 l 248 90 z m 547 127 l 283 127 l 268 143 l 268 301 l 283 317 l 547 317 l 575 343 l 590 328 l 564 301 l 564 143 l 590 117 l 575 102 z "},"â":{"ha":833,"x_min":0,"x_max":0,"o":"m 248 37 l 283 0 l 654 0 l 690 37 l 690 618 l 654 656 l 602 656 l 585 671 l 585 724 l 549 761 l 283 761 l 248 724 l 248 671 l 231 656 l 178 656 l 142 618 l 142 566 l 178 528 l 231 528 l 268 566 l 268 618 l 283 633 l 549 633 l 564 618 l 564 460 l 590 433 l 575 418 l 549 444 l 283 444 l 248 407 l 248 354 l 231 339 l 178 339 l 142 301 l 142 143 l 178 106 l 231 106 l 248 90 z m 549 127 l 283 127 l 268 143 l 268 301 l 283 317 l 549 317 l 575 343 l 590 328 l 564 301 l 564 143 l 590 117 l 575 102 z m 323 925 l 297 899 l 297 861 l 323 835 l 359 835 l 386 861 l 386 899 l 397 909 l 435 909 l 446 899 l 446 861 l 472 835 l 509 835 l 534 861 l 534 899 l 509 925 l 472 925 l 461 936 l 461 974 l 435 1000 l 397 1000 l 371 974 l 371 936 l 359 925 z "},"ã":{"ha":833,"x_min":0,"x_max":0,"o":"m 297 974 l 297 936 l 286 925 l 249 925 l 222 899 l 222 861 l 249 835 l 286 835 l 313 861 l 313 899 l 323 909 l 435 909 l 446 899 l 446 861 l 472 835 l 509 835 l 534 861 l 534 899 l 546 909 l 583 909 l 610 936 l 610 974 l 583 1000 l 546 1000 l 519 974 l 519 936 l 509 925 l 472 925 l 461 936 l 461 974 l 435 1000 l 323 1000 z m 248 37 l 283 0 l 654 0 l 690 37 l 690 618 l 654 656 l 602 656 l 585 671 l 585 724 l 549 761 l 283 761 l 248 724 l 248 671 l 231 656 l 178 656 l 142 618 l 142 566 l 178 528 l 231 528 l 268 566 l 268 618 l 283 633 l 549 633 l 564 618 l 564 460 l 590 433 l 575 418 l 549 444 l 283 444 l 248 407 l 248 354 l 231 339 l 178 339 l 142 301 l 142 143 l 178 106 l 231 106 l 248 90 z m 549 127 l 283 127 l 268 143 l 268 301 l 283 317 l 549 317 l 575 343 l 590 328 l 564 301 l 564 143 l 590 117 l 575 102 z "},"ä":{"ha":833,"x_min":0,"x_max":0,"o":"m 446 974 l 446 861 l 472 835 l 509 835 l 534 861 l 534 974 l 509 1000 l 472 1000 z m 297 861 l 323 835 l 359 835 l 386 861 l 386 974 l 359 1000 l 323 1000 l 297 974 z m 248 37 l 283 0 l 654 0 l 690 37 l 690 618 l 654 656 l 602 656 l 585 671 l 585 724 l 547 761 l 283 761 l 248 724 l 248 671 l 231 656 l 178 656 l 142 618 l 142 566 l 178 528 l 231 528 l 268 566 l 268 618 l 283 633 l 547 633 l 564 618 l 564 460 l 590 433 l 575 418 l 547 444 l 283 444 l 248 407 l 248 354 l 231 339 l 178 339 l 142 301 l 142 143 l 178 106 l 231 106 l 248 90 z m 547 127 l 283 127 l 268 143 l 268 301 l 283 317 l 547 317 l 575 343 l 590 328 l 564 301 l 564 143 l 590 117 l 575 102 z "},"å":{"ha":833,"x_min":0,"x_max":0,"o":"m 281 848 l 296 833 l 318 833 l 323 827 l 323 806 l 339 789 l 361 789 l 368 783 l 368 761 l 285 761 l 248 724 l 248 671 l 231 656 l 178 656 l 142 618 l 142 566 l 178 528 l 231 528 l 268 566 l 268 618 l 285 633 l 549 633 l 564 618 l 564 460 l 590 433 l 575 418 l 549 444 l 285 444 l 248 407 l 248 354 l 231 339 l 178 339 l 142 301 l 142 143 l 178 106 l 231 106 l 248 90 l 248 37 l 285 0 l 654 0 l 690 37 l 690 618 l 654 656 l 602 656 l 585 671 l 585 724 l 549 761 l 464 761 l 464 783 l 471 789 l 493 789 l 509 806 l 509 827 l 515 833 l 536 833 l 551 848 l 551 914 l 536 929 l 515 929 l 509 936 l 509 958 l 493 974 l 471 974 l 464 981 l 464 1002 l 449 1017 l 383 1017 l 368 1002 l 368 981 l 361 974 l 339 974 l 323 958 l 323 936 l 318 929 l 296 929 l 281 914 z m 285 127 l 268 143 l 268 301 l 285 317 l 549 317 l 575 343 l 590 328 l 564 301 l 564 143 l 590 117 l 575 102 l 549 127 z m 339 921 l 361 921 l 376 936 l 376 958 l 383 965 l 449 965 l 456 958 l 456 936 l 471 921 l 493 921 l 498 914 l 498 848 l 493 842 l 471 842 l 456 827 l 456 806 l 449 799 l 383 799 l 376 806 l 376 827 l 361 842 l 339 842 l 334 848 l 334 914 z "},"æ":{"ha":833,"x_min":0,"x_max":0,"o":"m 585 354 l 585 407 l 602 422 l 654 422 l 692 460 l 692 618 l 654 656 l 602 656 l 585 671 l 585 724 l 549 761 l 285 761 l 248 724 l 248 671 l 232 656 l 179 656 l 142 618 l 142 566 l 179 528 l 232 528 l 268 566 l 268 618 l 285 633 l 338 633 l 364 660 l 379 644 l 353 618 l 353 460 l 379 433 l 364 418 l 338 444 l 285 444 l 248 407 l 248 354 l 232 339 l 179 339 l 142 301 l 142 143 l 179 106 l 232 106 l 248 90 l 248 37 l 285 0 l 549 0 l 585 37 l 585 90 l 602 106 l 654 106 l 692 143 l 692 196 l 654 233 l 602 233 l 564 196 l 564 143 l 549 127 l 496 127 l 469 102 l 453 117 l 479 143 l 479 301 l 453 328 l 469 343 l 496 317 l 549 317 z m 453 433 l 479 460 l 479 618 l 453 644 l 469 660 l 496 633 l 549 633 l 564 618 l 564 460 l 549 444 l 496 444 l 469 418 z m 364 102 l 338 127 l 285 127 l 268 143 l 268 301 l 285 317 l 338 317 l 364 343 l 379 328 l 353 301 l 353 143 l 379 117 z "},"ç":{"ha":833,"x_min":0,"x_max":0,"o":"m 585 37 l 585 90 l 602 106 l 654 106 l 690 143 l 690 196 l 654 233 l 602 233 l 564 196 l 564 143 l 549 127 l 285 127 l 268 143 l 268 618 l 285 633 l 549 633 l 564 618 l 564 566 l 602 528 l 654 528 l 690 566 l 690 618 l 654 656 l 602 656 l 585 671 l 585 724 l 549 761 l 285 761 l 248 724 l 248 671 l 231 656 l 178 656 l 142 618 l 142 143 l 178 106 l 231 106 l 248 90 l 248 37 l 285 0 l 335 0 l 335 -37 l 359 -64 l 397 -64 l 408 -74 l 408 -111 l 435 -138 l 472 -138 l 484 -149 l 484 -186 l 472 -197 l 359 -197 l 349 -186 l 349 -149 l 323 -122 l 286 -122 l 260 -149 l 260 -186 l 286 -212 l 323 -212 l 335 -224 l 335 -260 l 359 -286 l 472 -286 l 498 -260 l 498 -224 l 510 -212 l 546 -212 l 572 -186 l 572 -149 l 546 -122 l 510 -122 l 498 -111 l 498 -74 l 472 -49 l 435 -49 l 424 -37 l 424 0 l 549 0 z "},"è":{"ha":833,"x_min":0,"x_max":0,"o":"m 585 37 l 585 90 l 602 107 l 654 107 l 690 143 l 690 196 l 654 233 l 602 233 l 564 196 l 564 143 l 549 127 l 283 127 l 268 143 l 268 301 l 241 328 l 257 345 l 283 318 l 549 318 l 585 354 l 585 407 l 602 424 l 654 424 l 690 460 l 690 618 l 654 656 l 602 656 l 585 672 l 585 725 l 549 761 l 283 761 l 248 725 l 248 672 l 231 656 l 178 656 l 142 618 l 142 143 l 178 107 l 231 107 l 248 90 l 248 37 l 283 0 l 549 0 z m 283 444 l 257 418 l 241 433 l 268 460 l 268 618 l 283 635 l 549 635 l 564 618 l 564 460 l 549 444 z m 422 974 l 396 1000 l 358 1000 l 334 974 l 334 936 l 358 909 l 396 909 l 407 899 l 407 861 l 433 835 l 471 835 l 497 861 l 497 899 l 471 925 l 433 925 l 422 936 z "},"é":{"ha":833,"x_min":0,"x_max":0,"o":"m 585 37 l 585 90 l 602 107 l 654 107 l 690 143 l 690 196 l 654 233 l 602 233 l 564 196 l 564 143 l 549 127 l 283 127 l 268 143 l 268 301 l 241 328 l 257 345 l 283 318 l 549 318 l 585 354 l 585 407 l 602 424 l 654 424 l 690 460 l 690 618 l 654 656 l 602 656 l 585 672 l 585 725 l 549 761 l 283 761 l 248 725 l 248 672 l 231 656 l 178 656 l 142 618 l 142 143 l 178 107 l 231 107 l 248 90 l 248 37 l 283 0 l 549 0 z m 283 444 l 257 418 l 241 433 l 268 460 l 268 618 l 283 635 l 549 635 l 564 618 l 564 460 l 549 444 z m 408 936 l 397 925 l 359 925 l 334 899 l 334 861 l 359 835 l 397 835 l 424 861 l 424 899 l 435 909 l 472 909 l 497 936 l 497 974 l 472 1000 l 435 1000 l 408 974 z "},"ê":{"ha":833,"x_min":0,"x_max":0,"o":"m 585 37 l 585 90 l 602 107 l 654 107 l 690 143 l 690 196 l 654 233 l 602 233 l 564 196 l 564 143 l 549 127 l 283 127 l 268 143 l 268 301 l 241 328 l 257 345 l 283 318 l 549 318 l 585 354 l 585 407 l 602 424 l 654 424 l 690 460 l 690 618 l 654 656 l 602 656 l 585 672 l 585 725 l 549 761 l 283 761 l 248 725 l 248 672 l 231 656 l 178 656 l 142 618 l 142 143 l 178 107 l 231 107 l 248 90 l 248 37 l 283 0 l 549 0 z m 283 444 l 257 418 l 241 433 l 268 460 l 268 618 l 283 635 l 549 635 l 564 618 l 564 460 l 549 444 z m 297 899 l 297 861 l 323 835 l 359 835 l 386 861 l 386 899 l 397 909 l 435 909 l 446 899 l 446 861 l 472 835 l 509 835 l 534 861 l 534 899 l 509 925 l 472 925 l 461 936 l 461 974 l 435 1000 l 397 1000 l 371 974 l 371 936 l 359 925 l 323 925 z "},"ë":{"ha":833,"x_min":0,"x_max":0,"o":"m 585 37 l 585 90 l 602 107 l 654 107 l 690 143 l 690 196 l 654 233 l 602 233 l 564 196 l 564 143 l 549 127 l 283 127 l 268 143 l 268 301 l 241 328 l 257 345 l 283 318 l 549 318 l 585 354 l 585 407 l 602 424 l 654 424 l 690 460 l 690 618 l 654 656 l 602 656 l 585 672 l 585 725 l 549 761 l 283 761 l 248 725 l 248 672 l 231 656 l 178 656 l 142 618 l 142 143 l 178 107 l 231 107 l 248 90 l 248 37 l 283 0 l 549 0 z m 283 444 l 257 418 l 241 433 l 268 460 l 268 618 l 283 635 l 549 635 l 564 618 l 564 460 l 549 444 z m 446 974 l 446 861 l 472 835 l 509 835 l 534 861 l 534 974 l 509 1000 l 472 1000 z m 297 861 l 323 835 l 359 835 l 386 861 l 386 974 l 359 1000 l 323 1000 l 297 974 z "},"ì":{"ha":833,"x_min":0,"x_max":0,"o":"m 422 974 l 396 1000 l 358 1000 l 334 974 l 334 936 l 358 909 l 396 909 l 407 899 l 407 861 l 433 835 l 471 835 l 497 861 l 497 899 l 471 925 l 433 925 l 422 936 z m 469 660 l 496 633 l 549 633 l 585 671 l 585 724 l 549 761 l 285 761 l 248 724 l 248 671 l 285 633 l 336 633 l 364 660 l 379 644 l 353 618 l 353 143 l 379 117 l 364 102 l 336 127 l 285 127 l 248 90 l 248 37 l 285 0 l 549 0 l 585 37 l 585 90 l 549 127 l 496 127 l 469 102 l 453 117 l 479 143 l 479 618 l 453 644 z "},"í":{"ha":833,"x_min":0,"x_max":0,"o":"m 408 936 l 397 925 l 359 925 l 334 899 l 334 861 l 359 835 l 397 835 l 424 861 l 424 899 l 435 909 l 472 909 l 497 936 l 497 974 l 472 1000 l 435 1000 l 408 974 z m 469 660 l 496 633 l 549 633 l 585 671 l 585 724 l 549 761 l 285 761 l 248 724 l 248 671 l 285 633 l 336 633 l 364 660 l 379 644 l 353 618 l 353 143 l 379 117 l 364 102 l 336 127 l 285 127 l 248 90 l 248 37 l 285 0 l 549 0 l 585 37 l 585 90 l 549 127 l 496 127 l 469 102 l 453 117 l 479 143 l 479 618 l 453 644 z "},"î":{"ha":833,"x_min":0,"x_max":0,"o":"m 297 899 l 297 861 l 323 835 l 359 835 l 386 861 l 386 899 l 397 909 l 435 909 l 446 899 l 446 861 l 472 835 l 509 835 l 534 861 l 534 899 l 509 925 l 472 925 l 461 936 l 461 974 l 435 1000 l 397 1000 l 371 974 l 371 936 l 359 925 l 323 925 z m 469 660 l 496 633 l 549 633 l 585 671 l 585 724 l 549 761 l 285 761 l 248 724 l 248 671 l 285 633 l 336 633 l 364 660 l 379 644 l 353 618 l 353 143 l 379 117 l 364 102 l 336 127 l 285 127 l 248 90 l 248 37 l 285 0 l 549 0 l 585 37 l 585 90 l 549 127 l 496 127 l 469 102 l 453 117 l 479 143 l 479 618 l 453 644 z "},"ï":{"ha":833,"x_min":0,"x_max":0,"o":"m 469 660 l 496 633 l 549 633 l 585 671 l 585 724 l 549 761 l 285 761 l 248 724 l 248 671 l 285 633 l 336 633 l 364 660 l 379 644 l 353 618 l 353 143 l 379 117 l 364 102 l 336 127 l 285 127 l 248 90 l 248 37 l 285 0 l 549 0 l 585 37 l 585 90 l 549 127 l 496 127 l 469 102 l 453 117 l 479 143 l 479 618 l 453 644 z m 446 974 l 446 861 l 472 835 l 509 835 l 534 861 l 534 974 l 509 1000 l 472 1000 z m 297 861 l 323 835 l 359 835 l 386 861 l 386 974 l 359 1000 l 323 1000 l 297 974 z "},"ð":{"ha":833,"x_min":0,"x_max":0,"o":"m 469 629 l 441 656 l 283 656 l 248 618 l 248 566 l 231 550 l 178 550 l 142 513 l 142 143 l 178 106 l 231 106 l 248 90 l 248 37 l 283 0 l 654 0 l 690 37 l 690 618 l 654 656 l 602 656 l 585 671 l 585 724 l 549 761 l 496 761 l 479 777 l 479 829 l 496 844 l 549 844 l 585 882 l 585 935 l 549 972 l 496 972 l 458 935 l 458 882 l 441 867 l 390 867 l 374 882 l 374 935 l 336 972 l 283 972 l 248 935 l 248 882 l 283 844 l 336 844 l 353 829 l 353 777 l 390 739 l 441 739 l 458 724 l 458 671 l 485 644 z m 268 513 l 283 528 l 549 528 l 575 554 l 590 539 l 564 513 l 564 143 l 590 117 l 575 102 l 549 127 l 283 127 l 268 143 z "},"ñ":{"ha":833,"x_min":0,"x_max":0,"o":"m 585 724 l 547 761 l 178 761 l 142 724 l 142 37 l 178 0 l 231 0 l 268 37 l 268 618 l 241 644 l 257 660 l 283 633 l 547 633 l 564 618 l 564 37 l 602 0 l 654 0 l 690 37 l 690 618 l 654 656 l 602 656 l 585 671 z m 297 974 l 297 936 l 286 925 l 249 925 l 222 899 l 222 861 l 249 835 l 286 835 l 313 861 l 313 899 l 323 909 l 435 909 l 446 899 l 446 861 l 472 835 l 509 835 l 534 861 l 534 899 l 546 909 l 583 909 l 610 936 l 610 974 l 583 1000 l 546 1000 l 519 974 l 519 936 l 509 925 l 472 925 l 461 936 l 461 974 l 435 1000 l 323 1000 z "},"ò":{"ha":833,"x_min":0,"x_max":0,"o":"m 248 37 l 283 0 l 547 0 l 585 37 l 585 90 l 602 106 l 654 106 l 690 143 l 690 618 l 654 656 l 602 656 l 585 671 l 585 724 l 547 761 l 283 761 l 248 724 l 248 671 l 231 656 l 178 656 l 142 618 l 142 143 l 178 106 l 231 106 l 248 90 z m 547 127 l 283 127 l 268 143 l 268 618 l 283 633 l 547 633 l 564 618 l 564 143 z m 422 974 l 396 1000 l 358 1000 l 334 974 l 334 936 l 358 909 l 396 909 l 407 899 l 407 861 l 433 835 l 471 835 l 497 861 l 497 899 l 471 925 l 433 925 l 422 936 z "},"ó":{"ha":833,"x_min":0,"x_max":0,"o":"m 248 37 l 283 0 l 547 0 l 585 37 l 585 90 l 602 106 l 654 106 l 690 143 l 690 618 l 654 656 l 602 656 l 585 671 l 585 724 l 547 761 l 283 761 l 248 724 l 248 671 l 231 656 l 178 656 l 142 618 l 142 143 l 178 106 l 231 106 l 248 90 z m 547 127 l 283 127 l 268 143 l 268 618 l 283 633 l 547 633 l 564 618 l 564 143 z m 408 936 l 397 925 l 359 925 l 334 899 l 334 861 l 359 835 l 397 835 l 424 861 l 424 899 l 435 909 l 472 909 l 497 936 l 497 974 l 472 1000 l 435 1000 l 408 974 z "},"ô":{"ha":833,"x_min":0,"x_max":0,"o":"m 283 0 l 547 0 l 585 37 l 585 90 l 602 106 l 654 106 l 690 143 l 690 618 l 654 656 l 602 656 l 585 671 l 585 724 l 547 761 l 283 761 l 248 724 l 248 671 l 231 656 l 178 656 l 142 618 l 142 143 l 178 106 l 231 106 l 248 90 l 248 37 z m 283 127 l 268 143 l 268 618 l 283 633 l 547 633 l 564 618 l 564 143 l 547 127 z m 297 899 l 297 861 l 323 835 l 359 835 l 386 861 l 386 899 l 397 909 l 435 909 l 446 899 l 446 861 l 472 835 l 509 835 l 534 861 l 534 899 l 509 925 l 472 925 l 461 936 l 461 974 l 435 1000 l 397 1000 l 371 974 l 371 936 l 359 925 l 323 925 z "},"õ":{"ha":833,"x_min":0,"x_max":0,"o":"m 248 37 l 283 0 l 547 0 l 585 37 l 585 90 l 602 106 l 654 106 l 690 143 l 690 618 l 654 656 l 602 656 l 585 671 l 585 724 l 547 761 l 283 761 l 248 724 l 248 671 l 231 656 l 178 656 l 142 618 l 142 143 l 178 106 l 231 106 l 248 90 z m 547 127 l 283 127 l 268 143 l 268 618 l 283 633 l 547 633 l 564 618 l 564 143 z m 297 974 l 297 936 l 286 925 l 249 925 l 222 899 l 222 861 l 249 835 l 286 835 l 313 861 l 313 899 l 323 909 l 435 909 l 446 899 l 446 861 l 472 835 l 509 835 l 534 861 l 534 899 l 546 909 l 583 909 l 610 936 l 610 974 l 583 1000 l 546 1000 l 519 974 l 519 936 l 509 925 l 472 925 l 461 936 l 461 974 l 435 1000 l 323 1000 z "},"ö":{"ha":833,"x_min":0,"x_max":0,"o":"m 248 37 l 283 0 l 547 0 l 585 37 l 585 90 l 602 106 l 654 106 l 690 143 l 690 618 l 654 656 l 602 656 l 585 671 l 585 724 l 547 761 l 283 761 l 248 724 l 248 671 l 231 656 l 178 656 l 142 618 l 142 143 l 178 106 l 231 106 l 248 90 z m 547 127 l 283 127 l 268 143 l 268 618 l 283 633 l 547 633 l 564 618 l 564 143 z m 446 974 l 446 861 l 472 835 l 509 835 l 534 861 l 534 974 l 509 1000 l 472 1000 z m 297 861 l 323 835 l 359 835 l 386 861 l 386 974 l 359 1000 l 323 1000 l 297 974 z "},"÷":{"ha":833,"x_min":0,"x_max":0,"o":"m 347 736 l 347 671 l 383 633 l 449 633 l 486 671 l 486 736 l 449 772 l 383 772 z m 654 422 l 690 460 l 690 513 l 654 550 l 178 550 l 142 513 l 142 460 l 178 422 z m 347 301 l 347 237 l 383 200 l 449 200 l 486 237 l 486 301 l 449 339 l 383 339 z "},"ø":{"ha":833,"x_min":0,"x_max":0,"o":"m 283 0 l 547 0 l 585 37 l 585 90 l 602 106 l 654 106 l 690 143 l 690 618 l 707 633 l 760 633 l 796 671 l 796 724 l 760 761 l 707 761 l 669 724 l 669 671 l 654 656 l 602 656 l 585 671 l 585 724 l 547 761 l 283 761 l 248 724 l 248 671 l 231 656 l 178 656 l 142 618 l 142 143 l 125 127 l 72 127 l 36 90 l 36 37 l 72 0 l 125 0 l 163 37 l 163 90 l 178 106 l 231 106 l 248 90 l 248 37 z m 241 328 l 268 354 l 268 618 l 283 633 l 547 633 l 564 618 l 564 566 l 590 539 l 575 524 l 547 550 l 496 550 l 257 313 z m 257 237 l 283 211 l 336 211 l 575 449 l 590 433 l 564 407 l 564 143 l 547 127 l 283 127 l 268 143 l 268 196 l 241 222 z "},"ù":{"ha":833,"x_min":0,"x_max":0,"o":"m 248 37 l 283 0 l 654 0 l 690 37 l 690 724 l 654 761 l 602 761 l 564 724 l 564 143 l 590 117 l 575 102 l 549 127 l 283 127 l 268 143 l 268 724 l 231 761 l 178 761 l 142 724 l 142 143 l 178 106 l 231 106 l 248 90 z m 422 974 l 396 1000 l 358 1000 l 334 974 l 334 936 l 358 909 l 396 909 l 407 899 l 407 861 l 433 835 l 471 835 l 497 861 l 497 899 l 471 925 l 433 925 l 422 936 z "},"ú":{"ha":833,"x_min":0,"x_max":0,"o":"m 248 37 l 283 0 l 654 0 l 690 37 l 690 724 l 654 761 l 602 761 l 564 724 l 564 143 l 590 117 l 575 102 l 549 127 l 283 127 l 268 143 l 268 724 l 231 761 l 178 761 l 142 724 l 142 143 l 178 106 l 231 106 l 248 90 z m 408 936 l 397 925 l 359 925 l 334 899 l 334 861 l 359 835 l 397 835 l 424 861 l 424 899 l 435 909 l 472 909 l 497 936 l 497 974 l 472 1000 l 435 1000 l 408 974 z "},"û":{"ha":833,"x_min":0,"x_max":0,"o":"m 248 37 l 283 0 l 654 0 l 690 37 l 690 724 l 654 761 l 602 761 l 564 724 l 564 143 l 590 117 l 575 102 l 549 127 l 283 127 l 268 143 l 268 724 l 231 761 l 178 761 l 142 724 l 142 143 l 178 106 l 231 106 l 248 90 z m 297 899 l 297 861 l 323 835 l 359 835 l 386 861 l 386 899 l 397 909 l 435 909 l 446 899 l 446 861 l 472 835 l 509 835 l 534 861 l 534 899 l 509 925 l 472 925 l 461 936 l 461 974 l 435 1000 l 397 1000 l 371 974 l 371 936 l 359 925 l 323 925 z "},"ü":{"ha":833,"x_min":0,"x_max":0,"o":"m 248 37 l 283 0 l 654 0 l 690 37 l 690 724 l 654 761 l 602 761 l 564 724 l 564 143 l 590 117 l 575 102 l 549 127 l 283 127 l 268 143 l 268 724 l 231 761 l 178 761 l 142 724 l 142 143 l 178 106 l 231 106 l 248 90 z m 446 974 l 446 861 l 472 835 l 509 835 l 534 861 l 534 974 l 509 1000 l 472 1000 z m 297 861 l 323 835 l 359 835 l 386 861 l 386 974 l 359 1000 l 323 1000 l 297 974 z "},"ý":{"ha":833,"x_min":0,"x_max":0,"o":"m 564 -16 l 564 -68 l 549 -83 l 285 -83 l 248 -121 l 248 -174 l 285 -211 l 549 -211 l 585 -174 l 585 -121 l 602 -106 l 654 -106 l 690 -68 l 690 724 l 654 761 l 602 761 l 564 724 l 564 143 l 590 117 l 575 102 l 549 127 l 285 127 l 268 143 l 268 724 l 231 761 l 178 761 l 142 724 l 142 143 l 178 106 l 231 106 l 248 90 l 248 37 l 285 0 l 549 0 l 575 26 l 590 11 z m 408 936 l 397 925 l 359 925 l 334 899 l 334 861 l 359 835 l 397 835 l 424 861 l 424 899 l 435 909 l 472 909 l 497 936 l 497 974 l 472 1000 l 435 1000 l 408 974 z "},"þ":{"ha":833,"x_min":0,"x_max":0,"o":"m 654 656 l 602 656 l 585 671 l 585 724 l 549 761 l 285 761 l 258 734 l 241 750 l 268 777 l 268 935 l 231 972 l 179 972 l 142 935 l 142 37 l 179 0 l 231 0 l 268 37 l 268 196 l 241 222 l 258 237 l 285 211 l 549 211 l 585 249 l 585 301 l 602 317 l 654 317 l 692 354 l 692 618 z m 241 328 l 268 354 l 268 618 l 241 644 l 258 660 l 285 633 l 549 633 l 564 618 l 564 354 l 549 339 l 285 339 l 258 313 z "},"ÿ":{"ha":833,"x_min":0,"x_max":0,"o":"m 564 -16 l 564 -68 l 549 -83 l 285 -83 l 248 -121 l 248 -174 l 285 -211 l 549 -211 l 585 -174 l 585 -121 l 602 -106 l 654 -106 l 690 -68 l 690 724 l 654 761 l 602 761 l 564 724 l 564 143 l 590 117 l 575 102 l 549 127 l 285 127 l 268 143 l 268 724 l 231 761 l 178 761 l 142 724 l 142 143 l 178 106 l 231 106 l 248 90 l 248 37 l 285 0 l 549 0 l 575 26 l 590 11 z m 446 974 l 446 861 l 472 835 l 509 835 l 534 861 l 534 974 l 509 1000 l 472 1000 z m 297 861 l 323 835 l 359 835 l 386 861 l 386 974 l 359 1000 l 323 1000 l 297 974 z "},"Ā":{"ha":833,"x_min":0,"x_max":0,"o":"m 585 882 l 585 935 l 549 972 l 283 972 l 248 935 l 248 882 l 231 867 l 178 867 l 142 829 l 142 37 l 178 0 l 231 0 l 268 37 l 268 407 l 241 433 l 257 449 l 283 422 l 549 422 l 575 449 l 590 433 l 564 407 l 564 37 l 602 0 l 654 0 l 690 37 l 690 829 l 654 867 l 602 867 z m 564 829 l 564 566 l 590 539 l 575 524 l 549 550 l 283 550 l 257 524 l 241 539 l 268 566 l 268 829 l 283 844 l 549 844 z m 583 1072 l 610 1099 l 610 1136 l 583 1162 l 249 1162 l 222 1136 l 222 1099 l 249 1072 z "},"ā":{"ha":833,"x_min":0,"x_max":0,"o":"m 248 37 l 283 0 l 654 0 l 690 37 l 690 618 l 654 656 l 602 656 l 585 671 l 585 724 l 549 761 l 283 761 l 248 724 l 248 671 l 231 656 l 178 656 l 142 618 l 142 566 l 178 528 l 231 528 l 268 566 l 268 618 l 283 633 l 549 633 l 564 618 l 564 460 l 590 433 l 575 418 l 549 444 l 283 444 l 248 407 l 248 354 l 231 339 l 178 339 l 142 301 l 142 143 l 178 106 l 231 106 l 248 90 z m 549 127 l 283 127 l 268 143 l 268 301 l 283 317 l 549 317 l 575 343 l 590 328 l 564 301 l 564 143 l 590 117 l 575 102 z m 583 860 l 610 886 l 610 924 l 583 950 l 249 950 l 222 924 l 222 886 l 249 860 z "},"Ă":{"ha":833,"x_min":0,"x_max":0,"o":"m 586 882 l 586 935 l 549 972 l 285 972 l 248 935 l 248 882 l 232 867 l 179 867 l 142 829 l 142 36 l 179 0 l 232 0 l 269 36 l 269 406 l 243 433 l 258 449 l 285 422 l 549 422 l 575 449 l 591 433 l 566 406 l 566 36 l 602 0 l 654 0 l 692 36 l 692 829 l 654 867 l 602 867 z m 566 829 l 566 566 l 591 539 l 575 522 l 549 549 l 285 549 l 258 522 l 243 539 l 269 566 l 269 829 l 285 844 l 549 844 z m 323 1047 l 509 1047 l 534 1074 l 534 1111 l 546 1122 l 583 1122 l 610 1147 l 610 1185 l 583 1211 l 546 1211 l 519 1185 l 519 1147 l 509 1137 l 323 1137 l 313 1147 l 313 1185 l 286 1211 l 249 1211 l 222 1185 l 222 1147 l 249 1122 l 286 1122 l 297 1111 l 297 1074 z "},"ă":{"ha":833,"x_min":0,"x_max":0,"o":"m 285 0 l 654 0 l 692 37 l 692 618 l 654 656 l 603 656 l 586 671 l 586 724 l 549 761 l 285 761 l 249 724 l 249 671 l 232 656 l 179 656 l 142 618 l 142 566 l 179 528 l 232 528 l 269 566 l 269 618 l 285 633 l 549 633 l 566 618 l 566 460 l 591 433 l 575 418 l 549 444 l 285 444 l 249 407 l 249 354 l 232 339 l 179 339 l 142 301 l 142 143 l 179 106 l 232 106 l 249 90 l 249 37 z m 285 127 l 269 143 l 269 301 l 285 317 l 549 317 l 575 343 l 591 328 l 566 301 l 566 143 l 591 117 l 575 102 l 549 127 z m 323 835 l 509 835 l 534 861 l 534 899 l 546 909 l 583 909 l 610 935 l 610 972 l 583 999 l 546 999 l 519 972 l 519 935 l 509 925 l 323 925 l 313 935 l 313 972 l 286 999 l 249 999 l 222 972 l 222 935 l 249 909 l 286 909 l 297 899 l 297 861 z "},"Ą":{"ha":833,"x_min":0,"x_max":0,"o":"m 590 -286 l 701 -286 l 728 -260 l 728 -224 l 701 -197 l 590 -197 l 579 -186 l 579 -149 l 590 -138 l 627 -138 l 653 -111 l 654 0 l 690 37 l 690 829 l 654 867 l 602 867 l 585 882 l 585 935 l 549 972 l 283 972 l 248 935 l 248 882 l 231 867 l 178 867 l 142 829 l 142 37 l 178 0 l 231 0 l 268 37 l 268 407 l 241 433 l 257 449 l 283 422 l 549 422 l 575 449 l 590 433 l 564 407 l 564 -111 l 553 -122 l 515 -122 l 489 -149 l 489 -186 l 515 -212 l 553 -212 l 564 -224 l 564 -260 z m 564 829 l 564 566 l 590 539 l 575 524 l 549 550 l 283 550 l 257 524 l 241 539 l 268 566 l 268 829 l 283 844 l 549 844 z "},"ą":{"ha":833,"x_min":0,"x_max":0,"o":"m 283 0 l 564 0 l 564 -111 l 553 -122 l 515 -122 l 489 -149 l 489 -186 l 515 -212 l 553 -212 l 564 -224 l 564 -260 l 590 -286 l 701 -286 l 728 -260 l 728 -224 l 701 -197 l 590 -197 l 579 -186 l 579 -149 l 590 -138 l 627 -138 l 653 -111 l 654 0 l 690 37 l 690 618 l 654 656 l 602 656 l 585 671 l 585 724 l 549 761 l 283 761 l 248 724 l 248 671 l 231 656 l 178 656 l 142 618 l 142 566 l 178 528 l 231 528 l 268 566 l 268 618 l 283 633 l 549 633 l 564 618 l 564 460 l 590 433 l 575 418 l 549 444 l 283 444 l 248 407 l 248 354 l 231 339 l 178 339 l 142 301 l 142 143 l 178 106 l 231 106 l 248 90 l 248 37 z m 549 127 l 283 127 l 268 143 l 268 301 l 283 317 l 549 317 l 575 343 l 590 328 l 564 301 l 564 143 l 585 122 l 568 107 z "},"Ć":{"ha":833,"x_min":0,"x_max":0,"o":"m 566 829 l 566 777 l 602 739 l 654 739 l 692 777 l 692 829 l 654 867 l 602 867 l 586 882 l 586 935 l 549 972 l 285 972 l 248 935 l 248 882 l 232 867 l 179 867 l 142 829 l 142 142 l 179 106 l 232 106 l 248 89 l 248 36 l 285 0 l 549 0 l 586 36 l 586 89 l 602 106 l 654 106 l 692 142 l 692 195 l 654 232 l 602 232 l 566 195 l 566 142 l 549 126 l 285 126 l 269 142 l 269 829 l 285 844 l 549 844 z m 408 1149 l 397 1137 l 359 1137 l 335 1111 l 335 1074 l 359 1047 l 397 1047 l 424 1074 l 424 1111 l 435 1122 l 472 1122 l 498 1149 l 498 1185 l 472 1211 l 435 1211 l 408 1185 z "},"ć":{"ha":833,"x_min":0,"x_max":0,"o":"m 585 37 l 585 90 l 602 107 l 654 107 l 690 143 l 690 196 l 654 233 l 602 233 l 564 196 l 564 143 l 549 127 l 283 127 l 268 143 l 268 618 l 283 635 l 549 635 l 564 618 l 564 567 l 602 529 l 654 529 l 690 567 l 690 618 l 654 656 l 602 656 l 585 672 l 585 725 l 549 761 l 283 761 l 248 725 l 248 672 l 231 656 l 178 656 l 142 618 l 142 143 l 178 107 l 231 107 l 248 90 l 248 37 l 283 0 l 549 0 z m 408 936 l 397 925 l 359 925 l 334 899 l 334 861 l 359 835 l 397 835 l 424 861 l 424 899 l 435 909 l 472 909 l 497 936 l 497 974 l 472 1000 l 435 1000 l 408 974 z "},"Ĉ":{"ha":833,"x_min":0,"x_max":0,"o":"m 297 1074 l 323 1047 l 359 1047 l 386 1074 l 386 1109 l 397 1121 l 435 1121 l 446 1109 l 446 1074 l 472 1047 l 509 1047 l 534 1074 l 534 1109 l 509 1136 l 472 1136 l 461 1147 l 461 1185 l 461 1046 l 424 1046 l 412 1035 l 376 1035 l 297 1109 z m 618 728 l 618 675 l 654 637 l 707 637 l 745 675 l 745 728 l 707 765 l 654 765 l 639 781 l 639 833 l 602 871 l 338 871 l 300 833 l 300 781 l 285 765 l 232 765 l 195 728 l 195 40 l 232 4 l 285 4 l 300 -12 l 300 -65 l 338 -102 l 602 -102 l 639 -65 l 639 -12 l 654 4 l 707 4 l 745 40 l 745 93 l 707 131 l 654 131 l 618 93 l 618 40 l 602 25 l 338 25 l 322 40 l 322 728 l 338 743 l 602 743 z "},"ĉ":{"ha":833,"x_min":0,"x_max":0,"o":"m 585 37 l 585 90 l 602 107 l 654 107 l 690 143 l 690 196 l 654 233 l 602 233 l 564 196 l 564 143 l 549 127 l 283 127 l 268 143 l 268 618 l 283 635 l 549 635 l 564 618 l 564 567 l 602 529 l 654 529 l 690 567 l 690 618 l 654 656 l 602 656 l 585 672 l 585 725 l 549 761 l 283 761 l 248 725 l 248 672 l 231 656 l 178 656 l 142 618 l 142 143 l 178 107 l 231 107 l 248 90 l 248 37 l 283 0 l 549 0 z m 297 899 l 297 861 l 323 835 l 359 835 l 386 861 l 386 899 l 397 909 l 435 909 l 446 899 l 446 861 l 472 835 l 509 835 l 534 861 l 534 899 l 509 925 l 472 925 l 461 936 l 461 974 l 435 1000 l 397 1000 l 371 974 l 371 936 l 359 925 l 323 925 z "},"Ċ":{"ha":833,"x_min":0,"x_max":0,"o":"m 566 829 l 566 777 l 602 739 l 654 739 l 692 777 l 692 829 l 654 867 l 602 867 l 586 882 l 586 935 l 549 972 l 285 972 l 248 935 l 248 882 l 232 867 l 179 867 l 142 829 l 142 142 l 179 106 l 232 106 l 248 89 l 248 36 l 285 0 l 549 0 l 586 36 l 586 89 l 602 106 l 654 106 l 692 142 l 692 195 l 654 232 l 602 232 l 566 195 l 566 142 l 549 126 l 285 126 l 269 142 l 269 829 l 285 844 l 549 844 z m 346 1174 l 346 1108 l 383 1072 l 449 1072 l 485 1108 l 485 1174 l 449 1211 l 383 1211 z "},"ċ":{"ha":833,"x_min":0,"x_max":0,"o":"m 585 37 l 585 90 l 602 107 l 654 107 l 690 143 l 690 196 l 654 233 l 602 233 l 564 196 l 564 143 l 549 127 l 283 127 l 268 143 l 268 618 l 283 635 l 549 635 l 564 618 l 564 567 l 602 529 l 654 529 l 690 567 l 690 618 l 654 656 l 602 656 l 585 672 l 585 725 l 549 761 l 283 761 l 248 725 l 248 672 l 231 656 l 178 656 l 142 618 l 142 143 l 178 107 l 231 107 l 248 90 l 248 37 l 283 0 l 549 0 z m 346 962 l 346 897 l 383 861 l 449 861 l 485 897 l 485 962 l 449 1000 l 383 1000 z "},"Č":{"ha":833,"x_min":0,"x_max":0,"o":"m 566 829 l 566 777 l 602 739 l 654 739 l 692 777 l 692 829 l 654 867 l 602 867 l 586 882 l 586 935 l 549 972 l 285 972 l 248 935 l 248 882 l 232 867 l 179 867 l 142 829 l 142 142 l 179 106 l 232 106 l 248 89 l 248 36 l 285 0 l 549 0 l 586 36 l 586 89 l 602 106 l 654 106 l 692 142 l 692 195 l 654 232 l 602 232 l 566 195 l 566 142 l 549 126 l 285 126 l 269 142 l 269 829 l 285 844 l 549 844 z m 323 1122 l 359 1122 l 371 1111 l 371 1074 l 397 1047 l 435 1047 l 461 1074 l 461 1111 l 472 1122 l 509 1122 l 534 1149 l 534 1185 l 509 1211 l 472 1211 l 446 1185 l 446 1149 l 435 1137 l 397 1137 l 386 1149 l 386 1185 l 359 1211 l 323 1211 l 297 1185 l 297 1149 z "},"č":{"ha":833,"x_min":0,"x_max":0,"o":"m 585 37 l 585 90 l 602 107 l 654 107 l 690 143 l 690 196 l 654 233 l 602 233 l 564 196 l 564 143 l 549 127 l 283 127 l 268 143 l 268 618 l 283 635 l 549 635 l 564 618 l 564 567 l 602 529 l 654 529 l 690 567 l 690 618 l 654 656 l 602 656 l 585 672 l 585 725 l 549 761 l 283 761 l 248 725 l 248 672 l 231 656 l 178 656 l 142 618 l 142 143 l 178 107 l 231 107 l 248 90 l 248 37 l 283 0 l 549 0 z m 323 909 l 359 909 l 371 899 l 371 861 l 397 835 l 435 835 l 461 861 l 461 899 l 472 909 l 509 909 l 534 936 l 534 974 l 509 1000 l 472 1000 l 446 974 l 446 936 l 435 925 l 397 925 l 386 936 l 386 974 l 359 1000 l 323 1000 l 297 974 l 297 936 z "},"Ď":{"ha":833,"x_min":0,"x_max":0,"o":"m 323 1122 l 359 1122 l 371 1111 l 371 1074 l 397 1047 l 435 1047 l 461 1074 l 461 1111 l 472 1122 l 509 1122 l 534 1149 l 534 1185 l 509 1211 l 472 1211 l 446 1185 l 446 1149 l 435 1137 l 397 1137 l 386 1149 l 386 1185 l 359 1211 l 323 1211 l 297 1185 l 297 1149 z m 602 106 l 654 106 l 692 142 l 692 829 l 654 867 l 602 867 l 586 882 l 586 935 l 549 972 l 179 972 l 142 935 l 142 36 l 179 0 l 549 0 l 586 36 l 586 89 z m 566 829 l 566 142 l 549 126 l 285 126 l 258 100 l 243 115 l 269 142 l 269 829 l 243 856 l 258 871 l 285 844 l 549 844 z "},"ď":{"ha":833,"x_min":0,"x_max":0,"o":"m 229 0 l 600 0 l 636 37 l 636 936 l 600 972 l 547 972 l 510 936 l 510 778 l 536 751 l 521 734 l 494 761 l 229 761 l 193 725 l 193 672 l 176 656 l 123 656 l 87 618 l 87 143 l 123 107 l 176 107 l 193 90 l 193 37 z m 229 127 l 214 143 l 214 618 l 229 635 l 494 635 l 521 661 l 536 646 l 510 618 l 510 143 l 536 117 l 521 102 l 494 127 z m 814 901 l 825 890 l 807 872 l 807 835 l 796 823 l 758 823 l 732 798 l 732 761 l 758 734 l 796 734 l 822 761 l 822 798 l 833 808 l 871 808 l 897 835 l 897 872 l 878 890 l 897 909 l 897 946 l 871 972 l 833 972 l 814 954 l 796 972 l 758 972 l 732 946 l 732 909 l 758 884 l 796 884 z "},"Đ":{"ha":833,"x_min":0,"x_max":0,"o":"m 178 972 l 142 935 l 142 566 l 168 539 l 151 524 l 125 550 l 72 550 l 36 513 l 36 460 l 72 422 l 125 422 l 151 449 l 168 433 l 142 407 l 142 37 l 178 0 l 549 0 l 585 37 l 585 90 l 602 106 l 654 106 l 690 143 l 690 829 l 654 867 l 602 867 l 585 882 l 585 935 l 549 972 z m 564 143 l 549 127 l 285 127 l 257 102 l 241 117 l 268 143 l 268 407 l 241 433 l 257 449 l 285 422 l 336 422 l 374 460 l 374 513 l 336 550 l 285 550 l 257 524 l 241 539 l 268 566 l 268 829 l 241 856 l 257 872 l 285 844 l 549 844 l 564 829 z "},"đ":{"ha":833,"x_min":0,"x_max":0,"o":"m 283 0 l 654 0 l 690 37 l 690 724 l 664 750 l 681 765 l 707 739 l 760 739 l 796 777 l 796 829 l 760 867 l 707 867 l 681 840 l 664 856 l 690 882 l 690 935 l 654 972 l 602 972 l 564 935 l 564 882 l 590 856 l 575 840 l 549 867 l 390 867 l 353 829 l 353 777 l 390 739 l 549 739 l 575 765 l 590 750 l 564 724 l 564 671 l 590 644 l 575 629 l 549 656 l 283 656 l 248 618 l 248 566 l 231 550 l 178 550 l 142 513 l 142 143 l 178 106 l 231 106 l 248 90 l 248 37 z m 283 127 l 268 143 l 268 513 l 283 528 l 549 528 l 575 554 l 590 539 l 564 513 l 564 143 l 590 117 l 575 102 l 549 127 z "},"Ē":{"ha":833,"x_min":0,"x_max":0,"o":"m 142 36 l 179 0 l 654 0 l 692 36 l 692 89 l 654 126 l 285 126 l 258 100 l 243 115 l 269 142 l 269 406 l 243 433 l 258 449 l 285 422 l 549 422 l 586 460 l 586 513 l 549 549 l 285 549 l 258 522 l 243 539 l 269 566 l 269 829 l 243 856 l 258 871 l 285 844 l 654 844 l 692 882 l 692 935 l 654 972 l 179 972 l 142 935 z m 583 1071 l 610 1097 l 610 1135 l 583 1161 l 249 1161 l 222 1135 l 222 1097 l 249 1071 z "},"ē":{"ha":833,"x_min":0,"x_max":0,"o":"m 585 37 l 585 90 l 602 107 l 654 107 l 690 143 l 690 196 l 654 233 l 602 233 l 564 196 l 564 143 l 549 127 l 283 127 l 268 143 l 268 301 l 241 328 l 257 345 l 283 318 l 549 318 l 585 354 l 585 407 l 602 424 l 654 424 l 690 460 l 690 618 l 654 656 l 602 656 l 585 672 l 585 725 l 549 761 l 283 761 l 248 725 l 248 672 l 231 656 l 178 656 l 142 618 l 142 143 l 178 107 l 231 107 l 248 90 l 248 37 l 283 0 l 549 0 z m 283 444 l 257 418 l 241 433 l 268 460 l 268 618 l 283 635 l 549 635 l 564 618 l 564 460 l 549 444 z m 583 860 l 610 886 l 610 924 l 583 950 l 249 950 l 222 924 l 222 886 l 249 860 z "},"Ĕ":{"ha":833,"x_min":0,"x_max":0,"o":"m 142 36 l 179 0 l 654 0 l 692 36 l 692 89 l 654 126 l 285 126 l 258 100 l 243 115 l 269 142 l 269 406 l 243 433 l 258 449 l 285 422 l 549 422 l 586 460 l 586 513 l 549 549 l 285 549 l 258 522 l 243 539 l 269 566 l 269 829 l 243 856 l 258 871 l 285 844 l 654 844 l 692 882 l 692 935 l 654 972 l 179 972 l 142 935 z m 323 1047 l 509 1047 l 534 1074 l 534 1111 l 546 1122 l 583 1122 l 610 1147 l 610 1185 l 583 1211 l 546 1211 l 519 1185 l 519 1147 l 509 1137 l 323 1137 l 313 1147 l 313 1185 l 286 1211 l 249 1211 l 222 1185 l 222 1147 l 249 1122 l 286 1122 l 297 1111 l 297 1074 z "},"ĕ":{"ha":833,"x_min":0,"x_max":0,"o":"m 585 37 l 585 90 l 602 107 l 654 107 l 690 143 l 690 196 l 654 233 l 602 233 l 564 196 l 564 143 l 549 127 l 283 127 l 268 143 l 268 301 l 241 328 l 257 345 l 283 318 l 549 318 l 585 354 l 585 407 l 602 424 l 654 424 l 690 460 l 690 618 l 654 656 l 602 656 l 585 672 l 585 725 l 549 761 l 283 761 l 248 725 l 248 672 l 231 656 l 178 656 l 142 618 l 142 143 l 178 107 l 231 107 l 248 90 l 248 37 l 283 0 l 549 0 z m 283 444 l 257 418 l 241 433 l 268 460 l 268 618 l 283 635 l 549 635 l 564 618 l 564 460 l 549 444 z m 323 835 l 509 835 l 534 861 l 534 899 l 546 909 l 583 909 l 610 935 l 610 972 l 583 999 l 546 999 l 519 972 l 519 935 l 509 925 l 323 925 l 313 935 l 313 972 l 286 999 l 249 999 l 222 972 l 222 935 l 249 909 l 286 909 l 297 899 l 297 861 z "},"Ė":{"ha":833,"x_min":0,"x_max":0,"o":"m 142 36 l 179 0 l 654 0 l 692 36 l 692 89 l 654 126 l 285 126 l 258 100 l 243 115 l 269 142 l 269 406 l 243 433 l 258 449 l 285 422 l 549 422 l 586 460 l 586 513 l 549 549 l 285 549 l 258 522 l 243 539 l 269 566 l 269 829 l 243 856 l 258 871 l 285 844 l 654 844 l 692 882 l 692 935 l 654 972 l 179 972 l 142 935 z m 346 1174 l 346 1108 l 383 1072 l 449 1072 l 485 1108 l 485 1174 l 449 1211 l 383 1211 z "},"ė":{"ha":833,"x_min":0,"x_max":0,"o":"m 585 37 l 585 90 l 602 107 l 654 107 l 690 143 l 690 196 l 654 233 l 602 233 l 564 196 l 564 143 l 549 127 l 283 127 l 268 143 l 268 301 l 241 328 l 257 345 l 283 318 l 549 318 l 585 354 l 585 407 l 602 424 l 654 424 l 690 460 l 690 618 l 654 656 l 602 656 l 585 672 l 585 725 l 549 761 l 283 761 l 248 725 l 248 672 l 231 656 l 178 656 l 142 618 l 142 143 l 178 107 l 231 107 l 248 90 l 248 37 l 283 0 l 549 0 z m 283 444 l 257 418 l 241 433 l 268 460 l 268 618 l 283 635 l 549 635 l 564 618 l 564 460 l 549 444 z m 346 962 l 346 897 l 383 861 l 449 861 l 485 897 l 485 962 l 449 1000 l 383 1000 z "},"Ę":{"ha":833,"x_min":0,"x_max":0,"o":"m 371 -260 l 397 -286 l 509 -286 l 534 -260 l 534 -224 l 509 -197 l 397 -197 l 386 -186 l 386 -149 l 397 -138 l 435 -138 l 461 -111 l 461 0 l 654 0 l 690 37 l 690 90 l 654 127 l 283 127 l 257 102 l 241 117 l 268 143 l 268 407 l 241 433 l 257 449 l 283 422 l 549 422 l 585 460 l 585 513 l 549 550 l 283 550 l 257 524 l 241 539 l 268 566 l 268 829 l 241 856 l 257 871 l 283 844 l 654 844 l 690 882 l 690 935 l 654 972 l 178 972 l 142 935 l 142 37 l 178 0 l 371 0 l 371 -111 l 359 -122 l 323 -122 l 297 -149 l 297 -186 l 323 -212 l 359 -212 l 371 -224 z "},"ę":{"ha":833,"x_min":0,"x_max":0,"o":"m 585 37 l 585 90 l 602 106 l 654 106 l 690 143 l 690 196 l 654 233 l 602 233 l 564 196 l 564 143 l 549 127 l 283 127 l 268 143 l 268 301 l 241 328 l 257 343 l 283 317 l 549 317 l 585 354 l 585 407 l 602 422 l 654 422 l 690 460 l 690 618 l 654 656 l 602 656 l 585 671 l 585 724 l 549 761 l 283 761 l 248 724 l 248 671 l 231 656 l 178 656 l 142 618 l 142 143 l 178 106 l 231 106 l 248 90 l 248 37 l 283 0 l 371 0 l 371 -111 l 359 -122 l 323 -122 l 297 -149 l 297 -186 l 323 -212 l 359 -212 l 371 -224 l 371 -260 l 397 -286 l 509 -286 l 534 -260 l 534 -224 l 509 -197 l 397 -197 l 386 -186 l 386 -149 l 397 -138 l 435 -138 l 461 -111 l 461 0 l 549 0 z m 283 444 l 257 418 l 241 433 l 268 460 l 268 618 l 283 633 l 549 633 l 564 618 l 564 460 l 549 444 z "},"Ě":{"ha":833,"x_min":0,"x_max":0,"o":"m 142 36 l 179 0 l 654 0 l 692 36 l 692 89 l 654 126 l 285 126 l 258 100 l 243 115 l 269 142 l 269 406 l 243 433 l 258 449 l 285 422 l 549 422 l 586 460 l 586 513 l 549 549 l 285 549 l 258 522 l 243 539 l 269 566 l 269 829 l 243 856 l 258 871 l 285 844 l 654 844 l 692 882 l 692 935 l 654 972 l 179 972 l 142 935 z m 323 1122 l 359 1122 l 371 1111 l 371 1074 l 397 1047 l 435 1047 l 461 1074 l 461 1111 l 472 1122 l 509 1122 l 534 1149 l 534 1185 l 509 1211 l 472 1211 l 446 1185 l 446 1149 l 435 1137 l 397 1137 l 386 1149 l 386 1185 l 359 1211 l 323 1211 l 297 1185 l 297 1149 z "},"ě":{"ha":833,"x_min":0,"x_max":0,"o":"m 585 37 l 585 90 l 602 107 l 654 107 l 690 143 l 690 196 l 654 233 l 602 233 l 564 196 l 564 143 l 549 127 l 283 127 l 268 143 l 268 301 l 241 328 l 257 345 l 283 318 l 549 318 l 585 354 l 585 407 l 602 424 l 654 424 l 690 460 l 690 618 l 654 656 l 602 656 l 585 672 l 585 725 l 549 761 l 283 761 l 248 725 l 248 672 l 231 656 l 178 656 l 142 618 l 142 143 l 178 107 l 231 107 l 248 90 l 248 37 l 283 0 l 549 0 z m 283 444 l 257 418 l 241 433 l 268 460 l 268 618 l 283 635 l 549 635 l 564 618 l 564 460 l 549 444 z m 323 909 l 359 909 l 371 899 l 371 861 l 397 835 l 435 835 l 461 861 l 461 899 l 472 909 l 509 909 l 534 936 l 534 974 l 509 1000 l 472 1000 l 446 974 l 446 936 l 435 925 l 397 925 l 386 936 l 386 974 l 359 1000 l 323 1000 l 297 974 l 297 936 z "},"Ĝ":{"ha":833,"x_min":0,"x_max":0,"o":"m 297 1109 l 297 1074 l 323 1047 l 359 1047 l 386 1074 l 386 1109 l 397 1121 l 435 1121 l 446 1109 l 446 1074 l 472 1047 l 509 1047 l 534 1074 l 534 1109 l 509 1136 l 472 1136 l 461 1147 l 461 1185 l 446 1185 l 446 1147 l 419 1121 l 419 1083 l 408 1072 l 372 1072 z m 191 765 l 191 78 l 228 41 l 281 41 l 296 25 l 296 -28 l 334 -64 l 597 -64 l 635 -28 l 635 25 l 650 41 l 703 41 l 741 78 l 741 449 l 703 485 l 439 485 l 403 449 l 403 396 l 439 358 l 597 358 l 624 385 l 640 370 l 614 342 l 614 78 l 597 62 l 334 62 l 318 78 l 318 765 l 334 781 l 597 781 l 614 765 l 614 713 l 650 675 l 703 675 l 741 713 l 741 765 l 703 803 l 650 803 l 635 818 l 635 871 l 597 908 l 334 908 l 296 871 l 296 818 l 281 803 l 228 803 z "},"ĝ":{"ha":833,"x_min":0,"x_max":0,"o":"m 564 -16 l 564 -68 l 549 -83 l 285 -83 l 248 -121 l 248 -174 l 285 -211 l 549 -211 l 585 -174 l 585 -121 l 602 -106 l 654 -106 l 690 -68 l 690 725 l 654 761 l 285 761 l 248 725 l 248 672 l 231 656 l 178 656 l 142 618 l 142 143 l 178 107 l 231 107 l 248 90 l 248 37 l 285 0 l 549 0 l 575 28 l 590 11 z m 549 635 l 575 661 l 590 646 l 564 618 l 564 143 l 590 117 l 575 102 l 549 127 l 285 127 l 268 143 l 268 618 l 285 635 z m 297 899 l 297 861 l 323 835 l 359 835 l 386 861 l 386 899 l 397 909 l 435 909 l 446 899 l 446 861 l 472 835 l 509 835 l 534 861 l 534 899 l 509 925 l 472 925 l 461 936 l 461 974 l 435 1000 l 397 1000 l 371 974 l 371 936 l 359 925 l 323 925 z "},"Ğ":{"ha":833,"x_min":0,"x_max":0,"o":"m 142 829 l 142 142 l 179 106 l 232 106 l 248 89 l 248 36 l 285 0 l 549 0 l 586 36 l 586 89 l 602 106 l 654 106 l 692 142 l 692 513 l 654 549 l 390 549 l 354 513 l 354 460 l 390 422 l 549 422 l 575 449 l 591 433 l 566 406 l 566 142 l 549 126 l 285 126 l 269 142 l 269 829 l 285 844 l 549 844 l 566 829 l 566 777 l 602 739 l 654 739 l 692 777 l 692 829 l 654 867 l 602 867 l 586 882 l 586 935 l 549 972 l 285 972 l 248 935 l 248 882 l 232 867 l 179 867 z m 323 1047 l 509 1047 l 534 1074 l 534 1111 l 546 1122 l 583 1122 l 610 1147 l 610 1185 l 583 1211 l 546 1211 l 519 1185 l 519 1147 l 509 1137 l 323 1137 l 313 1147 l 313 1185 l 286 1211 l 249 1211 l 222 1185 l 222 1147 l 249 1122 l 286 1122 l 297 1111 l 297 1074 z "},"ğ":{"ha":833,"x_min":0,"x_max":0,"o":"m 564 -16 l 564 -68 l 549 -83 l 285 -83 l 248 -121 l 248 -174 l 285 -211 l 549 -211 l 585 -174 l 585 -121 l 602 -106 l 654 -106 l 690 -68 l 690 725 l 654 761 l 285 761 l 248 725 l 248 672 l 231 656 l 178 656 l 142 618 l 142 143 l 178 107 l 231 107 l 248 90 l 248 37 l 285 0 l 549 0 l 575 28 l 590 11 z m 549 635 l 575 661 l 590 646 l 564 618 l 564 143 l 590 117 l 575 102 l 549 127 l 285 127 l 268 143 l 268 618 l 285 635 z m 323 835 l 509 835 l 534 861 l 534 899 l 546 909 l 583 909 l 610 935 l 610 972 l 583 999 l 546 999 l 519 972 l 519 935 l 509 925 l 323 925 l 313 935 l 313 972 l 286 999 l 249 999 l 222 972 l 222 935 l 249 909 l 286 909 l 297 899 l 297 861 z "},"Ġ":{"ha":833,"x_min":0,"x_max":0,"o":"m 142 829 l 142 142 l 179 106 l 232 106 l 248 89 l 248 36 l 285 0 l 549 0 l 586 36 l 586 89 l 602 106 l 654 106 l 692 142 l 692 513 l 654 549 l 390 549 l 354 513 l 354 460 l 390 422 l 549 422 l 575 449 l 591 433 l 566 406 l 566 142 l 549 126 l 285 126 l 269 142 l 269 829 l 285 844 l 549 844 l 566 829 l 566 777 l 602 739 l 654 739 l 692 777 l 692 829 l 654 867 l 602 867 l 586 882 l 586 935 l 549 972 l 285 972 l 248 935 l 248 882 l 232 867 l 179 867 z m 346 1174 l 346 1108 l 383 1072 l 449 1072 l 485 1108 l 485 1174 l 449 1211 l 383 1211 z "},"ġ":{"ha":833,"x_min":0,"x_max":0,"o":"m 564 -16 l 564 -68 l 549 -83 l 285 -83 l 248 -121 l 248 -174 l 285 -211 l 549 -211 l 585 -174 l 585 -121 l 602 -106 l 654 -106 l 690 -68 l 690 725 l 654 761 l 285 761 l 248 725 l 248 672 l 231 656 l 178 656 l 142 618 l 142 143 l 178 107 l 231 107 l 248 90 l 248 37 l 285 0 l 549 0 l 575 28 l 590 11 z m 549 635 l 575 661 l 590 646 l 564 618 l 564 143 l 590 117 l 575 102 l 549 127 l 285 127 l 268 143 l 268 618 l 285 635 z m 346 962 l 346 897 l 383 861 l 449 861 l 485 897 l 485 962 l 449 1000 l 383 1000 z "},"Ģ":{"ha":833,"x_min":0,"x_max":0,"o":"m 142 829 l 142 142 l 179 106 l 232 106 l 248 89 l 248 36 l 285 0 l 549 0 l 586 36 l 586 89 l 602 106 l 654 106 l 692 142 l 692 513 l 654 549 l 390 549 l 354 513 l 354 460 l 390 422 l 549 422 l 575 449 l 591 433 l 566 406 l 566 142 l 549 126 l 285 126 l 269 142 l 269 829 l 285 844 l 549 844 l 566 829 l 566 777 l 602 739 l 654 739 l 692 777 l 692 829 l 654 867 l 602 867 l 586 882 l 586 935 l 549 972 l 285 972 l 248 935 l 248 882 l 232 867 l 179 867 z m 415 -119 l 427 -131 l 408 -149 l 408 -186 l 397 -197 l 359 -197 l 334 -224 l 334 -260 l 359 -286 l 397 -286 l 424 -260 l 424 -224 l 435 -212 l 472 -212 l 498 -186 l 498 -149 l 479 -131 l 498 -111 l 498 -75 l 472 -49 l 435 -49 l 415 -66 l 397 -49 l 359 -49 l 334 -75 l 334 -111 l 359 -138 l 397 -138 z "},"ģ":{"ha":833,"x_min":0,"x_max":0,"o":"m 564 -16 l 564 -68 l 549 -83 l 285 -83 l 248 -121 l 248 -174 l 285 -211 l 549 -211 l 585 -174 l 585 -121 l 602 -106 l 654 -106 l 690 -68 l 690 725 l 654 761 l 285 761 l 248 725 l 248 672 l 231 656 l 178 656 l 142 618 l 142 143 l 178 107 l 231 107 l 248 90 l 248 37 l 285 0 l 549 0 l 575 28 l 590 11 z m 549 635 l 575 661 l 590 646 l 564 618 l 564 143 l 590 117 l 575 102 l 549 127 l 285 127 l 268 143 l 268 618 l 285 635 z m 415 907 l 406 918 l 424 936 l 424 974 l 435 985 l 472 985 l 498 1011 l 498 1047 l 472 1074 l 435 1074 l 408 1047 l 408 1011 l 397 1000 l 359 1000 l 334 974 l 334 936 l 353 918 l 334 899 l 334 861 l 359 836 l 397 836 l 415 854 l 435 836 l 472 836 l 498 861 l 498 899 l 472 925 l 435 925 z "},"Ĥ":{"ha":833,"x_min":0,"x_max":0,"o":"m 297 1109 l 297 1074 l 323 1047 l 359 1047 l 386 1074 l 386 1109 l 397 1121 l 435 1121 l 446 1109 l 446 1074 l 472 1047 l 509 1047 l 534 1074 l 534 1109 l 509 1136 l 472 1136 l 461 1147 l 461 1185 l 446 1185 l 446 1147 l 419 1121 l 419 1083 l 408 1072 l 372 1072 z m 614 501 l 640 475 l 624 458 l 597 485 l 334 485 l 307 458 l 292 475 l 318 501 l 318 871 l 281 908 l 228 908 l 191 871 l 191 -28 l 228 -64 l 281 -64 l 318 -28 l 318 342 l 292 370 l 307 385 l 334 358 l 597 358 l 624 385 l 640 370 l 614 342 l 614 -28 l 650 -64 l 703 -64 l 741 -28 l 741 871 l 703 908 l 650 908 l 614 871 z "},"ĥ":{"ha":833,"x_min":0,"x_max":0,"o":"m 297 1074 l 323 1047 l 359 1047 l 386 1074 l 386 1109 l 397 1121 l 435 1121 l 446 1109 l 446 1074 l 472 1047 l 509 1047 l 534 1074 l 534 1109 l 509 1136 l 472 1136 l 461 1147 l 461 1185 l 461 1046 l 424 1046 l 412 1035 l 376 1035 l 297 1109 z m 602 660 l 338 660 l 310 633 l 294 650 l 321 676 l 321 835 l 283 871 l 231 871 l 195 835 l 195 -64 l 231 -102 l 283 -102 l 321 -64 l 321 517 l 294 545 l 310 559 l 338 533 l 602 533 l 616 517 l 616 -64 l 654 -102 l 707 -102 l 743 -64 l 743 517 l 707 554 l 654 554 l 637 571 l 637 624 z "},"Ħ":{"ha":833,"x_min":0,"x_max":0,"o":"m 36 829 l 36 777 l 72 739 l 125 739 l 151 765 l 168 750 l 142 724 l 142 37 l 178 0 l 231 0 l 268 37 l 268 407 l 241 433 l 257 449 l 285 422 l 549 422 l 575 449 l 590 433 l 564 407 l 564 37 l 602 0 l 654 0 l 690 37 l 690 724 l 664 750 l 681 765 l 707 739 l 760 739 l 798 777 l 798 829 l 760 867 l 707 867 l 681 840 l 664 856 l 690 882 l 690 935 l 654 972 l 602 972 l 564 935 l 564 882 l 590 856 l 575 840 l 549 867 l 285 867 l 257 840 l 241 856 l 268 882 l 268 935 l 231 972 l 178 972 l 142 935 l 142 882 l 168 856 l 151 840 l 125 867 l 72 867 z m 575 765 l 590 750 l 564 724 l 564 566 l 590 539 l 575 524 l 549 550 l 285 550 l 257 524 l 241 539 l 268 566 l 268 724 l 241 750 l 257 765 l 285 739 l 549 739 z "},"ħ":{"ha":833,"x_min":0,"x_max":0,"o":"m 690 513 l 654 550 l 602 550 l 585 566 l 585 618 l 549 656 l 285 656 l 257 629 l 241 644 l 268 671 l 268 724 l 241 750 l 257 765 l 285 739 l 443 739 l 479 777 l 479 829 l 443 867 l 285 867 l 257 840 l 241 856 l 268 882 l 268 935 l 231 972 l 178 972 l 142 935 l 142 882 l 168 856 l 151 840 l 125 867 l 72 867 l 36 829 l 36 777 l 72 739 l 125 739 l 151 765 l 168 750 l 142 724 l 142 37 l 178 0 l 231 0 l 268 37 l 268 513 l 241 539 l 257 554 l 285 528 l 549 528 l 564 513 l 564 37 l 602 0 l 654 0 l 690 37 z "},"Ĩ":{"ha":833,"x_min":0,"x_max":0,"o":"m 297 1185 l 297 1147 l 286 1136 l 249 1136 l 222 1109 l 222 1074 l 249 1047 l 286 1047 l 313 1074 l 313 1109 l 323 1121 l 435 1121 l 446 1109 l 446 1074 l 472 1047 l 509 1047 l 534 1074 l 534 1109 l 546 1121 l 583 1121 l 610 1147 l 610 1185 l 583 1211 l 546 1211 l 519 1185 l 519 1147 l 509 1136 l 472 1136 l 461 1147 l 461 1185 l 435 1211 l 323 1211 z m 353 829 l 353 143 l 379 117 l 364 100 l 336 126 l 285 126 l 248 89 l 248 37 l 285 0 l 549 0 l 585 37 l 585 89 l 549 126 l 496 126 l 469 100 l 453 117 l 479 143 l 479 829 l 453 856 l 469 871 l 496 844 l 549 844 l 585 882 l 585 935 l 549 972 l 285 972 l 248 935 l 248 882 l 285 844 l 336 844 l 364 871 l 379 856 z "},"ĩ":{"ha":833,"x_min":0,"x_max":0,"o":"m 469 660 l 496 633 l 549 633 l 585 671 l 585 724 l 549 761 l 285 761 l 248 724 l 248 671 l 285 633 l 336 633 l 364 660 l 379 644 l 353 618 l 353 143 l 379 117 l 364 102 l 336 127 l 285 127 l 248 90 l 248 37 l 285 0 l 549 0 l 585 37 l 585 90 l 549 127 l 496 127 l 469 102 l 453 117 l 479 143 l 479 618 l 453 644 z m 297 974 l 297 936 l 286 925 l 249 925 l 222 899 l 222 861 l 249 835 l 286 835 l 313 861 l 313 899 l 323 909 l 435 909 l 446 899 l 446 861 l 472 835 l 509 835 l 534 861 l 534 899 l 546 909 l 583 909 l 610 936 l 610 974 l 583 1000 l 546 1000 l 519 974 l 519 936 l 509 925 l 472 925 l 461 936 l 461 974 l 435 1000 l 323 1000 z "},"Ī":{"ha":833,"x_min":0,"x_max":0,"o":"m 353 829 l 353 143 l 379 117 l 364 100 l 336 126 l 285 126 l 248 89 l 248 37 l 285 0 l 549 0 l 585 37 l 585 89 l 549 126 l 496 126 l 469 100 l 453 117 l 479 143 l 479 829 l 453 856 l 469 871 l 496 844 l 549 844 l 585 882 l 585 935 l 549 972 l 285 972 l 248 935 l 248 882 l 285 844 l 336 844 l 364 871 l 379 856 z m 583 1072 l 610 1099 l 610 1136 l 583 1162 l 249 1162 l 222 1136 l 222 1099 l 249 1072 z "},"ī":{"ha":833,"x_min":0,"x_max":0,"o":"m 469 660 l 496 633 l 549 633 l 585 671 l 585 724 l 549 761 l 285 761 l 248 724 l 248 671 l 285 633 l 336 633 l 364 660 l 379 644 l 353 618 l 353 143 l 379 117 l 364 102 l 336 127 l 285 127 l 248 90 l 248 37 l 285 0 l 549 0 l 585 37 l 585 90 l 549 127 l 496 127 l 469 102 l 453 117 l 479 143 l 479 618 l 453 644 z m 583 860 l 610 886 l 610 924 l 583 950 l 249 950 l 222 924 l 222 886 l 249 860 z "},"Ĭ":{"ha":833,"x_min":0,"x_max":0,"o":"m 353 829 l 353 143 l 379 117 l 364 100 l 336 126 l 285 126 l 248 89 l 248 37 l 285 0 l 549 0 l 585 37 l 585 89 l 549 126 l 496 126 l 469 100 l 453 117 l 479 143 l 479 829 l 453 856 l 469 871 l 496 844 l 549 844 l 585 882 l 585 935 l 549 972 l 285 972 l 248 935 l 248 882 l 285 844 l 336 844 l 364 871 l 379 856 z m 323 1047 l 509 1047 l 534 1074 l 534 1111 l 546 1122 l 583 1122 l 610 1147 l 610 1185 l 583 1211 l 546 1211 l 519 1185 l 519 1147 l 509 1137 l 323 1137 l 313 1147 l 313 1185 l 286 1211 l 249 1211 l 222 1185 l 222 1147 l 249 1122 l 286 1122 l 297 1111 l 297 1074 z "},"ĭ":{"ha":833,"x_min":0,"x_max":0,"o":"m 469 660 l 496 633 l 549 633 l 585 671 l 585 724 l 549 761 l 285 761 l 248 724 l 248 671 l 285 633 l 336 633 l 364 660 l 379 644 l 353 618 l 353 143 l 379 117 l 364 102 l 336 127 l 285 127 l 248 90 l 248 37 l 285 0 l 549 0 l 585 37 l 585 90 l 549 127 l 496 127 l 469 102 l 453 117 l 479 143 l 479 618 l 453 644 z m 323 835 l 509 835 l 534 861 l 534 899 l 546 909 l 583 909 l 610 935 l 610 972 l 583 999 l 546 999 l 519 972 l 519 935 l 509 925 l 323 925 l 313 935 l 313 972 l 286 999 l 249 999 l 222 972 l 222 935 l 249 909 l 286 909 l 297 899 l 297 861 z "},"Į":{"ha":833,"x_min":0,"x_max":0,"o":"m 353 829 l 353 143 l 379 117 l 364 102 l 336 127 l 285 127 l 248 90 l 248 37 l 285 0 l 371 0 l 371 -111 l 359 -122 l 323 -122 l 297 -149 l 297 -186 l 323 -212 l 359 -212 l 371 -224 l 371 -260 l 397 -286 l 509 -286 l 534 -260 l 534 -224 l 509 -197 l 397 -197 l 386 -186 l 386 -149 l 397 -138 l 435 -138 l 461 -111 l 461 0 l 549 0 l 585 37 l 585 90 l 549 127 l 496 127 l 469 102 l 453 117 l 479 143 l 479 829 l 453 856 l 469 872 l 496 846 l 549 846 l 585 882 l 585 935 l 549 972 l 285 972 l 248 935 l 248 882 l 285 846 l 336 846 l 364 872 l 379 856 z "},"į":{"ha":833,"x_min":0,"x_max":0,"o":"m 469 660 l 496 633 l 549 633 l 585 671 l 585 724 l 549 761 l 285 761 l 248 724 l 248 671 l 285 633 l 336 633 l 364 660 l 379 644 l 353 618 l 353 143 l 379 117 l 364 102 l 336 127 l 285 127 l 248 90 l 248 37 l 285 0 l 371 0 l 371 -111 l 359 -122 l 323 -122 l 297 -149 l 297 -186 l 323 -212 l 359 -212 l 371 -224 l 371 -260 l 397 -286 l 509 -286 l 534 -260 l 534 -224 l 509 -197 l 397 -197 l 386 -186 l 386 -149 l 397 -138 l 435 -138 l 461 -111 l 461 0 l 549 0 l 585 37 l 585 90 l 549 127 l 496 127 l 469 102 l 453 117 l 479 143 l 479 618 l 453 644 z m 347 974 l 347 909 l 383 872 l 449 872 l 486 909 l 486 974 l 449 1011 l 383 1011 z "},"İ":{"ha":833,"x_min":0,"x_max":0,"o":"m 353 829 l 353 143 l 379 117 l 364 100 l 336 126 l 285 126 l 248 89 l 248 37 l 285 0 l 549 0 l 585 37 l 585 89 l 549 126 l 496 126 l 469 100 l 453 117 l 479 143 l 479 829 l 453 856 l 469 871 l 496 844 l 549 844 l 585 882 l 585 935 l 549 972 l 285 972 l 248 935 l 248 882 l 285 844 l 336 844 l 364 871 l 379 856 z m 346 1174 l 346 1108 l 383 1072 l 449 1072 l 485 1108 l 485 1174 l 449 1211 l 383 1211 z "},"ı":{"ha":833,"x_min":0,"x_max":0,"o":"m 469 660 l 496 633 l 549 633 l 585 671 l 585 724 l 549 761 l 285 761 l 248 724 l 248 671 l 285 633 l 336 633 l 364 660 l 379 644 l 353 618 l 353 143 l 379 117 l 364 102 l 336 127 l 285 127 l 248 90 l 248 37 l 285 0 l 549 0 l 585 37 l 585 90 l 549 127 l 496 127 l 469 102 l 453 117 l 479 143 l 479 618 l 453 644 z "},"Ĵ":{"ha":833,"x_min":0,"x_max":0,"o":"m 564 829 l 564 143 l 549 127 l 285 127 l 268 143 l 268 196 l 231 233 l 178 233 l 142 196 l 142 143 l 178 106 l 231 106 l 248 90 l 248 37 l 285 0 l 549 0 l 585 37 l 585 90 l 602 106 l 654 106 l 690 143 l 690 935 l 654 972 l 285 972 l 248 935 l 248 882 l 285 846 l 549 846 l 575 872 l 590 856 z m 376 1136 l 350 1109 l 350 1074 l 376 1047 l 412 1047 l 439 1074 l 439 1109 l 450 1121 l 488 1121 l 498 1109 l 498 1074 l 525 1047 l 562 1047 l 587 1074 l 587 1109 l 562 1136 l 525 1136 l 514 1147 l 514 1185 l 488 1211 l 450 1211 l 424 1185 l 424 1147 l 412 1136 z "},"ĵ":{"ha":833,"x_min":0,"x_max":0,"o":"m 458 -68 l 443 -83 l 285 -83 l 268 -68 l 268 -16 l 231 22 l 178 22 l 142 -16 l 142 -68 l 178 -106 l 231 -106 l 248 -121 l 248 -174 l 285 -211 l 443 -211 l 479 -174 l 479 -121 l 496 -106 l 549 -106 l 585 -68 l 585 618 l 558 644 l 575 660 l 602 633 l 654 633 l 690 671 l 690 724 l 654 761 l 390 761 l 353 724 l 353 671 l 390 633 l 443 633 l 469 660 l 485 644 l 458 618 z m 429 925 l 403 899 l 403 861 l 429 836 l 465 836 l 492 861 l 492 899 l 503 909 l 541 909 l 551 899 l 551 861 l 578 836 l 615 836 l 640 861 l 640 899 l 615 925 l 578 925 l 567 936 l 567 974 l 541 1000 l 503 1000 l 476 974 l 476 936 l 465 925 z "},"Ķ":{"ha":833,"x_min":0,"x_max":0,"o":"m 258 554 l 285 528 l 338 528 l 354 513 l 354 460 l 390 422 l 549 422 l 566 406 l 566 36 l 602 0 l 654 0 l 692 36 l 692 406 l 654 443 l 602 443 l 586 460 l 586 513 l 549 549 l 390 549 l 375 566 l 692 882 l 692 935 l 654 972 l 602 972 l 258 628 l 243 644 l 269 671 l 269 935 l 232 972 l 179 972 l 142 935 l 142 36 l 179 0 l 232 0 l 269 36 l 269 513 l 243 539 z m 415 -119 l 427 -131 l 408 -149 l 408 -186 l 397 -197 l 359 -197 l 334 -224 l 334 -260 l 359 -286 l 397 -286 l 424 -260 l 424 -224 l 435 -212 l 472 -212 l 498 -186 l 498 -149 l 479 -131 l 498 -111 l 498 -75 l 472 -49 l 435 -49 l 415 -66 l 397 -49 l 359 -49 l 334 -75 l 334 -111 l 359 -138 l 397 -138 z "},"ķ":{"ha":833,"x_min":0,"x_max":0,"o":"m 415 -119 l 427 -131 l 408 -149 l 408 -186 l 397 -197 l 359 -197 l 334 -224 l 334 -260 l 359 -286 l 397 -286 l 424 -260 l 424 -224 l 435 -212 l 472 -212 l 498 -186 l 498 -149 l 479 -131 l 498 -111 l 498 -75 l 472 -49 l 435 -49 l 415 -66 l 397 -49 l 359 -49 l 334 -75 l 334 -111 l 359 -138 l 397 -138 z m 257 450 l 285 424 l 336 424 l 353 407 l 353 354 l 390 318 l 549 318 l 564 301 l 564 37 l 602 0 l 654 0 l 690 37 l 690 301 l 654 339 l 602 339 l 585 354 l 585 407 l 549 444 l 390 444 l 374 460 l 585 672 l 585 725 l 549 761 l 496 761 l 257 524 l 241 539 l 268 567 l 268 936 l 231 972 l 178 972 l 142 936 l 142 37 l 178 0 l 231 0 l 268 37 l 268 407 l 241 433 z "},"ĸ":{"ha":833,"x_min":0,"x_max":0,"o":"m 257 450 l 285 424 l 336 424 l 353 407 l 353 354 l 390 318 l 549 318 l 564 301 l 564 37 l 602 0 l 654 0 l 690 37 l 690 301 l 654 339 l 602 339 l 585 354 l 585 407 l 549 444 l 390 444 l 374 460 l 585 672 l 585 725 l 549 761 l 496 761 l 257 524 l 241 539 l 268 567 l 268 725 l 231 761 l 178 761 l 142 725 l 142 37 l 178 0 l 231 0 l 268 37 l 268 407 l 241 433 z "},"Ĺ":{"ha":833,"x_min":0,"x_max":0,"o":"m 408 1149 l 397 1137 l 359 1137 l 335 1111 l 335 1074 l 359 1047 l 397 1047 l 424 1074 l 424 1111 l 435 1122 l 472 1122 l 498 1149 l 498 1185 l 472 1211 l 435 1211 l 408 1185 z m 142 36 l 179 0 l 654 0 l 692 36 l 692 89 l 654 126 l 285 126 l 258 100 l 243 115 l 269 142 l 269 935 l 232 972 l 179 972 l 142 935 z "},"ĺ":{"ha":833,"x_min":0,"x_max":0,"o":"m 408 1149 l 397 1137 l 359 1137 l 335 1111 l 335 1074 l 359 1047 l 397 1047 l 424 1074 l 424 1111 l 435 1122 l 472 1122 l 498 1149 l 498 1185 l 472 1211 l 435 1211 l 408 1185 z m 353 829 l 353 37 l 390 0 l 549 0 l 585 37 l 585 90 l 549 127 l 496 127 l 469 102 l 453 117 l 479 143 l 479 935 l 443 972 l 285 972 l 248 935 l 248 882 l 285 844 l 336 844 l 364 871 l 379 856 z "},"Ļ":{"ha":833,"x_min":0,"x_max":0,"o":"m 142 36 l 179 0 l 654 0 l 692 36 l 692 89 l 654 126 l 285 126 l 258 100 l 243 115 l 269 142 l 269 935 l 232 972 l 179 972 l 142 935 z m 415 -119 l 427 -131 l 408 -149 l 408 -186 l 397 -197 l 359 -197 l 334 -224 l 334 -260 l 359 -286 l 397 -286 l 424 -260 l 424 -224 l 435 -212 l 472 -212 l 498 -186 l 498 -149 l 479 -131 l 498 -111 l 498 -75 l 472 -49 l 435 -49 l 415 -66 l 397 -49 l 359 -49 l 334 -75 l 334 -111 l 359 -138 l 397 -138 z "},"ļ":{"ha":833,"x_min":0,"x_max":0,"o":"m 415 -119 l 427 -131 l 408 -149 l 408 -186 l 397 -197 l 359 -197 l 334 -224 l 334 -260 l 359 -286 l 397 -286 l 424 -260 l 424 -224 l 435 -212 l 472 -212 l 498 -186 l 498 -149 l 479 -131 l 498 -111 l 498 -75 l 472 -49 l 435 -49 l 415 -66 l 397 -49 l 359 -49 l 334 -75 l 334 -111 l 359 -138 l 397 -138 z m 353 829 l 353 37 l 390 0 l 549 0 l 585 37 l 585 90 l 549 127 l 496 127 l 469 102 l 453 117 l 479 143 l 479 935 l 443 972 l 285 972 l 248 935 l 248 882 l 285 844 l 336 844 l 364 871 l 379 856 z "},"Ľ":{"ha":833,"x_min":0,"x_max":0,"o":"m 142 36 l 179 0 l 654 0 l 692 36 l 692 89 l 654 126 l 285 126 l 258 100 l 243 115 l 269 142 l 269 935 l 232 972 l 179 972 l 142 935 z m 323 1122 l 359 1122 l 371 1111 l 371 1074 l 397 1047 l 435 1047 l 461 1074 l 461 1111 l 472 1122 l 509 1122 l 534 1149 l 534 1185 l 509 1211 l 472 1211 l 446 1185 l 446 1149 l 435 1137 l 397 1137 l 386 1149 l 386 1185 l 359 1211 l 323 1211 l 297 1185 l 297 1149 z "},"ľ":{"ha":833,"x_min":0,"x_max":0,"o":"m 353 829 l 353 37 l 390 0 l 549 0 l 585 37 l 585 90 l 549 127 l 496 127 l 469 102 l 453 117 l 479 143 l 479 935 l 443 972 l 285 972 l 248 935 l 248 882 l 285 844 l 336 844 l 364 871 l 379 856 z m 668 901 l 679 890 l 661 872 l 661 835 l 650 823 l 612 823 l 586 798 l 586 761 l 612 734 l 650 734 l 676 761 l 676 798 l 688 808 l 725 808 l 751 835 l 751 872 l 732 890 l 751 909 l 751 946 l 725 972 l 688 972 l 668 954 l 650 972 l 612 972 l 586 946 l 586 909 l 612 884 l 650 884 z "},"Ŀ":{"ha":833,"x_min":0,"x_max":0,"o":"m 142 36 l 179 0 l 654 0 l 692 36 l 692 89 l 654 126 l 285 126 l 258 100 l 243 115 l 269 142 l 269 935 l 232 972 l 179 972 l 142 935 z m 612 518 l 612 454 l 648 416 l 714 416 l 751 454 l 751 518 l 714 555 l 648 555 z "},"ŀ":{"ha":833,"x_min":0,"x_max":0,"o":"m 353 829 l 353 37 l 390 0 l 549 0 l 585 37 l 585 90 l 549 127 l 496 127 l 469 102 l 453 117 l 479 143 l 479 935 l 443 972 l 285 972 l 248 935 l 248 882 l 285 844 l 336 844 l 364 871 l 379 856 z m 612 518 l 612 454 l 648 416 l 714 416 l 751 454 l 751 518 l 714 555 l 648 555 z "},"Ł":{"ha":833,"x_min":0,"x_max":0,"o":"m 353 618 l 353 566 l 336 550 l 285 550 l 258 524 l 241 539 l 268 566 l 268 935 l 231 972 l 178 972 l 142 935 l 142 354 l 168 328 l 151 313 l 125 339 l 72 339 l 36 301 l 36 249 l 72 211 l 125 211 l 151 237 l 168 222 l 142 196 l 142 37 l 178 0 l 654 0 l 690 37 l 690 90 l 654 127 l 285 127 l 258 102 l 241 117 l 268 143 l 268 407 l 241 433 l 258 449 l 285 422 l 336 422 l 374 460 l 374 513 l 390 528 l 443 528 l 479 566 l 479 618 l 443 656 l 390 656 z "},"ł":{"ha":833,"x_min":0,"x_max":0,"o":"m 248 301 l 248 249 l 231 233 l 178 233 l 142 196 l 142 143 l 178 106 l 231 106 l 268 143 l 268 196 l 285 211 l 336 211 l 364 237 l 379 222 l 353 196 l 353 37 l 390 0 l 549 0 l 585 37 l 585 90 l 549 127 l 496 127 l 469 102 l 453 117 l 479 143 l 479 407 l 453 433 l 469 449 l 496 422 l 549 422 l 585 460 l 585 513 l 602 528 l 654 528 l 690 566 l 690 618 l 654 656 l 602 656 l 564 618 l 564 566 l 549 550 l 496 550 l 469 524 l 453 539 l 479 566 l 479 935 l 443 972 l 285 972 l 248 935 l 248 882 l 285 846 l 336 846 l 364 872 l 379 856 l 353 829 l 353 354 l 379 328 l 364 313 l 336 339 l 285 339 z "},"Ń":{"ha":833,"x_min":0,"x_max":0,"o":"m 408 1149 l 397 1137 l 359 1137 l 335 1111 l 335 1074 l 359 1047 l 397 1047 l 424 1074 l 424 1111 l 435 1122 l 472 1122 l 498 1149 l 498 1185 l 472 1211 l 435 1211 l 408 1185 z m 258 765 l 496 528 l 549 528 l 575 554 l 591 539 l 566 513 l 566 36 l 603 0 l 654 0 l 692 36 l 692 935 l 654 972 l 603 972 l 566 935 l 566 671 l 591 644 l 575 628 l 338 867 l 285 867 l 258 839 l 243 856 l 269 882 l 269 935 l 232 972 l 179 972 l 142 935 l 142 36 l 179 0 l 232 0 l 269 36 l 269 724 l 243 750 z "},"ń":{"ha":833,"x_min":0,"x_max":0,"o":"m 585 724 l 547 761 l 178 761 l 142 724 l 142 37 l 178 0 l 231 0 l 268 37 l 268 618 l 241 644 l 257 660 l 283 633 l 547 633 l 564 618 l 564 37 l 602 0 l 654 0 l 690 37 l 690 618 l 654 656 l 602 656 l 585 671 z m 408 936 l 397 925 l 359 925 l 334 899 l 334 861 l 359 835 l 397 835 l 424 861 l 424 899 l 435 909 l 472 909 l 497 936 l 497 974 l 472 1000 l 435 1000 l 408 974 z "},"Ņ":{"ha":833,"x_min":0,"x_max":0,"o":"m 258 765 l 496 528 l 549 528 l 575 554 l 591 539 l 566 513 l 566 36 l 603 0 l 654 0 l 692 36 l 692 935 l 654 972 l 603 972 l 566 935 l 566 671 l 591 644 l 575 628 l 338 867 l 285 867 l 258 839 l 243 856 l 269 882 l 269 935 l 232 972 l 179 972 l 142 935 l 142 36 l 179 0 l 232 0 l 269 36 l 269 724 l 243 750 z m 415 -119 l 427 -131 l 408 -149 l 408 -186 l 397 -197 l 359 -197 l 334 -224 l 334 -260 l 359 -286 l 397 -286 l 424 -260 l 424 -224 l 435 -212 l 472 -212 l 498 -186 l 498 -149 l 479 -131 l 498 -111 l 498 -75 l 472 -49 l 435 -49 l 415 -66 l 397 -49 l 359 -49 l 334 -75 l 334 -111 l 359 -138 l 397 -138 z "},"ņ":{"ha":833,"x_min":0,"x_max":0,"o":"m 415 -119 l 427 -131 l 408 -149 l 408 -186 l 397 -197 l 359 -197 l 334 -224 l 334 -260 l 359 -286 l 397 -286 l 424 -260 l 424 -224 l 435 -212 l 472 -212 l 498 -186 l 498 -149 l 479 -131 l 498 -111 l 498 -75 l 472 -49 l 435 -49 l 415 -66 l 397 -49 l 359 -49 l 334 -75 l 334 -111 l 359 -138 l 397 -138 z m 547 761 l 178 761 l 142 724 l 142 37 l 178 0 l 231 0 l 268 37 l 268 618 l 241 644 l 257 660 l 283 633 l 547 633 l 564 618 l 564 37 l 602 0 l 654 0 l 690 37 l 690 618 l 654 656 l 602 656 l 585 671 l 585 724 z "},"Ň":{"ha":833,"x_min":0,"x_max":0,"o":"m 258 765 l 496 528 l 549 528 l 575 554 l 591 539 l 566 513 l 566 36 l 603 0 l 654 0 l 692 36 l 692 935 l 654 972 l 603 972 l 566 935 l 566 671 l 591 644 l 575 628 l 338 867 l 285 867 l 258 839 l 243 856 l 269 882 l 269 935 l 232 972 l 179 972 l 142 935 l 142 36 l 179 0 l 232 0 l 269 36 l 269 724 l 243 750 z m 323 1122 l 359 1122 l 371 1111 l 371 1074 l 397 1047 l 435 1047 l 461 1074 l 461 1111 l 472 1122 l 509 1122 l 534 1149 l 534 1185 l 509 1211 l 472 1211 l 446 1185 l 446 1149 l 435 1137 l 397 1137 l 386 1149 l 386 1185 l 359 1211 l 323 1211 l 297 1185 l 297 1149 z "},"ň":{"ha":833,"x_min":0,"x_max":0,"o":"m 547 761 l 178 761 l 142 724 l 142 37 l 178 0 l 231 0 l 268 37 l 268 618 l 241 644 l 257 660 l 283 633 l 547 633 l 564 618 l 564 37 l 602 0 l 654 0 l 690 37 l 690 618 l 654 656 l 602 656 l 585 671 l 585 724 z m 323 909 l 359 909 l 371 899 l 371 861 l 397 835 l 435 835 l 461 861 l 461 899 l 472 909 l 509 909 l 534 936 l 534 974 l 509 1000 l 472 1000 l 446 974 l 446 936 l 435 925 l 397 925 l 386 936 l 386 974 l 359 1000 l 323 1000 l 297 974 l 297 936 z "},"ŉ":{"ha":833,"x_min":0,"x_max":0,"o":"m 637 724 l 602 761 l 232 761 l 195 724 l 195 37 l 232 0 l 283 0 l 321 37 l 321 618 l 294 644 l 311 660 l 338 633 l 602 633 l 616 618 l 616 37 l 654 0 l 707 0 l 743 37 l 743 618 l 707 656 l 654 656 l 637 671 z m 171 1003 l 182 991 l 163 974 l 163 936 l 151 925 l 115 925 l 89 899 l 89 861 l 115 836 l 151 836 l 178 861 l 178 899 l 189 909 l 227 909 l 253 936 l 253 974 l 233 991 l 253 1011 l 253 1047 l 227 1074 l 189 1074 l 171 1055 l 151 1074 l 115 1074 l 89 1047 l 89 1011 l 115 985 l 151 985 z "},"Ŋ":{"ha":833,"x_min":0,"x_max":0,"o":"m 258 765 l 496 528 l 549 528 l 575 554 l 590 539 l 564 513 l 564 -111 l 590 -138 l 627 -138 l 637 -149 l 637 -186 l 627 -197 l 515 -197 l 504 -186 l 504 -149 l 478 -122 l 441 -122 l 415 -149 l 415 -186 l 441 -212 l 478 -212 l 489 -224 l 489 -260 l 515 -286 l 627 -286 l 653 -260 l 653 -224 l 664 -212 l 701 -212 l 728 -186 l 728 -149 l 701 -122 l 664 -122 l 653 -111 l 653 0 l 690 37 l 690 935 l 654 972 l 602 972 l 564 935 l 564 671 l 590 644 l 575 629 l 336 867 l 285 867 l 258 840 l 241 856 l 268 882 l 268 935 l 231 972 l 178 972 l 142 935 l 142 37 l 178 0 l 231 0 l 268 37 l 268 724 l 241 750 z "},"ŋ":{"ha":833,"x_min":0,"x_max":0,"o":"m 585 724 l 549 761 l 178 761 l 142 724 l 142 37 l 178 0 l 231 0 l 268 37 l 268 618 l 241 644 l 257 660 l 285 633 l 549 633 l 564 618 l 564 -111 l 590 -138 l 627 -138 l 637 -149 l 637 -186 l 627 -197 l 515 -197 l 504 -186 l 504 -149 l 478 -122 l 441 -122 l 415 -149 l 415 -186 l 441 -212 l 478 -212 l 489 -224 l 489 -260 l 515 -286 l 627 -286 l 653 -260 l 653 -224 l 664 -212 l 701 -212 l 728 -186 l 728 -149 l 701 -122 l 664 -122 l 653 -111 l 654 0 l 690 37 l 690 618 l 654 656 l 602 656 l 585 671 z "},"Ō":{"ha":833,"x_min":0,"x_max":0,"o":"m 549 0 l 586 36 l 586 89 l 603 106 l 654 106 l 692 142 l 692 829 l 654 867 l 603 867 l 586 882 l 586 935 l 549 972 l 285 972 l 249 935 l 249 882 l 232 867 l 179 867 l 142 829 l 142 142 l 179 106 l 232 106 l 249 89 l 249 36 l 285 0 z m 566 829 l 566 142 l 549 126 l 285 126 l 269 142 l 269 829 l 285 844 l 549 844 z m 583 1072 l 610 1099 l 610 1136 l 583 1162 l 249 1162 l 222 1136 l 222 1099 l 249 1072 z "},"ō":{"ha":833,"x_min":0,"x_max":0,"o":"m 248 37 l 283 0 l 547 0 l 585 37 l 585 90 l 602 106 l 654 106 l 690 143 l 690 618 l 654 656 l 602 656 l 585 671 l 585 724 l 547 761 l 283 761 l 248 724 l 248 671 l 231 656 l 178 656 l 142 618 l 142 143 l 178 106 l 231 106 l 248 90 z m 547 127 l 283 127 l 268 143 l 268 618 l 283 633 l 547 633 l 564 618 l 564 143 z m 583 860 l 610 886 l 610 924 l 583 950 l 249 950 l 222 924 l 222 886 l 249 860 z "},"Ŏ":{"ha":833,"x_min":0,"x_max":0,"o":"m 549 0 l 586 36 l 586 89 l 603 106 l 654 106 l 692 142 l 692 829 l 654 867 l 603 867 l 586 882 l 586 935 l 549 972 l 285 972 l 249 935 l 249 882 l 232 867 l 179 867 l 142 829 l 142 142 l 179 106 l 232 106 l 249 89 l 249 36 l 285 0 z m 566 829 l 566 142 l 549 126 l 285 126 l 269 142 l 269 829 l 285 844 l 549 844 z m 323 1047 l 509 1047 l 534 1074 l 534 1111 l 546 1122 l 583 1122 l 610 1147 l 610 1185 l 583 1211 l 546 1211 l 519 1185 l 519 1147 l 509 1137 l 323 1137 l 313 1147 l 313 1185 l 286 1211 l 249 1211 l 222 1185 l 222 1147 l 249 1122 l 286 1122 l 297 1111 l 297 1074 z "},"ŏ":{"ha":833,"x_min":0,"x_max":0,"o":"m 283 0 l 547 0 l 585 37 l 585 90 l 602 106 l 654 106 l 690 143 l 690 618 l 654 656 l 602 656 l 585 671 l 585 724 l 547 761 l 283 761 l 248 724 l 248 671 l 231 656 l 178 656 l 142 618 l 142 143 l 178 106 l 231 106 l 248 90 l 248 37 z m 283 127 l 268 143 l 268 618 l 283 633 l 547 633 l 564 618 l 564 143 l 547 127 z m 323 835 l 509 835 l 534 861 l 534 899 l 546 909 l 583 909 l 610 935 l 610 972 l 583 999 l 546 999 l 519 972 l 519 935 l 509 925 l 323 925 l 313 935 l 313 972 l 286 999 l 249 999 l 222 972 l 222 935 l 249 909 l 286 909 l 297 899 l 297 861 z "},"Ő":{"ha":833,"x_min":0,"x_max":0,"o":"m 549 0 l 586 36 l 586 89 l 603 106 l 654 106 l 692 142 l 692 829 l 654 867 l 603 867 l 586 882 l 586 935 l 549 972 l 285 972 l 249 935 l 249 882 l 232 867 l 179 867 l 142 829 l 142 142 l 179 106 l 232 106 l 249 89 l 249 36 l 285 0 z m 566 829 l 566 142 l 549 126 l 285 126 l 269 142 l 269 829 l 285 844 l 549 844 z m 334 1147 l 323 1136 l 286 1136 l 260 1109 l 260 1072 l 286 1047 l 323 1047 l 349 1072 l 349 1109 l 359 1121 l 397 1121 l 424 1147 l 424 1185 l 397 1211 l 359 1211 l 334 1185 z m 484 1147 l 472 1136 l 435 1136 l 408 1109 l 408 1072 l 435 1047 l 472 1047 l 498 1072 l 498 1109 l 509 1121 l 546 1121 l 572 1147 l 572 1185 l 546 1211 l 509 1211 l 484 1185 z "},"ő":{"ha":833,"x_min":0,"x_max":0,"o":"m 283 0 l 547 0 l 585 37 l 585 90 l 602 106 l 654 106 l 690 143 l 690 618 l 654 656 l 602 656 l 585 671 l 585 724 l 547 761 l 283 761 l 248 724 l 248 671 l 231 656 l 178 656 l 142 618 l 142 143 l 178 106 l 231 106 l 248 90 l 248 37 z m 283 127 l 268 143 l 268 618 l 283 633 l 547 633 l 564 618 l 564 143 l 547 127 z m 334 936 l 323 925 l 286 925 l 260 899 l 260 861 l 286 836 l 323 836 l 349 861 l 349 899 l 359 909 l 397 909 l 424 936 l 424 974 l 397 1000 l 359 1000 l 334 974 z m 484 936 l 472 925 l 435 925 l 408 899 l 408 861 l 435 836 l 472 836 l 498 861 l 498 899 l 509 909 l 546 909 l 572 936 l 572 974 l 546 1000 l 509 1000 l 484 974 z "},"Œ":{"ha":833,"x_min":0,"x_max":0,"o":"m 285 0 l 654 0 l 690 37 l 690 90 l 654 127 l 496 127 l 469 102 l 453 117 l 479 143 l 479 407 l 453 433 l 469 449 l 496 422 l 654 422 l 690 460 l 690 513 l 654 550 l 496 550 l 469 524 l 453 539 l 479 566 l 479 829 l 453 856 l 469 872 l 496 844 l 654 844 l 690 882 l 690 935 l 654 972 l 285 972 l 248 935 l 248 882 l 231 867 l 178 867 l 142 829 l 142 143 l 178 106 l 231 106 l 248 90 l 248 37 z m 379 856 l 353 829 l 353 143 l 379 117 l 364 102 l 336 127 l 285 127 l 268 143 l 268 829 l 285 844 l 336 844 l 364 872 z "},"œ":{"ha":833,"x_min":0,"x_max":0,"o":"m 585 354 l 585 407 l 602 422 l 654 422 l 692 460 l 692 618 l 654 656 l 602 656 l 585 671 l 585 724 l 549 761 l 285 761 l 248 724 l 248 671 l 231 656 l 179 656 l 142 618 l 142 143 l 179 106 l 231 106 l 248 90 l 248 37 l 285 0 l 549 0 l 585 37 l 585 90 l 602 106 l 654 106 l 692 143 l 692 196 l 654 233 l 602 233 l 564 196 l 564 143 l 549 127 l 496 127 l 469 102 l 453 117 l 479 143 l 479 301 l 453 328 l 469 343 l 496 317 l 549 317 z m 268 618 l 285 633 l 338 633 l 364 660 l 379 644 l 353 618 l 353 143 l 379 117 l 364 102 l 338 127 l 285 127 l 268 143 z m 453 433 l 479 460 l 479 618 l 453 644 l 469 660 l 496 633 l 549 633 l 564 618 l 564 460 l 549 444 l 496 444 l 469 418 z "},"Ŕ":{"ha":833,"x_min":0,"x_max":0,"o":"m 408 1149 l 397 1137 l 359 1137 l 335 1111 l 335 1074 l 359 1047 l 397 1047 l 424 1074 l 424 1111 l 435 1122 l 472 1122 l 498 1149 l 498 1185 l 472 1211 l 435 1211 l 408 1185 z m 564 406 l 564 36 l 602 0 l 653 0 l 690 36 l 690 406 l 653 443 l 602 443 l 585 460 l 585 513 l 602 528 l 653 528 l 690 566 l 690 829 l 653 867 l 602 867 l 585 882 l 585 935 l 547 972 l 178 972 l 142 935 l 142 36 l 178 0 l 231 0 l 268 36 l 268 406 l 241 433 l 257 449 l 283 422 l 547 422 z m 547 844 l 564 829 l 564 566 l 547 549 l 283 549 l 257 522 l 241 539 l 268 566 l 268 829 l 241 856 l 257 871 l 283 844 z "},"ŕ":{"ha":833,"x_min":0,"x_max":0,"o":"m 585 724 l 549 761 l 389 761 l 353 724 l 353 671 l 336 656 l 283 656 l 257 629 l 241 644 l 268 671 l 268 724 l 231 761 l 178 761 l 142 724 l 142 37 l 178 0 l 231 0 l 268 37 l 268 513 l 241 539 l 257 554 l 283 528 l 336 528 l 374 566 l 374 618 l 389 633 l 549 633 l 564 618 l 564 566 l 602 528 l 654 528 l 690 566 l 690 618 l 654 656 l 602 656 l 585 671 z m 408 974 l 408 936 l 397 925 l 359 925 l 334 899 l 334 861 l 359 835 l 397 835 l 424 861 l 424 899 l 435 909 l 472 909 l 497 936 l 497 974 l 472 1000 l 435 1000 z "},"Ŗ":{"ha":833,"x_min":0,"x_max":0,"o":"m 564 36 l 602 0 l 653 0 l 690 36 l 690 406 l 653 443 l 602 443 l 585 460 l 585 513 l 602 528 l 653 528 l 690 566 l 690 829 l 653 867 l 602 867 l 585 882 l 585 935 l 547 972 l 178 972 l 142 935 l 142 36 l 178 0 l 231 0 l 268 36 l 268 406 l 241 433 l 257 449 l 283 422 l 547 422 l 564 406 z m 564 829 l 564 566 l 547 549 l 283 549 l 257 522 l 241 539 l 268 566 l 268 829 l 241 856 l 257 871 l 283 844 l 547 844 z m 415 -119 l 427 -131 l 408 -149 l 408 -186 l 397 -197 l 359 -197 l 334 -224 l 334 -260 l 359 -286 l 397 -286 l 424 -260 l 424 -224 l 435 -212 l 472 -212 l 498 -186 l 498 -149 l 479 -131 l 498 -111 l 498 -75 l 472 -49 l 435 -49 l 415 -66 l 397 -49 l 359 -49 l 334 -75 l 334 -111 l 359 -138 l 397 -138 z "},"ŗ":{"ha":833,"x_min":0,"x_max":0,"o":"m 549 761 l 389 761 l 353 724 l 353 671 l 336 656 l 283 656 l 257 629 l 241 644 l 268 671 l 268 724 l 231 761 l 178 761 l 142 724 l 142 37 l 178 0 l 231 0 l 268 37 l 268 513 l 241 539 l 257 554 l 283 528 l 336 528 l 374 566 l 374 618 l 389 633 l 549 633 l 564 618 l 564 566 l 602 528 l 654 528 l 690 566 l 690 618 l 654 656 l 602 656 l 585 671 l 585 724 z m 415 -119 l 427 -131 l 408 -149 l 408 -186 l 397 -197 l 359 -197 l 334 -224 l 334 -260 l 359 -286 l 397 -286 l 424 -260 l 424 -224 l 435 -212 l 472 -212 l 498 -186 l 498 -149 l 479 -131 l 498 -111 l 498 -75 l 472 -49 l 435 -49 l 415 -66 l 397 -49 l 359 -49 l 334 -75 l 334 -111 l 359 -138 l 397 -138 z "},"Ř":{"ha":833,"x_min":0,"x_max":0,"o":"m 564 36 l 602 0 l 653 0 l 690 36 l 690 406 l 653 443 l 602 443 l 585 460 l 585 513 l 602 528 l 653 528 l 690 566 l 690 829 l 653 867 l 602 867 l 585 882 l 585 935 l 547 972 l 178 972 l 142 935 l 142 36 l 178 0 l 231 0 l 268 36 l 268 406 l 241 433 l 257 449 l 283 422 l 547 422 l 564 406 z m 564 829 l 564 566 l 547 549 l 283 549 l 257 522 l 241 539 l 268 566 l 268 829 l 241 856 l 257 871 l 283 844 l 547 844 z m 323 1122 l 359 1122 l 371 1111 l 371 1074 l 397 1047 l 435 1047 l 461 1074 l 461 1111 l 472 1122 l 509 1122 l 534 1149 l 534 1185 l 509 1211 l 472 1211 l 446 1185 l 446 1149 l 435 1137 l 397 1137 l 386 1149 l 386 1185 l 359 1211 l 323 1211 l 297 1185 l 297 1149 z "},"ř":{"ha":833,"x_min":0,"x_max":0,"o":"m 549 761 l 389 761 l 353 724 l 353 671 l 336 656 l 283 656 l 257 629 l 241 644 l 268 671 l 268 724 l 231 761 l 178 761 l 142 724 l 142 37 l 178 0 l 231 0 l 268 37 l 268 513 l 241 539 l 257 554 l 283 528 l 336 528 l 374 566 l 374 618 l 389 633 l 549 633 l 564 618 l 564 566 l 602 528 l 654 528 l 690 566 l 690 618 l 654 656 l 602 656 l 585 671 l 585 724 z m 323 909 l 359 909 l 371 899 l 371 861 l 397 835 l 435 835 l 461 861 l 461 899 l 472 909 l 509 909 l 534 936 l 534 974 l 509 1000 l 472 1000 l 446 974 l 446 936 l 435 925 l 397 925 l 386 936 l 386 974 l 359 1000 l 323 1000 l 297 974 l 297 936 z "},"Ś":{"ha":833,"x_min":0,"x_max":0,"o":"m 408 1149 l 397 1137 l 359 1137 l 335 1111 l 335 1074 l 359 1047 l 397 1047 l 424 1074 l 424 1111 l 435 1122 l 472 1122 l 498 1149 l 498 1185 l 472 1211 l 435 1211 l 408 1185 z m 564 829 l 564 777 l 602 739 l 654 739 l 690 777 l 690 829 l 654 867 l 602 867 l 585 882 l 585 935 l 547 972 l 283 972 l 248 935 l 248 882 l 231 867 l 178 867 l 142 829 l 142 566 l 178 528 l 231 528 l 248 513 l 248 460 l 283 422 l 547 422 l 564 406 l 564 142 l 547 126 l 283 126 l 268 142 l 268 195 l 231 232 l 178 232 l 142 195 l 142 142 l 178 106 l 231 106 l 248 89 l 248 36 l 283 0 l 547 0 l 585 36 l 585 89 l 602 106 l 654 106 l 690 142 l 690 406 l 654 443 l 602 443 l 585 460 l 585 513 l 547 549 l 283 549 l 268 566 l 268 829 l 283 844 l 547 844 z "},"ś":{"ha":833,"x_min":0,"x_max":0,"o":"m 585 407 l 549 444 l 283 444 l 268 460 l 268 618 l 283 633 l 549 633 l 564 618 l 564 566 l 602 528 l 654 528 l 690 566 l 690 618 l 654 656 l 602 656 l 585 671 l 585 724 l 549 761 l 283 761 l 248 724 l 248 671 l 231 656 l 178 656 l 142 618 l 142 460 l 178 422 l 231 422 l 248 407 l 248 354 l 283 317 l 549 317 l 564 301 l 564 143 l 549 127 l 283 127 l 268 143 l 268 196 l 231 233 l 178 233 l 142 196 l 142 143 l 178 106 l 231 106 l 248 90 l 248 37 l 283 0 l 549 0 l 585 37 l 585 90 l 602 106 l 654 106 l 690 143 l 690 301 l 654 339 l 602 339 l 585 354 z m 408 974 l 408 936 l 397 925 l 359 925 l 334 899 l 334 861 l 359 835 l 397 835 l 424 861 l 424 899 l 435 909 l 472 909 l 497 936 l 497 974 l 472 1000 l 435 1000 z "},"Ŝ":{"ha":833,"x_min":0,"x_max":0,"o":"m 297 1109 l 297 1074 l 323 1047 l 359 1047 l 386 1074 l 386 1109 l 397 1121 l 435 1121 l 446 1109 l 446 1074 l 472 1047 l 509 1047 l 534 1074 l 534 1109 l 509 1136 l 472 1136 l 461 1147 l 461 1185 l 435 1211 l 397 1211 l 371 1185 l 371 1147 l 359 1136 l 323 1136 z m 564 829 l 564 777 l 602 739 l 654 739 l 690 777 l 690 829 l 654 867 l 602 867 l 585 882 l 585 935 l 547 972 l 283 972 l 248 935 l 248 882 l 231 867 l 178 867 l 142 829 l 142 566 l 178 528 l 231 528 l 248 513 l 248 460 l 283 422 l 547 422 l 564 406 l 564 142 l 547 126 l 283 126 l 268 142 l 268 195 l 231 232 l 178 232 l 142 195 l 142 142 l 178 106 l 231 106 l 248 89 l 248 36 l 283 0 l 547 0 l 585 36 l 585 89 l 602 106 l 654 106 l 690 142 l 690 406 l 654 443 l 602 443 l 585 460 l 585 513 l 547 549 l 283 549 l 268 566 l 268 829 l 283 844 l 547 844 z "},"ŝ":{"ha":833,"x_min":0,"x_max":0,"o":"m 549 444 l 283 444 l 268 460 l 268 618 l 283 633 l 549 633 l 564 618 l 564 566 l 602 528 l 654 528 l 690 566 l 690 618 l 654 656 l 602 656 l 585 671 l 585 724 l 549 761 l 283 761 l 248 724 l 248 671 l 231 656 l 178 656 l 142 618 l 142 460 l 178 422 l 231 422 l 248 407 l 248 354 l 283 317 l 549 317 l 564 301 l 564 143 l 549 127 l 283 127 l 268 143 l 268 196 l 231 233 l 178 233 l 142 196 l 142 143 l 178 106 l 231 106 l 248 90 l 248 37 l 283 0 l 549 0 l 585 37 l 585 90 l 602 106 l 654 106 l 690 143 l 690 301 l 654 339 l 602 339 l 585 354 l 585 407 z m 297 899 l 297 861 l 323 835 l 359 835 l 386 861 l 386 899 l 397 909 l 435 909 l 446 899 l 446 861 l 472 835 l 509 835 l 534 861 l 534 899 l 509 925 l 472 925 l 461 936 l 461 974 l 435 1000 l 397 1000 l 371 974 l 371 936 l 359 925 l 323 925 z "},"Ş":{"ha":833,"x_min":0,"x_max":0,"o":"m 564 829 l 564 777 l 602 739 l 654 739 l 690 777 l 690 829 l 654 867 l 602 867 l 585 882 l 585 935 l 547 972 l 283 972 l 248 935 l 248 882 l 231 867 l 178 867 l 142 829 l 142 566 l 178 528 l 231 528 l 248 513 l 248 460 l 283 422 l 547 422 l 564 406 l 564 142 l 547 126 l 283 126 l 268 142 l 268 195 l 231 232 l 178 232 l 142 195 l 142 142 l 178 106 l 231 106 l 248 89 l 248 36 l 283 0 l 547 0 l 585 36 l 585 89 l 602 106 l 654 106 l 690 142 l 690 406 l 654 443 l 602 443 l 585 460 l 585 513 l 547 549 l 283 549 l 268 566 l 268 829 l 283 844 l 547 844 z m 415 -119 l 427 -131 l 408 -149 l 408 -186 l 397 -197 l 359 -197 l 334 -224 l 334 -260 l 359 -286 l 397 -286 l 424 -260 l 424 -224 l 435 -212 l 472 -212 l 498 -186 l 498 -149 l 479 -131 l 498 -111 l 498 -75 l 472 -49 l 435 -49 l 415 -66 l 397 -49 l 359 -49 l 334 -75 l 334 -111 l 359 -138 l 397 -138 z "},"ş":{"ha":833,"x_min":0,"x_max":0,"o":"m 549 444 l 283 444 l 268 460 l 268 618 l 283 633 l 549 633 l 564 618 l 564 566 l 602 528 l 654 528 l 690 566 l 690 618 l 654 656 l 602 656 l 585 671 l 585 724 l 549 761 l 283 761 l 248 724 l 248 671 l 231 656 l 178 656 l 142 618 l 142 460 l 178 422 l 231 422 l 248 407 l 248 354 l 283 317 l 549 317 l 564 301 l 564 143 l 549 127 l 283 127 l 268 143 l 268 196 l 231 233 l 178 233 l 142 196 l 142 143 l 178 106 l 231 106 l 248 90 l 248 37 l 283 0 l 549 0 l 585 37 l 585 90 l 602 106 l 654 106 l 690 143 l 690 301 l 654 339 l 602 339 l 585 354 l 585 407 z m 415 -119 l 427 -131 l 408 -149 l 408 -186 l 397 -197 l 359 -197 l 334 -224 l 334 -260 l 359 -286 l 397 -286 l 424 -260 l 424 -224 l 435 -212 l 472 -212 l 498 -186 l 498 -149 l 479 -131 l 498 -111 l 498 -75 l 472 -49 l 435 -49 l 415 -66 l 397 -49 l 359 -49 l 334 -75 l 334 -111 l 359 -138 l 397 -138 z "},"Š":{"ha":833,"x_min":0,"x_max":0,"o":"m 564 829 l 564 777 l 602 739 l 654 739 l 690 777 l 690 829 l 654 867 l 602 867 l 585 882 l 585 935 l 547 972 l 283 972 l 248 935 l 248 882 l 231 867 l 178 867 l 142 829 l 142 566 l 178 528 l 231 528 l 248 513 l 248 460 l 283 422 l 547 422 l 564 406 l 564 142 l 547 126 l 283 126 l 268 142 l 268 195 l 231 232 l 178 232 l 142 195 l 142 142 l 178 106 l 231 106 l 248 89 l 248 36 l 283 0 l 547 0 l 585 36 l 585 89 l 602 106 l 654 106 l 690 142 l 690 406 l 654 443 l 602 443 l 585 460 l 585 513 l 547 549 l 283 549 l 268 566 l 268 829 l 283 844 l 547 844 z m 323 1122 l 359 1122 l 371 1111 l 371 1074 l 397 1047 l 435 1047 l 461 1074 l 461 1111 l 472 1122 l 509 1122 l 534 1149 l 534 1185 l 509 1211 l 472 1211 l 446 1185 l 446 1149 l 435 1137 l 397 1137 l 386 1149 l 386 1185 l 359 1211 l 323 1211 l 297 1185 l 297 1149 z "},"š":{"ha":833,"x_min":0,"x_max":0,"o":"m 549 444 l 283 444 l 268 460 l 268 618 l 283 633 l 549 633 l 564 618 l 564 566 l 602 528 l 654 528 l 690 566 l 690 618 l 654 656 l 602 656 l 585 671 l 585 724 l 549 761 l 283 761 l 248 724 l 248 671 l 231 656 l 178 656 l 142 618 l 142 460 l 178 422 l 231 422 l 248 407 l 248 354 l 283 317 l 549 317 l 564 301 l 564 143 l 549 127 l 283 127 l 268 143 l 268 196 l 231 233 l 178 233 l 142 196 l 142 143 l 178 106 l 231 106 l 248 90 l 248 37 l 283 0 l 549 0 l 585 37 l 585 90 l 602 106 l 654 106 l 690 143 l 690 301 l 654 339 l 602 339 l 585 354 l 585 407 z m 323 909 l 359 909 l 371 899 l 371 861 l 397 835 l 435 835 l 461 861 l 461 899 l 472 909 l 509 909 l 534 936 l 534 974 l 509 1000 l 472 1000 l 446 974 l 446 936 l 435 925 l 397 925 l 386 936 l 386 974 l 359 1000 l 323 1000 l 297 974 l 297 936 z "},"Ţ":{"ha":833,"x_min":0,"x_max":0,"o":"m 353 829 l 353 36 l 389 0 l 441 0 l 479 36 l 479 829 l 453 856 l 468 871 l 496 844 l 654 844 l 690 882 l 690 935 l 654 972 l 178 972 l 142 935 l 142 882 l 178 844 l 336 844 l 363 871 l 379 856 z m 415 -119 l 427 -131 l 408 -149 l 408 -186 l 397 -197 l 359 -197 l 334 -224 l 334 -260 l 359 -286 l 397 -286 l 424 -260 l 424 -224 l 435 -212 l 472 -212 l 498 -186 l 498 -149 l 479 -131 l 498 -111 l 498 -75 l 472 -49 l 435 -49 l 415 -66 l 397 -49 l 359 -49 l 334 -75 l 334 -111 l 359 -138 l 397 -138 z "},"ţ":{"ha":833,"x_min":0,"x_max":0,"o":"m 390 0 l 549 0 l 585 37 l 585 90 l 602 106 l 654 106 l 690 143 l 690 196 l 654 233 l 602 233 l 564 196 l 564 143 l 549 127 l 390 127 l 374 143 l 374 618 l 347 644 l 363 660 l 390 633 l 549 633 l 585 671 l 585 724 l 549 761 l 390 761 l 363 734 l 347 750 l 374 777 l 374 829 l 336 867 l 283 867 l 248 829 l 248 777 l 273 750 l 257 734 l 231 761 l 178 761 l 142 724 l 142 671 l 178 633 l 231 633 l 257 660 l 273 644 l 248 618 l 248 143 l 283 106 l 336 106 l 353 90 l 353 37 z m 415 -119 l 427 -131 l 408 -149 l 408 -186 l 397 -197 l 359 -197 l 334 -224 l 334 -260 l 359 -286 l 397 -286 l 424 -260 l 424 -224 l 435 -212 l 472 -212 l 498 -186 l 498 -149 l 479 -131 l 498 -111 l 498 -75 l 472 -49 l 435 -49 l 415 -66 l 397 -49 l 359 -49 l 334 -75 l 334 -111 l 359 -138 l 397 -138 z "},"Ť":{"ha":833,"x_min":0,"x_max":0,"o":"m 353 829 l 353 36 l 389 0 l 441 0 l 479 36 l 479 829 l 453 856 l 468 871 l 496 844 l 654 844 l 690 882 l 690 935 l 654 972 l 178 972 l 142 935 l 142 882 l 178 844 l 336 844 l 363 871 l 379 856 z m 323 1122 l 359 1122 l 371 1111 l 371 1074 l 397 1047 l 435 1047 l 461 1074 l 461 1111 l 472 1122 l 509 1122 l 534 1149 l 534 1185 l 509 1211 l 472 1211 l 446 1185 l 446 1149 l 435 1137 l 397 1137 l 386 1149 l 386 1185 l 359 1211 l 323 1211 l 297 1185 l 297 1149 z "},"ť":{"ha":833,"x_min":0,"x_max":0,"o":"m 353 37 l 390 0 l 549 0 l 585 37 l 585 90 l 602 106 l 654 106 l 690 143 l 690 196 l 654 233 l 602 233 l 564 196 l 564 143 l 549 127 l 390 127 l 374 143 l 374 618 l 347 644 l 363 660 l 390 633 l 549 633 l 585 671 l 585 724 l 549 761 l 390 761 l 363 734 l 347 750 l 374 777 l 374 829 l 336 867 l 283 867 l 248 829 l 248 777 l 273 750 l 257 734 l 231 761 l 178 761 l 142 724 l 142 671 l 178 633 l 231 633 l 257 660 l 273 644 l 248 618 l 248 143 l 283 106 l 336 106 l 353 90 z m 726 901 l 737 890 l 720 872 l 720 835 l 708 823 l 671 823 l 644 798 l 644 761 l 671 734 l 708 734 l 734 761 l 734 798 l 746 808 l 783 808 l 810 835 l 810 872 l 790 890 l 810 909 l 810 946 l 783 972 l 746 972 l 726 954 l 708 972 l 671 972 l 644 946 l 644 909 l 671 884 l 708 884 z "},"Ŧ":{"ha":833,"x_min":0,"x_max":0,"o":"m 353 829 l 353 671 l 379 644 l 364 629 l 336 656 l 178 656 l 142 618 l 142 566 l 178 528 l 336 528 l 364 554 l 379 539 l 353 513 l 353 37 l 390 0 l 443 0 l 479 37 l 479 513 l 453 539 l 469 554 l 496 528 l 654 528 l 690 566 l 690 618 l 654 656 l 496 656 l 469 629 l 453 644 l 479 671 l 479 829 l 453 856 l 469 872 l 496 846 l 654 846 l 690 882 l 690 935 l 654 972 l 178 972 l 142 935 l 142 882 l 178 846 l 336 846 l 364 872 l 379 856 z "},"ŧ":{"ha":833,"x_min":0,"x_max":0,"o":"m 353 37 l 390 0 l 549 0 l 585 37 l 585 90 l 602 106 l 654 106 l 690 143 l 690 196 l 654 233 l 602 233 l 564 196 l 564 143 l 549 127 l 390 127 l 374 143 l 374 407 l 347 433 l 364 449 l 390 422 l 549 422 l 585 460 l 585 513 l 549 550 l 390 550 l 364 524 l 347 539 l 374 566 l 374 618 l 347 644 l 364 660 l 390 633 l 549 633 l 585 671 l 585 724 l 549 761 l 390 761 l 364 734 l 347 750 l 374 777 l 374 829 l 336 867 l 285 867 l 248 829 l 248 777 l 273 750 l 257 734 l 231 761 l 178 761 l 142 724 l 142 671 l 178 633 l 231 633 l 257 660 l 273 644 l 248 618 l 248 566 l 273 539 l 257 524 l 231 550 l 178 550 l 142 513 l 142 460 l 178 422 l 231 422 l 257 449 l 273 433 l 248 407 l 248 143 l 285 106 l 336 106 l 353 90 z "},"Ũ":{"ha":833,"x_min":0,"x_max":0,"o":"m 564 142 l 547 126 l 283 126 l 268 142 l 268 935 l 231 972 l 178 972 l 142 935 l 142 142 l 178 106 l 231 106 l 248 89 l 248 36 l 283 0 l 547 0 l 585 36 l 585 89 l 602 106 l 654 106 l 690 142 l 690 935 l 654 972 l 602 972 l 564 935 z m 297 1185 l 297 1147 l 286 1136 l 249 1136 l 222 1109 l 222 1074 l 249 1047 l 286 1047 l 313 1074 l 313 1109 l 323 1121 l 435 1121 l 446 1109 l 446 1074 l 472 1047 l 509 1047 l 534 1074 l 534 1109 l 546 1121 l 583 1121 l 610 1147 l 610 1185 l 583 1211 l 546 1211 l 519 1185 l 519 1147 l 509 1136 l 472 1136 l 461 1147 l 461 1185 l 435 1211 l 323 1211 z "},"ũ":{"ha":833,"x_min":0,"x_max":0,"o":"m 248 37 l 283 0 l 654 0 l 690 37 l 690 724 l 654 761 l 602 761 l 564 724 l 564 143 l 590 117 l 575 102 l 549 127 l 283 127 l 268 143 l 268 724 l 231 761 l 178 761 l 142 724 l 142 143 l 178 106 l 231 106 l 248 90 z m 297 974 l 297 936 l 286 925 l 249 925 l 222 899 l 222 861 l 249 835 l 286 835 l 313 861 l 313 899 l 323 909 l 435 909 l 446 899 l 446 861 l 472 835 l 509 835 l 534 861 l 534 899 l 546 909 l 583 909 l 610 936 l 610 974 l 583 1000 l 546 1000 l 519 974 l 519 936 l 509 925 l 472 925 l 461 936 l 461 974 l 435 1000 l 323 1000 z "},"Ū":{"ha":833,"x_min":0,"x_max":0,"o":"m 564 142 l 547 126 l 283 126 l 268 142 l 268 935 l 231 972 l 178 972 l 142 935 l 142 142 l 178 106 l 231 106 l 248 89 l 248 36 l 283 0 l 547 0 l 585 36 l 585 89 l 602 106 l 654 106 l 690 142 l 690 935 l 654 972 l 602 972 l 564 935 z m 583 1072 l 610 1099 l 610 1136 l 583 1162 l 249 1162 l 222 1136 l 222 1099 l 249 1072 z "},"ū":{"ha":833,"x_min":0,"x_max":0,"o":"m 248 37 l 283 0 l 654 0 l 690 37 l 690 724 l 654 761 l 602 761 l 564 724 l 564 143 l 590 117 l 575 102 l 549 127 l 283 127 l 268 143 l 268 724 l 231 761 l 178 761 l 142 724 l 142 143 l 178 106 l 231 106 l 248 90 z m 583 860 l 610 886 l 610 924 l 583 950 l 249 950 l 222 924 l 222 886 l 249 860 z "},"Ŭ":{"ha":833,"x_min":0,"x_max":0,"o":"m 564 142 l 547 126 l 283 126 l 268 142 l 268 935 l 231 972 l 178 972 l 142 935 l 142 142 l 178 106 l 231 106 l 248 89 l 248 36 l 283 0 l 547 0 l 585 36 l 585 89 l 602 106 l 654 106 l 690 142 l 690 935 l 654 972 l 602 972 l 564 935 z m 323 1047 l 509 1047 l 534 1074 l 534 1111 l 546 1122 l 583 1122 l 610 1147 l 610 1185 l 583 1211 l 546 1211 l 519 1185 l 519 1147 l 509 1137 l 323 1137 l 313 1147 l 313 1185 l 286 1211 l 249 1211 l 222 1185 l 222 1147 l 249 1122 l 286 1122 l 297 1111 l 297 1074 z "},"ŭ":{"ha":833,"x_min":0,"x_max":0,"o":"m 283 0 l 654 0 l 690 37 l 690 724 l 654 761 l 602 761 l 564 724 l 564 143 l 590 117 l 575 102 l 549 127 l 283 127 l 268 143 l 268 724 l 231 761 l 178 761 l 142 724 l 142 143 l 178 106 l 231 106 l 248 90 l 248 37 z m 323 835 l 509 835 l 534 861 l 534 899 l 546 909 l 583 909 l 610 935 l 610 972 l 583 999 l 546 999 l 519 972 l 519 935 l 509 925 l 323 925 l 313 935 l 313 972 l 286 999 l 249 999 l 222 972 l 222 935 l 249 909 l 286 909 l 297 899 l 297 861 z "},"Ů":{"ha":833,"x_min":0,"x_max":0,"o":"m 564 142 l 547 126 l 283 126 l 268 142 l 268 935 l 231 972 l 178 972 l 142 935 l 142 142 l 178 106 l 231 106 l 248 89 l 248 36 l 283 0 l 547 0 l 585 36 l 585 89 l 602 106 l 654 106 l 690 142 l 690 935 l 654 972 l 602 972 l 564 935 z m 281 1060 l 296 1044 l 318 1044 l 323 1038 l 323 1017 l 339 1002 l 361 1002 l 368 994 l 368 972 l 383 957 l 449 957 l 464 972 l 464 994 l 471 1002 l 493 1002 l 509 1017 l 509 1038 l 514 1044 l 536 1044 l 551 1060 l 551 1125 l 536 1141 l 514 1141 l 509 1147 l 509 1169 l 493 1185 l 471 1185 l 464 1192 l 464 1213 l 449 1229 l 383 1229 l 368 1213 l 368 1192 l 361 1185 l 339 1185 l 323 1169 l 323 1147 l 318 1141 l 296 1141 l 281 1125 z m 339 1132 l 361 1132 l 376 1147 l 376 1169 l 383 1177 l 449 1177 l 456 1169 l 456 1147 l 471 1132 l 493 1132 l 498 1125 l 498 1060 l 493 1053 l 471 1053 l 456 1038 l 456 1017 l 449 1010 l 383 1010 l 376 1017 l 376 1038 l 361 1053 l 339 1053 l 334 1060 l 334 1125 z "},"ů":{"ha":833,"x_min":0,"x_max":0,"o":"m 283 0 l 654 0 l 690 37 l 690 724 l 654 761 l 602 761 l 564 724 l 564 143 l 590 117 l 575 102 l 549 127 l 283 127 l 268 143 l 268 724 l 231 761 l 178 761 l 142 724 l 142 143 l 178 106 l 231 106 l 248 90 l 248 37 z m 281 848 l 296 833 l 318 833 l 323 827 l 323 806 l 339 790 l 361 790 l 368 783 l 368 761 l 383 746 l 449 746 l 464 761 l 464 783 l 471 790 l 493 790 l 509 806 l 509 827 l 514 833 l 536 833 l 551 848 l 551 914 l 536 930 l 514 930 l 509 936 l 509 958 l 493 974 l 471 974 l 464 981 l 464 1002 l 449 1018 l 383 1018 l 368 1002 l 368 981 l 361 974 l 339 974 l 323 958 l 323 936 l 318 930 l 296 930 l 281 914 z m 339 921 l 361 921 l 376 936 l 376 958 l 383 965 l 449 965 l 456 958 l 456 936 l 471 921 l 493 921 l 498 914 l 498 848 l 493 842 l 471 842 l 456 827 l 456 806 l 449 799 l 383 799 l 376 806 l 376 827 l 361 842 l 339 842 l 334 848 l 334 914 z "},"Ű":{"ha":833,"x_min":0,"x_max":0,"o":"m 564 142 l 547 126 l 283 126 l 268 142 l 268 935 l 231 972 l 178 972 l 142 935 l 142 142 l 178 106 l 231 106 l 248 89 l 248 36 l 283 0 l 547 0 l 585 36 l 585 89 l 602 106 l 654 106 l 690 142 l 690 935 l 654 972 l 602 972 l 564 935 z m 334 1147 l 323 1136 l 286 1136 l 260 1109 l 260 1072 l 286 1047 l 323 1047 l 349 1072 l 349 1109 l 359 1121 l 397 1121 l 424 1147 l 424 1185 l 397 1211 l 359 1211 l 334 1185 z m 484 1147 l 472 1136 l 435 1136 l 408 1109 l 408 1072 l 435 1047 l 472 1047 l 498 1072 l 498 1109 l 509 1121 l 546 1121 l 572 1147 l 572 1185 l 546 1211 l 509 1211 l 484 1185 z "},"ű":{"ha":833,"x_min":0,"x_max":0,"o":"m 283 0 l 654 0 l 690 37 l 690 724 l 654 761 l 602 761 l 564 724 l 564 143 l 590 117 l 575 102 l 549 127 l 283 127 l 268 143 l 268 724 l 231 761 l 178 761 l 142 724 l 142 143 l 178 106 l 231 106 l 248 90 l 248 37 z m 334 936 l 323 925 l 286 925 l 260 899 l 260 861 l 286 836 l 323 836 l 349 861 l 349 899 l 359 909 l 397 909 l 424 936 l 424 974 l 397 1000 l 359 1000 l 334 974 z m 484 936 l 472 925 l 435 925 l 408 899 l 408 861 l 435 836 l 472 836 l 498 861 l 498 899 l 509 909 l 546 909 l 572 936 l 572 974 l 546 1000 l 509 1000 l 484 974 z "},"Ų":{"ha":833,"x_min":0,"x_max":0,"o":"m 564 143 l 549 127 l 285 127 l 268 143 l 268 935 l 231 972 l 178 972 l 142 935 l 142 143 l 178 106 l 231 106 l 248 90 l 248 37 l 285 0 l 371 0 l 371 -111 l 359 -122 l 323 -122 l 297 -149 l 297 -186 l 323 -212 l 359 -212 l 371 -224 l 371 -260 l 397 -286 l 509 -286 l 534 -260 l 534 -224 l 509 -197 l 397 -197 l 386 -186 l 386 -149 l 397 -138 l 435 -138 l 461 -111 l 461 0 l 549 0 l 585 37 l 585 90 l 602 106 l 654 106 l 690 143 l 690 935 l 654 972 l 602 972 l 564 935 z "},"ų":{"ha":833,"x_min":0,"x_max":0,"o":"m 248 37 l 285 0 l 371 0 l 371 -111 l 359 -122 l 323 -122 l 297 -149 l 297 -186 l 323 -212 l 359 -212 l 371 -224 l 371 -260 l 397 -286 l 509 -286 l 534 -260 l 534 -224 l 509 -197 l 397 -197 l 386 -186 l 386 -149 l 397 -138 l 435 -138 l 461 -111 l 461 0 l 654 0 l 690 37 l 690 724 l 654 761 l 602 761 l 564 724 l 564 143 l 590 117 l 575 102 l 549 127 l 285 127 l 268 143 l 268 724 l 231 761 l 178 761 l 142 724 l 142 143 l 178 106 l 231 106 l 248 90 z "},"Ŵ":{"ha":833,"x_min":0,"x_max":0,"o":"m 297 1109 l 297 1074 l 323 1047 l 359 1047 l 386 1074 l 386 1109 l 397 1121 l 435 1121 l 446 1109 l 446 1074 l 472 1047 l 509 1047 l 534 1074 l 534 1109 l 509 1136 l 472 1136 l 461 1147 l 461 1185 l 435 1211 l 397 1211 l 371 1185 l 371 1147 l 359 1136 l 323 1136 z m 564 142 l 547 126 l 496 126 l 479 142 l 479 406 l 441 443 l 389 443 l 353 406 l 353 142 l 336 126 l 283 126 l 268 142 l 268 935 l 231 972 l 178 972 l 142 935 l 142 142 l 178 106 l 231 106 l 248 89 l 248 36 l 283 0 l 336 0 l 374 36 l 374 89 l 389 106 l 441 106 l 458 89 l 458 36 l 496 0 l 547 0 l 585 36 l 585 89 l 602 106 l 654 106 l 690 142 l 690 935 l 654 972 l 602 972 l 564 935 z "},"ŵ":{"ha":833,"x_min":0,"x_max":0,"o":"m 285 0 l 336 0 l 374 37 l 374 90 l 390 106 l 443 106 l 458 90 l 458 37 l 496 0 l 549 0 l 585 37 l 585 90 l 602 106 l 654 106 l 690 143 l 690 724 l 654 761 l 602 761 l 564 724 l 564 143 l 549 127 l 496 127 l 479 143 l 479 407 l 443 444 l 390 444 l 353 407 l 353 143 l 336 127 l 285 127 l 268 143 l 268 724 l 231 761 l 178 761 l 142 724 l 142 143 l 178 106 l 231 106 l 248 90 l 248 37 z m 297 899 l 297 861 l 323 835 l 359 835 l 386 861 l 386 899 l 397 909 l 435 909 l 446 899 l 446 861 l 472 835 l 509 835 l 534 861 l 534 899 l 509 925 l 472 925 l 461 936 l 461 974 l 435 1000 l 397 1000 l 371 974 l 371 936 l 359 925 l 323 925 z "},"Ŷ":{"ha":833,"x_min":0,"x_max":0,"o":"m 297 1109 l 297 1074 l 323 1047 l 359 1047 l 386 1074 l 386 1109 l 397 1121 l 435 1121 l 446 1109 l 446 1074 l 472 1047 l 509 1047 l 534 1074 l 534 1109 l 509 1136 l 472 1136 l 461 1147 l 461 1185 l 435 1211 l 397 1211 l 371 1185 l 371 1147 l 359 1136 l 323 1136 z m 564 671 l 549 656 l 496 656 l 458 618 l 458 566 l 443 550 l 390 550 l 374 566 l 374 618 l 338 656 l 285 656 l 268 671 l 268 935 l 231 972 l 179 972 l 142 935 l 142 671 l 179 633 l 231 633 l 248 618 l 248 566 l 285 528 l 338 528 l 353 513 l 353 37 l 390 0 l 443 0 l 479 37 l 479 513 l 496 528 l 549 528 l 585 566 l 585 618 l 602 633 l 654 633 l 692 671 l 692 935 l 654 972 l 602 972 l 564 935 z "},"ŷ":{"ha":833,"x_min":0,"x_max":0,"o":"m 297 899 l 297 861 l 323 835 l 359 835 l 386 861 l 386 899 l 397 909 l 435 909 l 446 899 l 446 861 l 472 835 l 509 835 l 534 861 l 534 899 l 509 925 l 472 925 l 461 936 l 461 974 l 435 1000 l 397 1000 l 371 974 l 371 936 l 359 925 l 323 925 z m 564 -16 l 564 -68 l 549 -83 l 285 -83 l 248 -121 l 248 -174 l 285 -211 l 549 -211 l 585 -174 l 585 -121 l 602 -106 l 654 -106 l 690 -68 l 690 724 l 654 761 l 602 761 l 564 724 l 564 143 l 590 117 l 575 102 l 549 127 l 285 127 l 268 143 l 268 724 l 231 761 l 178 761 l 142 724 l 142 143 l 178 106 l 231 106 l 248 90 l 248 37 l 285 0 l 549 0 l 575 26 l 590 11 z "},"Ÿ":{"ha":833,"x_min":0,"x_max":0,"o":"m 446 1185 l 446 1074 l 472 1047 l 509 1047 l 534 1074 l 534 1185 l 509 1211 l 472 1211 z m 297 1074 l 323 1047 l 359 1047 l 386 1074 l 386 1185 l 359 1211 l 323 1211 l 297 1185 z m 564 671 l 549 656 l 496 656 l 458 618 l 458 566 l 443 550 l 390 550 l 374 566 l 374 618 l 338 656 l 285 656 l 268 671 l 268 935 l 231 972 l 179 972 l 142 935 l 142 671 l 179 633 l 231 633 l 248 618 l 248 566 l 285 528 l 338 528 l 353 513 l 353 37 l 390 0 l 443 0 l 479 37 l 479 513 l 496 528 l 549 528 l 585 566 l 585 618 l 602 633 l 654 633 l 692 671 l 692 935 l 654 972 l 602 972 l 564 935 z "},"Ź":{"ha":833,"x_min":0,"x_max":0,"o":"m 408 1149 l 397 1137 l 359 1137 l 335 1111 l 335 1074 l 359 1047 l 397 1047 l 424 1074 l 424 1111 l 435 1122 l 472 1122 l 498 1149 l 498 1185 l 472 1211 l 435 1211 l 408 1185 z m 564 829 l 564 671 l 549 656 l 496 656 l 248 407 l 248 354 l 231 338 l 179 338 l 142 301 l 142 37 l 179 0 l 654 0 l 692 37 l 692 89 l 654 126 l 285 126 l 258 100 l 241 117 l 268 143 l 268 301 l 285 317 l 338 317 l 585 566 l 585 618 l 602 633 l 654 633 l 692 671 l 692 935 l 654 972 l 179 972 l 142 935 l 142 882 l 179 844 l 549 844 l 575 871 l 590 856 z "},"ź":{"ha":833,"x_min":0,"x_max":0,"o":"m 564 618 l 564 566 l 549 550 l 496 550 l 248 301 l 248 249 l 231 233 l 178 233 l 142 196 l 142 37 l 178 0 l 654 0 l 690 37 l 690 90 l 654 127 l 285 127 l 257 102 l 241 117 l 268 143 l 268 196 l 285 211 l 336 211 l 585 460 l 585 513 l 602 528 l 654 528 l 690 566 l 690 724 l 654 761 l 178 761 l 142 724 l 142 671 l 178 633 l 549 633 l 575 660 l 590 644 z m 408 974 l 408 936 l 397 925 l 359 925 l 334 899 l 334 861 l 359 835 l 397 835 l 424 861 l 424 899 l 435 909 l 472 909 l 497 936 l 497 974 l 472 1000 l 435 1000 z "},"Ż":{"ha":833,"x_min":0,"x_max":0,"o":"m 564 829 l 564 671 l 549 656 l 496 656 l 248 407 l 248 354 l 231 338 l 179 338 l 142 301 l 142 37 l 179 0 l 654 0 l 692 37 l 692 89 l 654 126 l 285 126 l 258 100 l 241 117 l 268 143 l 268 301 l 285 317 l 338 317 l 585 566 l 585 618 l 602 633 l 654 633 l 692 671 l 692 935 l 654 972 l 179 972 l 142 935 l 142 882 l 179 844 l 549 844 l 575 871 l 590 856 z m 346 1174 l 346 1108 l 383 1072 l 449 1072 l 485 1108 l 485 1174 l 449 1211 l 383 1211 z "},"ż":{"ha":833,"x_min":0,"x_max":0,"o":"m 564 618 l 564 566 l 549 550 l 496 550 l 248 301 l 248 249 l 231 233 l 178 233 l 142 196 l 142 37 l 178 0 l 654 0 l 690 37 l 690 90 l 654 127 l 285 127 l 257 102 l 241 117 l 268 143 l 268 196 l 285 211 l 336 211 l 585 460 l 585 513 l 602 528 l 654 528 l 690 566 l 690 724 l 654 761 l 178 761 l 142 724 l 142 671 l 178 633 l 549 633 l 575 660 l 590 644 z m 346 962 l 346 897 l 383 861 l 449 861 l 485 897 l 485 962 l 449 1000 l 383 1000 z "},"Ž":{"ha":833,"x_min":0,"x_max":0,"o":"m 564 829 l 564 671 l 549 656 l 496 656 l 248 407 l 248 354 l 231 338 l 179 338 l 142 301 l 142 37 l 179 0 l 654 0 l 692 37 l 692 89 l 654 126 l 285 126 l 258 100 l 241 117 l 268 143 l 268 301 l 285 317 l 338 317 l 585 566 l 585 618 l 602 633 l 654 633 l 692 671 l 692 935 l 654 972 l 179 972 l 142 935 l 142 882 l 179 844 l 549 844 l 575 871 l 590 856 z m 323 1122 l 359 1122 l 371 1111 l 371 1074 l 397 1047 l 435 1047 l 461 1074 l 461 1111 l 472 1122 l 509 1122 l 534 1149 l 534 1185 l 509 1211 l 472 1211 l 446 1185 l 446 1149 l 435 1137 l 397 1137 l 386 1149 l 386 1185 l 359 1211 l 323 1211 l 297 1185 l 297 1149 z "},"ž":{"ha":833,"x_min":0,"x_max":0,"o":"m 564 618 l 564 566 l 549 550 l 496 550 l 248 301 l 248 249 l 231 233 l 178 233 l 142 196 l 142 37 l 178 0 l 654 0 l 690 37 l 690 90 l 654 127 l 285 127 l 257 102 l 241 117 l 268 143 l 268 196 l 285 211 l 336 211 l 585 460 l 585 513 l 602 528 l 654 528 l 690 566 l 690 724 l 654 761 l 178 761 l 142 724 l 142 671 l 178 633 l 549 633 l 575 660 l 590 644 z m 323 909 l 359 909 l 371 899 l 371 861 l 397 835 l 435 835 l 461 861 l 461 899 l 472 909 l 509 909 l 534 936 l 534 974 l 509 1000 l 472 1000 l 446 974 l 446 936 l 435 925 l 397 925 l 386 936 l 386 974 l 359 1000 l 323 1000 l 297 974 l 297 936 z "},"ſ":{"ha":833,"x_min":0,"x_max":0,"o":"m 406 935 l 406 882 l 389 867 l 338 867 l 300 829 l 300 671 l 326 644 l 311 629 l 283 656 l 232 656 l 195 618 l 195 566 l 232 528 l 283 528 l 311 554 l 326 539 l 300 513 l 300 37 l 338 0 l 389 0 l 427 37 l 427 829 l 443 846 l 602 846 l 637 882 l 637 935 l 602 972 l 443 972 z "},"ƒ":{"ha":833,"x_min":0,"x_max":0,"o":"m 458 935 l 458 882 l 443 867 l 390 867 l 353 829 l 353 671 l 379 644 l 364 629 l 336 656 l 178 656 l 142 618 l 142 566 l 178 528 l 336 528 l 364 554 l 379 539 l 353 513 l 353 -68 l 379 -94 l 364 -110 l 336 -83 l 178 -83 l 142 -121 l 142 -174 l 178 -211 l 443 -211 l 479 -174 l 479 513 l 453 539 l 469 554 l 496 528 l 654 528 l 690 566 l 690 618 l 654 656 l 496 656 l 469 629 l 453 644 l 479 671 l 479 829 l 496 844 l 654 844 l 690 882 l 690 935 l 654 972 l 496 972 z "},"Ơ":{"ha":833,"x_min":0,"x_max":0,"o":"m 765 760 l 754 749 l 690 749 l 690 829 l 654 867 l 602 867 l 585 882 l 585 935 l 549 972 l 285 972 l 248 935 l 248 882 l 231 867 l 178 867 l 142 829 l 142 143 l 178 106 l 231 106 l 248 90 l 248 37 l 285 0 l 549 0 l 585 37 l 585 90 l 602 106 l 654 106 l 690 143 l 690 660 l 754 660 l 781 686 l 781 724 l 791 734 l 829 734 l 856 760 l 856 946 l 829 972 l 791 972 l 765 946 z m 564 829 l 564 143 l 549 127 l 285 127 l 268 143 l 268 829 l 285 846 l 549 846 z "},"ơ":{"ha":833,"x_min":0,"x_max":0,"o":"m 285 0 l 549 0 l 585 37 l 585 90 l 602 106 l 654 106 l 690 143 l 690 449 l 754 449 l 781 475 l 781 511 l 791 522 l 829 522 l 856 549 l 856 734 l 829 761 l 791 761 l 765 734 l 765 549 l 754 538 l 690 538 l 690 618 l 654 656 l 602 656 l 585 671 l 585 724 l 549 761 l 285 761 l 248 724 l 248 671 l 231 656 l 178 656 l 142 618 l 142 143 l 178 106 l 231 106 l 248 90 l 248 37 z m 285 127 l 268 143 l 268 618 l 285 633 l 549 633 l 564 618 l 564 143 l 549 127 z "},"Ư":{"ha":833,"x_min":0,"x_max":0,"o":"m 564 143 l 549 127 l 285 127 l 268 143 l 268 935 l 231 972 l 178 972 l 142 935 l 142 143 l 178 106 l 231 106 l 248 90 l 248 37 l 285 0 l 549 0 l 585 37 l 585 90 l 602 106 l 654 106 l 690 143 l 690 660 l 754 660 l 781 686 l 781 724 l 791 734 l 829 734 l 856 760 l 856 946 l 829 972 l 791 972 l 765 946 l 765 760 l 754 749 l 690 749 l 690 935 l 654 972 l 602 972 l 564 935 z "},"ư":{"ha":833,"x_min":0,"x_max":0,"o":"m 248 37 l 285 0 l 654 0 l 690 37 l 690 449 l 754 449 l 781 475 l 781 511 l 791 522 l 829 522 l 856 549 l 856 734 l 829 761 l 791 761 l 765 734 l 765 549 l 754 538 l 690 538 l 690 724 l 654 761 l 602 761 l 564 724 l 564 143 l 590 117 l 575 102 l 549 127 l 285 127 l 268 143 l 268 724 l 231 761 l 178 761 l 142 724 l 142 143 l 178 106 l 231 106 l 248 90 z "},"Ǎ":{"ha":833,"x_min":0,"x_max":0,"o":"m 323 1122 l 359 1122 l 371 1111 l 371 1074 l 397 1047 l 435 1047 l 461 1074 l 461 1111 l 472 1122 l 509 1122 l 534 1149 l 534 1185 l 509 1211 l 472 1211 l 446 1185 l 446 1149 l 435 1137 l 397 1137 l 386 1149 l 386 1185 l 359 1211 l 323 1211 l 297 1185 l 297 1149 z m 586 882 l 586 935 l 549 972 l 285 972 l 248 935 l 248 882 l 232 867 l 179 867 l 142 829 l 142 36 l 179 0 l 232 0 l 269 36 l 269 406 l 243 433 l 258 449 l 285 422 l 549 422 l 575 449 l 591 433 l 566 406 l 566 36 l 602 0 l 654 0 l 692 36 l 692 829 l 654 867 l 602 867 z m 566 829 l 566 566 l 591 539 l 575 522 l 549 549 l 285 549 l 258 522 l 243 539 l 269 566 l 269 829 l 285 844 l 549 844 z "},"ǎ":{"ha":833,"x_min":0,"x_max":0,"o":"m 323 909 l 359 909 l 371 899 l 371 861 l 397 835 l 435 835 l 461 861 l 461 899 l 472 909 l 509 909 l 534 936 l 534 974 l 509 1000 l 472 1000 l 446 974 l 446 936 l 435 925 l 397 925 l 386 936 l 386 974 l 359 1000 l 323 1000 l 297 974 l 297 936 z m 285 0 l 654 0 l 692 37 l 692 618 l 654 656 l 603 656 l 586 671 l 586 724 l 549 761 l 285 761 l 249 724 l 249 671 l 232 656 l 179 656 l 142 618 l 142 566 l 179 528 l 232 528 l 269 566 l 269 618 l 285 633 l 549 633 l 566 618 l 566 460 l 591 433 l 575 418 l 549 444 l 285 444 l 249 407 l 249 354 l 232 339 l 179 339 l 142 301 l 142 143 l 179 106 l 232 106 l 249 90 l 249 37 z m 285 127 l 269 143 l 269 301 l 285 317 l 549 317 l 575 343 l 591 328 l 566 301 l 566 143 l 591 117 l 575 102 l 549 127 z "},"Ǐ":{"ha":833,"x_min":0,"x_max":0,"o":"m 323 1122 l 359 1122 l 371 1111 l 371 1074 l 397 1047 l 435 1047 l 461 1074 l 461 1111 l 472 1122 l 509 1122 l 534 1149 l 534 1185 l 509 1211 l 472 1211 l 446 1185 l 446 1149 l 435 1137 l 397 1137 l 386 1149 l 386 1185 l 359 1211 l 323 1211 l 297 1185 l 297 1149 z m 353 829 l 353 143 l 379 117 l 364 100 l 336 126 l 285 126 l 248 89 l 248 37 l 285 0 l 549 0 l 585 37 l 585 89 l 549 126 l 496 126 l 469 100 l 453 117 l 479 143 l 479 829 l 453 856 l 469 871 l 496 844 l 549 844 l 585 882 l 585 935 l 549 972 l 285 972 l 248 935 l 248 882 l 285 844 l 336 844 l 364 871 l 379 856 z "},"ǐ":{"ha":833,"x_min":0,"x_max":0,"o":"m 323 909 l 359 909 l 371 899 l 371 861 l 397 835 l 435 835 l 461 861 l 461 899 l 472 909 l 509 909 l 534 936 l 534 974 l 509 1000 l 472 1000 l 446 974 l 446 936 l 435 925 l 397 925 l 386 936 l 386 974 l 359 1000 l 323 1000 l 297 974 l 297 936 z m 469 660 l 496 633 l 549 633 l 585 671 l 585 724 l 549 761 l 285 761 l 248 724 l 248 671 l 285 633 l 336 633 l 364 660 l 379 644 l 353 618 l 353 143 l 379 117 l 364 102 l 336 127 l 285 127 l 248 90 l 248 37 l 285 0 l 549 0 l 585 37 l 585 90 l 549 127 l 496 127 l 469 102 l 453 117 l 479 143 l 479 618 l 453 644 z "},"Ǒ":{"ha":833,"x_min":0,"x_max":0,"o":"m 323 1122 l 359 1122 l 371 1111 l 371 1074 l 397 1047 l 435 1047 l 461 1074 l 461 1111 l 472 1122 l 509 1122 l 534 1149 l 534 1185 l 509 1211 l 472 1211 l 446 1185 l 446 1149 l 435 1137 l 397 1137 l 386 1149 l 386 1185 l 359 1211 l 323 1211 l 297 1185 l 297 1149 z m 549 0 l 586 36 l 586 89 l 603 106 l 654 106 l 692 142 l 692 829 l 654 867 l 603 867 l 586 882 l 586 935 l 549 972 l 285 972 l 249 935 l 249 882 l 232 867 l 179 867 l 142 829 l 142 142 l 179 106 l 232 106 l 249 89 l 249 36 l 285 0 z m 566 829 l 566 142 l 549 126 l 285 126 l 269 142 l 269 829 l 285 844 l 549 844 z "},"ǒ":{"ha":833,"x_min":0,"x_max":0,"o":"m 323 909 l 359 909 l 371 899 l 371 861 l 397 835 l 435 835 l 461 861 l 461 899 l 472 909 l 509 909 l 534 936 l 534 974 l 509 1000 l 472 1000 l 446 974 l 446 936 l 435 925 l 397 925 l 386 936 l 386 974 l 359 1000 l 323 1000 l 297 974 l 297 936 z m 283 0 l 547 0 l 585 37 l 585 90 l 602 106 l 654 106 l 690 143 l 690 618 l 654 656 l 602 656 l 585 671 l 585 724 l 547 761 l 283 761 l 248 724 l 248 671 l 231 656 l 178 656 l 142 618 l 142 143 l 178 106 l 231 106 l 248 90 l 248 37 z m 283 127 l 268 143 l 268 618 l 283 633 l 547 633 l 564 618 l 564 143 l 547 127 z "},"Ǔ":{"ha":833,"x_min":0,"x_max":0,"o":"m 323 1122 l 359 1122 l 371 1111 l 371 1074 l 397 1047 l 435 1047 l 461 1074 l 461 1111 l 472 1122 l 509 1122 l 534 1149 l 534 1185 l 509 1211 l 472 1211 l 446 1185 l 446 1149 l 435 1137 l 397 1137 l 386 1149 l 386 1185 l 359 1211 l 323 1211 l 297 1185 l 297 1149 z m 564 142 l 547 126 l 283 126 l 268 142 l 268 935 l 231 972 l 178 972 l 142 935 l 142 142 l 178 106 l 231 106 l 248 89 l 248 36 l 283 0 l 547 0 l 585 36 l 585 89 l 602 106 l 654 106 l 690 142 l 690 935 l 654 972 l 602 972 l 564 935 z "},"ǔ":{"ha":833,"x_min":0,"x_max":0,"o":"m 323 909 l 359 909 l 371 899 l 371 861 l 397 835 l 435 835 l 461 861 l 461 899 l 472 909 l 509 909 l 534 936 l 534 974 l 509 1000 l 472 1000 l 446 974 l 446 936 l 435 925 l 397 925 l 386 936 l 386 974 l 359 1000 l 323 1000 l 297 974 l 297 936 z m 283 0 l 654 0 l 690 37 l 690 724 l 654 761 l 602 761 l 564 724 l 564 143 l 590 117 l 575 102 l 549 127 l 283 127 l 268 143 l 268 724 l 231 761 l 178 761 l 142 724 l 142 143 l 178 106 l 231 106 l 248 90 l 248 37 z "},"Ǖ":{"ha":833,"x_min":0,"x_max":0,"o":"m 564 142 l 547 126 l 283 126 l 268 142 l 268 935 l 231 972 l 178 972 l 142 935 l 142 142 l 178 106 l 231 106 l 248 89 l 248 36 l 283 0 l 547 0 l 585 36 l 585 89 l 602 106 l 654 106 l 690 142 l 690 935 l 654 972 l 602 972 l 564 935 z m 446 1185 l 446 1074 l 472 1047 l 509 1047 l 534 1074 l 534 1185 l 509 1211 l 472 1211 z m 297 1074 l 323 1047 l 359 1047 l 386 1074 l 386 1185 l 359 1211 l 323 1211 l 297 1185 z "},"ǖ":{"ha":833,"x_min":0,"x_max":0,"o":"m 248 37 l 283 0 l 654 0 l 690 37 l 690 724 l 654 761 l 602 761 l 564 724 l 564 143 l 590 117 l 575 102 l 549 127 l 283 127 l 268 143 l 268 724 l 231 761 l 178 761 l 142 724 l 142 143 l 178 106 l 231 106 l 248 90 z m 446 974 l 446 861 l 472 835 l 509 835 l 534 861 l 534 974 l 509 1000 l 472 1000 z m 297 861 l 323 835 l 359 835 l 386 861 l 386 974 l 359 1000 l 323 1000 l 297 974 z "},"Ǘ":{"ha":833,"x_min":0,"x_max":0,"o":"m 564 142 l 547 126 l 283 126 l 268 142 l 268 935 l 231 972 l 178 972 l 142 935 l 142 142 l 178 106 l 231 106 l 248 89 l 248 36 l 283 0 l 547 0 l 585 36 l 585 89 l 602 106 l 654 106 l 690 142 l 690 935 l 654 972 l 602 972 l 564 935 z m 484 1185 l 484 1074 l 510 1047 l 546 1047 l 572 1074 l 572 1185 l 546 1211 l 510 1211 z m 260 1074 l 286 1047 l 323 1047 l 349 1074 l 349 1185 l 323 1211 l 286 1211 l 260 1185 z "},"ǘ":{"ha":833,"x_min":0,"x_max":0,"o":"m 248 37 l 283 0 l 654 0 l 690 37 l 690 724 l 654 761 l 602 761 l 564 724 l 564 143 l 590 117 l 575 102 l 549 127 l 283 127 l 268 143 l 268 724 l 231 761 l 178 761 l 142 724 l 142 143 l 178 106 l 231 106 l 248 90 z m 484 974 l 484 863 l 510 836 l 546 836 l 572 863 l 572 974 l 546 1000 l 510 1000 z m 260 863 l 286 836 l 323 836 l 349 863 l 349 974 l 323 1000 l 286 1000 l 260 974 z m 408 1149 l 397 1137 l 359 1137 l 335 1111 l 335 1074 l 359 1047 l 397 1047 l 424 1074 l 424 1111 l 435 1122 l 472 1122 l 498 1149 l 498 1185 l 472 1211 l 435 1211 l 408 1185 z "},"Ǚ":{"ha":833,"x_min":0,"x_max":0,"o":"m 564 142 l 547 126 l 283 126 l 268 142 l 268 935 l 231 972 l 178 972 l 142 935 l 142 142 l 178 106 l 231 106 l 248 89 l 248 36 l 283 0 l 547 0 l 585 36 l 585 89 l 602 106 l 654 106 l 690 142 l 690 935 l 654 972 l 602 972 l 564 935 z m 178 1185 l 178 1074 l 204 1047 l 241 1047 l 268 1074 l 268 1185 l 241 1211 l 204 1211 z m 564 1074 l 590 1047 l 628 1047 l 654 1074 l 654 1185 l 628 1211 l 590 1211 l 564 1185 z m 509 1158 l 534 1185 l 534 1221 l 509 1247 l 323 1247 l 297 1221 l 297 1185 l 323 1158 z "},"ǚ":{"ha":833,"x_min":0,"x_max":0,"o":"m 283 0 l 654 0 l 690 37 l 690 724 l 654 761 l 602 761 l 564 724 l 564 143 l 590 117 l 575 102 l 549 127 l 283 127 l 268 143 l 268 724 l 231 761 l 178 761 l 142 724 l 142 143 l 178 106 l 231 106 l 248 90 l 248 37 z m 484 974 l 484 863 l 510 836 l 546 836 l 572 863 l 572 974 l 546 1000 l 510 1000 z m 260 863 l 286 836 l 323 836 l 349 863 l 349 974 l 323 1000 l 286 1000 l 260 974 z m 323 1122 l 359 1122 l 371 1111 l 371 1074 l 397 1047 l 435 1047 l 461 1074 l 461 1111 l 472 1122 l 509 1122 l 534 1149 l 534 1185 l 509 1211 l 472 1211 l 446 1185 l 446 1149 l 435 1137 l 397 1137 l 386 1149 l 386 1185 l 359 1211 l 323 1211 l 297 1185 l 297 1149 z "},"Ǜ":{"ha":833,"x_min":0,"x_max":0,"o":"m 564 142 l 547 126 l 283 126 l 268 142 l 268 935 l 231 972 l 178 972 l 142 935 l 142 142 l 178 106 l 231 106 l 248 89 l 248 36 l 283 0 l 547 0 l 585 36 l 585 89 l 602 106 l 654 106 l 690 142 l 690 935 l 654 972 l 602 972 l 564 935 z m 484 1185 l 484 1074 l 510 1047 l 546 1047 l 572 1074 l 572 1185 l 546 1211 l 510 1211 z m 260 1074 l 286 1047 l 323 1047 l 349 1074 l 349 1185 l 323 1211 l 286 1211 l 260 1185 z "},"ǜ":{"ha":833,"x_min":0,"x_max":0,"o":"m 248 37 l 283 0 l 654 0 l 690 37 l 690 724 l 654 761 l 602 761 l 564 724 l 564 143 l 590 117 l 575 102 l 549 127 l 283 127 l 268 143 l 268 724 l 231 761 l 178 761 l 142 724 l 142 143 l 178 106 l 231 106 l 248 90 z m 484 974 l 484 863 l 510 836 l 546 836 l 572 863 l 572 974 l 546 1000 l 510 1000 z m 260 863 l 286 836 l 323 836 l 349 863 l 349 974 l 323 1000 l 286 1000 l 260 974 z m 425 1185 l 399 1211 l 361 1211 l 335 1185 l 335 1149 l 361 1122 l 399 1122 l 410 1111 l 410 1074 l 436 1047 l 473 1047 l 498 1074 l 498 1111 l 473 1137 l 436 1137 l 425 1149 z "},"ǝ":{"ha":833,"x_min":0,"x_max":0,"o":"m 248 724 l 248 671 l 231 654 l 178 654 l 142 618 l 142 566 l 178 528 l 231 528 l 268 566 l 268 618 l 283 633 l 549 633 l 564 618 l 564 460 l 590 433 l 575 416 l 549 443 l 283 443 l 248 407 l 248 354 l 231 338 l 178 338 l 142 301 l 142 143 l 178 106 l 231 106 l 248 89 l 248 36 l 283 0 l 549 0 l 585 36 l 585 89 l 602 106 l 654 106 l 690 143 l 690 618 l 654 654 l 602 654 l 585 671 l 585 724 l 549 761 l 283 761 z m 549 317 l 575 343 l 590 328 l 564 301 l 564 143 l 549 126 l 283 126 l 268 143 l 268 301 l 283 317 z "},"Ǟ":{"ha":833,"x_min":0,"x_max":0,"o":"m 446 1185 l 446 1074 l 472 1047 l 509 1047 l 534 1074 l 534 1185 l 509 1211 l 472 1211 z m 297 1074 l 323 1047 l 359 1047 l 386 1074 l 386 1185 l 359 1211 l 323 1211 l 297 1185 z m 586 882 l 586 935 l 549 972 l 285 972 l 248 935 l 248 882 l 232 867 l 179 867 l 142 829 l 142 36 l 179 0 l 232 0 l 269 36 l 269 406 l 243 433 l 258 449 l 285 422 l 549 422 l 575 449 l 591 433 l 566 406 l 566 36 l 602 0 l 654 0 l 692 36 l 692 829 l 654 867 l 602 867 z m 566 829 l 566 566 l 591 539 l 575 522 l 549 549 l 285 549 l 258 522 l 243 539 l 269 566 l 269 829 l 285 844 l 549 844 z "},"ǟ":{"ha":833,"x_min":0,"x_max":0,"o":"m 248 37 l 283 0 l 654 0 l 690 37 l 690 618 l 654 656 l 602 656 l 585 671 l 585 724 l 547 761 l 283 761 l 248 724 l 248 671 l 231 656 l 178 656 l 142 618 l 142 566 l 178 528 l 231 528 l 268 566 l 268 618 l 283 633 l 547 633 l 564 618 l 564 460 l 590 433 l 575 418 l 547 444 l 283 444 l 248 407 l 248 354 l 231 339 l 178 339 l 142 301 l 142 143 l 178 106 l 231 106 l 248 90 z m 547 127 l 283 127 l 268 143 l 268 301 l 283 317 l 547 317 l 575 343 l 590 328 l 564 301 l 564 143 l 590 117 l 575 102 z m 484 974 l 484 863 l 510 836 l 546 836 l 572 863 l 572 974 l 546 1000 l 510 1000 z m 260 863 l 286 836 l 323 836 l 349 863 l 349 974 l 323 1000 l 286 1000 l 260 974 z m 583 1072 l 610 1099 l 610 1136 l 583 1162 l 249 1162 l 222 1136 l 222 1099 l 249 1072 z "},"Ǡ":{"ha":833,"x_min":0,"x_max":0,"o":"m 586 882 l 586 935 l 549 972 l 285 972 l 248 935 l 248 882 l 232 867 l 179 867 l 142 829 l 142 36 l 179 0 l 232 0 l 269 36 l 269 406 l 243 433 l 258 449 l 285 422 l 549 422 l 575 449 l 591 433 l 566 406 l 566 36 l 602 0 l 654 0 l 692 36 l 692 829 l 654 867 l 602 867 z m 566 829 l 566 566 l 591 539 l 575 522 l 549 549 l 285 549 l 258 522 l 243 539 l 269 566 l 269 829 l 285 844 l 549 844 z m 346 1174 l 346 1108 l 383 1072 l 449 1072 l 485 1108 l 485 1174 l 449 1211 l 383 1211 z "},"ǡ":{"ha":833,"x_min":0,"x_max":0,"o":"m 248 37 l 283 0 l 654 0 l 690 37 l 690 618 l 654 656 l 602 656 l 585 671 l 585 724 l 547 761 l 283 761 l 248 724 l 248 671 l 231 656 l 178 656 l 142 618 l 142 566 l 178 528 l 231 528 l 268 566 l 268 618 l 283 633 l 547 633 l 564 618 l 564 460 l 590 433 l 575 418 l 547 444 l 283 444 l 248 407 l 248 354 l 231 339 l 178 339 l 142 301 l 142 143 l 178 106 l 231 106 l 248 90 z m 547 127 l 283 127 l 268 143 l 268 301 l 283 317 l 547 317 l 575 343 l 590 328 l 564 301 l 564 143 l 590 117 l 575 102 z m 583 1072 l 610 1099 l 610 1136 l 583 1162 l 249 1162 l 222 1136 l 222 1099 l 249 1072 z m 346 962 l 346 897 l 383 861 l 449 861 l 485 897 l 485 962 l 449 1000 l 383 1000 z "},"Ǣ":{"ha":833,"x_min":0,"x_max":0,"o":"m 248 935 l 248 882 l 231 867 l 178 867 l 142 829 l 142 37 l 178 0 l 231 0 l 268 37 l 268 407 l 241 433 l 257 449 l 285 422 l 336 422 l 364 449 l 379 433 l 353 407 l 353 37 l 390 0 l 654 0 l 690 37 l 690 90 l 654 127 l 496 127 l 469 102 l 453 117 l 479 143 l 479 407 l 453 433 l 469 449 l 496 422 l 654 422 l 690 460 l 690 513 l 654 550 l 496 550 l 469 524 l 453 539 l 479 566 l 479 829 l 453 856 l 469 872 l 496 844 l 654 844 l 690 882 l 690 935 l 654 972 l 285 972 z m 379 856 l 353 829 l 353 566 l 379 539 l 364 524 l 336 550 l 285 550 l 257 524 l 241 539 l 268 566 l 268 829 l 285 844 l 336 844 l 364 872 z m 583 1072 l 610 1099 l 610 1136 l 583 1162 l 249 1162 l 222 1136 l 222 1099 l 249 1072 z "},"ǣ":{"ha":833,"x_min":0,"x_max":0,"o":"m 585 354 l 585 407 l 602 422 l 654 422 l 692 460 l 692 618 l 654 656 l 602 656 l 585 671 l 585 724 l 549 761 l 285 761 l 248 724 l 248 671 l 232 656 l 179 656 l 142 618 l 142 566 l 179 528 l 232 528 l 268 566 l 268 618 l 285 633 l 338 633 l 364 660 l 379 644 l 353 618 l 353 460 l 379 433 l 364 418 l 338 444 l 285 444 l 248 407 l 248 354 l 232 339 l 179 339 l 142 301 l 142 143 l 179 106 l 232 106 l 248 90 l 248 37 l 285 0 l 549 0 l 585 37 l 585 90 l 602 106 l 654 106 l 692 143 l 692 196 l 654 233 l 602 233 l 564 196 l 564 143 l 549 127 l 496 127 l 469 102 l 453 117 l 479 143 l 479 301 l 453 328 l 469 343 l 496 317 l 549 317 z m 453 433 l 479 460 l 479 618 l 453 644 l 469 660 l 496 633 l 549 633 l 564 618 l 564 460 l 549 444 l 496 444 l 469 418 z m 364 102 l 338 127 l 285 127 l 268 143 l 268 301 l 285 317 l 338 317 l 364 343 l 379 328 l 353 301 l 353 143 l 379 117 z m 583 860 l 610 886 l 610 924 l 583 950 l 249 950 l 222 924 l 222 886 l 249 860 z "},"Ǥ":{"ha":833,"x_min":0,"x_max":0,"o":"m 248 37 l 285 0 l 549 0 l 585 37 l 585 90 l 602 106 l 654 106 l 690 143 l 690 196 l 664 222 l 681 237 l 707 211 l 760 211 l 798 249 l 798 301 l 760 339 l 707 339 l 681 313 l 664 328 l 690 354 l 690 513 l 654 550 l 390 550 l 353 513 l 353 460 l 390 422 l 549 422 l 575 449 l 590 433 l 564 407 l 564 354 l 590 328 l 575 313 l 549 339 l 390 339 l 353 301 l 353 249 l 390 211 l 549 211 l 575 237 l 590 222 l 564 196 l 564 143 l 549 127 l 285 127 l 268 143 l 268 829 l 285 846 l 549 846 l 564 829 l 564 777 l 602 739 l 654 739 l 690 777 l 690 829 l 654 867 l 602 867 l 585 882 l 585 935 l 549 972 l 285 972 l 248 935 l 248 882 l 231 867 l 178 867 l 142 829 l 142 143 l 178 106 l 231 106 l 248 90 z "},"ǥ":{"ha":833,"x_min":0,"x_max":0,"o":"m 285 161 l 549 161 l 575 187 l 590 172 l 564 146 l 564 93 l 590 66 l 575 50 l 549 77 l 390 77 l 353 40 l 353 -12 l 390 -50 l 549 -50 l 575 -24 l 590 -39 l 564 -65 l 564 -118 l 549 -135 l 285 -135 l 248 -172 l 248 -225 l 285 -261 l 549 -261 l 585 -225 l 585 -172 l 602 -155 l 654 -155 l 690 -118 l 690 -65 l 664 -39 l 681 -24 l 707 -50 l 760 -50 l 798 -12 l 798 40 l 760 77 l 707 77 l 681 50 l 664 66 l 690 93 l 690 779 l 654 817 l 285 817 l 248 779 l 248 726 l 231 711 l 178 711 l 142 673 l 142 304 l 178 267 l 231 267 l 248 252 l 248 199 z m 549 689 l 575 715 l 590 700 l 564 673 l 564 304 l 590 278 l 575 261 l 549 288 l 285 288 l 268 304 l 268 673 l 285 689 z "},"Ǧ":{"ha":833,"x_min":0,"x_max":0,"o":"m 142 829 l 142 142 l 179 106 l 232 106 l 248 89 l 248 36 l 285 0 l 549 0 l 586 36 l 586 89 l 602 106 l 654 106 l 692 142 l 692 513 l 654 549 l 390 549 l 354 513 l 354 460 l 390 422 l 549 422 l 575 449 l 591 433 l 566 406 l 566 142 l 549 126 l 285 126 l 269 142 l 269 829 l 285 844 l 549 844 l 566 829 l 566 777 l 602 739 l 654 739 l 692 777 l 692 829 l 654 867 l 602 867 l 586 882 l 586 935 l 549 972 l 285 972 l 248 935 l 248 882 l 232 867 l 179 867 z m 323 1122 l 359 1122 l 371 1111 l 371 1074 l 397 1047 l 435 1047 l 461 1074 l 461 1111 l 472 1122 l 509 1122 l 534 1149 l 534 1185 l 509 1211 l 472 1211 l 446 1185 l 446 1149 l 435 1137 l 397 1137 l 386 1149 l 386 1185 l 359 1211 l 323 1211 l 297 1185 l 297 1149 z "},"ǧ":{"ha":833,"x_min":0,"x_max":0,"o":"m 564 -16 l 564 -68 l 549 -83 l 285 -83 l 248 -121 l 248 -174 l 285 -211 l 549 -211 l 585 -174 l 585 -121 l 602 -106 l 654 -106 l 690 -68 l 690 725 l 654 761 l 285 761 l 248 725 l 248 672 l 231 656 l 178 656 l 142 618 l 142 143 l 178 107 l 231 107 l 248 90 l 248 37 l 285 0 l 549 0 l 575 28 l 590 11 z m 549 635 l 575 661 l 590 646 l 564 618 l 564 143 l 590 117 l 575 102 l 549 127 l 285 127 l 268 143 l 268 618 l 285 635 z m 323 909 l 359 909 l 371 899 l 371 861 l 397 835 l 435 835 l 461 861 l 461 899 l 472 909 l 509 909 l 534 936 l 534 974 l 509 1000 l 472 1000 l 446 974 l 446 936 l 435 925 l 397 925 l 386 936 l 386 974 l 359 1000 l 323 1000 l 297 974 l 297 936 z "},"Ǩ":{"ha":833,"x_min":0,"x_max":0,"o":"m 323 1122 l 359 1122 l 371 1111 l 371 1074 l 397 1047 l 435 1047 l 461 1074 l 461 1111 l 472 1122 l 509 1122 l 534 1149 l 534 1185 l 509 1211 l 472 1211 l 446 1185 l 446 1149 l 435 1137 l 397 1137 l 386 1149 l 386 1185 l 359 1211 l 323 1211 l 297 1185 l 297 1149 z m 258 554 l 285 528 l 338 528 l 354 513 l 354 460 l 390 422 l 549 422 l 566 406 l 566 36 l 602 0 l 654 0 l 692 36 l 692 406 l 654 443 l 602 443 l 586 460 l 586 513 l 549 549 l 390 549 l 375 566 l 692 882 l 692 935 l 654 972 l 602 972 l 258 628 l 243 644 l 269 671 l 269 935 l 232 972 l 179 972 l 142 935 l 142 36 l 179 0 l 232 0 l 269 36 l 269 513 l 243 539 z "},"ǩ":{"ha":833,"x_min":0,"x_max":0,"o":"m 323 1122 l 359 1122 l 371 1111 l 371 1074 l 397 1047 l 435 1047 l 461 1074 l 461 1111 l 472 1122 l 509 1122 l 534 1149 l 534 1185 l 509 1211 l 472 1211 l 446 1185 l 446 1149 l 435 1137 l 397 1137 l 386 1149 l 386 1185 l 359 1211 l 323 1211 l 297 1185 l 297 1149 z m 257 450 l 285 424 l 336 424 l 353 407 l 353 354 l 390 318 l 549 318 l 564 301 l 564 37 l 602 0 l 654 0 l 690 37 l 690 301 l 654 339 l 602 339 l 585 354 l 585 407 l 549 444 l 390 444 l 374 460 l 585 672 l 585 725 l 549 761 l 496 761 l 257 524 l 241 539 l 268 567 l 268 936 l 231 972 l 178 972 l 142 936 l 142 37 l 178 0 l 231 0 l 268 37 l 268 407 l 241 433 z "},"Ǫ":{"ha":833,"x_min":0,"x_max":0,"o":"m 397 -286 l 509 -286 l 534 -260 l 534 -224 l 509 -197 l 397 -197 l 386 -186 l 386 -149 l 397 -138 l 435 -138 l 461 -111 l 461 0 l 549 0 l 585 37 l 585 90 l 602 106 l 654 106 l 690 143 l 690 829 l 654 867 l 602 867 l 585 882 l 585 935 l 549 972 l 285 972 l 248 935 l 248 882 l 231 867 l 178 867 l 142 829 l 142 143 l 178 106 l 231 106 l 248 90 l 248 37 l 285 0 l 371 0 l 371 -111 l 359 -122 l 323 -122 l 297 -149 l 297 -186 l 323 -212 l 359 -212 l 371 -224 l 371 -260 z m 564 829 l 564 143 l 549 127 l 285 127 l 268 143 l 268 829 l 285 846 l 549 846 z "},"ǫ":{"ha":833,"x_min":0,"x_max":0,"o":"m 285 0 l 371 0 l 371 -111 l 359 -122 l 323 -122 l 297 -149 l 297 -186 l 323 -212 l 359 -212 l 371 -224 l 371 -260 l 397 -286 l 509 -286 l 534 -260 l 534 -224 l 509 -197 l 397 -197 l 386 -186 l 386 -149 l 397 -138 l 435 -138 l 461 -111 l 461 0 l 549 0 l 585 37 l 585 90 l 602 106 l 654 106 l 690 143 l 690 618 l 654 656 l 602 656 l 585 671 l 585 724 l 549 761 l 285 761 l 248 724 l 248 671 l 231 656 l 178 656 l 142 618 l 142 143 l 178 106 l 231 106 l 248 90 l 248 37 z m 285 127 l 268 143 l 268 618 l 285 633 l 549 633 l 564 618 l 564 143 l 549 127 z "},"Ǭ":{"ha":833,"x_min":0,"x_max":0,"o":"m 583 1072 l 610 1099 l 610 1136 l 583 1162 l 249 1162 l 222 1136 l 222 1099 l 249 1072 z m 371 -260 l 397 -286 l 509 -286 l 534 -260 l 534 -224 l 509 -197 l 397 -197 l 386 -186 l 386 -149 l 397 -138 l 435 -138 l 461 -111 l 461 0 l 549 0 l 585 37 l 585 90 l 602 106 l 654 106 l 690 143 l 690 829 l 654 867 l 602 867 l 585 882 l 585 935 l 549 972 l 285 972 l 248 935 l 248 882 l 231 867 l 178 867 l 142 829 l 142 143 l 178 106 l 231 106 l 248 90 l 248 37 l 285 0 l 371 0 l 371 -111 l 359 -122 l 323 -122 l 297 -149 l 297 -186 l 323 -212 l 359 -212 l 371 -224 z m 549 846 l 564 829 l 564 143 l 549 127 l 285 127 l 268 143 l 268 829 l 285 846 z "},"ǭ":{"ha":833,"x_min":0,"x_max":0,"o":"m 583 860 l 610 886 l 610 924 l 583 950 l 249 950 l 222 924 l 222 886 l 249 860 z m 248 37 l 285 0 l 371 0 l 371 -111 l 359 -122 l 323 -122 l 297 -149 l 297 -186 l 323 -212 l 359 -212 l 371 -224 l 371 -260 l 397 -286 l 509 -286 l 534 -260 l 534 -224 l 509 -197 l 397 -197 l 386 -186 l 386 -149 l 397 -138 l 435 -138 l 461 -111 l 461 0 l 549 0 l 585 37 l 585 90 l 602 106 l 654 106 l 690 143 l 690 618 l 654 656 l 602 656 l 585 671 l 585 724 l 549 761 l 285 761 l 248 724 l 248 671 l 231 656 l 178 656 l 142 618 l 142 143 l 178 106 l 231 106 l 248 90 z m 549 127 l 285 127 l 268 143 l 268 618 l 285 633 l 549 633 l 564 618 l 564 143 z "},"Ǯ":{"ha":833,"x_min":0,"x_max":0,"o":"m 323 1122 l 359 1122 l 371 1111 l 371 1074 l 397 1047 l 435 1047 l 461 1074 l 461 1111 l 472 1122 l 509 1122 l 534 1149 l 534 1185 l 509 1211 l 472 1211 l 446 1185 l 446 1149 l 435 1137 l 397 1137 l 386 1149 l 386 1185 l 359 1211 l 323 1211 l 297 1185 l 297 1149 z m 549 550 l 390 550 l 364 524 l 347 539 l 374 566 l 374 618 l 390 633 l 443 633 l 479 671 l 479 724 l 496 739 l 549 739 l 585 777 l 585 829 l 558 856 l 575 872 l 602 844 l 654 844 l 690 882 l 690 935 l 654 972 l 178 972 l 142 935 l 142 882 l 178 844 l 443 844 l 469 872 l 485 856 l 458 829 l 458 777 l 443 761 l 390 761 l 353 724 l 353 671 l 336 656 l 285 656 l 248 618 l 248 460 l 285 422 l 549 422 l 564 407 l 564 143 l 549 127 l 285 127 l 268 143 l 268 196 l 231 233 l 178 233 l 142 196 l 142 143 l 178 106 l 231 106 l 248 90 l 248 37 l 285 0 l 549 0 l 585 37 l 585 90 l 602 106 l 654 106 l 690 143 l 690 407 l 654 444 l 602 444 l 585 460 l 585 513 z "},"ǯ":{"ha":833,"x_min":0,"x_max":0,"o":"m 323 909 l 359 909 l 371 899 l 371 861 l 397 835 l 435 835 l 461 861 l 461 899 l 472 909 l 509 909 l 534 936 l 534 974 l 509 1000 l 472 1000 l 446 974 l 446 936 l 435 925 l 397 925 l 386 936 l 386 974 l 359 1000 l 323 1000 l 297 974 l 297 936 z m 585 301 l 549 339 l 390 339 l 364 313 l 347 328 l 374 354 l 374 407 l 390 422 l 443 422 l 479 460 l 479 513 l 496 528 l 549 528 l 585 566 l 585 618 l 558 644 l 575 661 l 602 633 l 654 633 l 690 671 l 690 724 l 654 761 l 178 761 l 142 724 l 142 671 l 178 633 l 443 633 l 469 661 l 485 644 l 458 618 l 458 566 l 443 550 l 390 550 l 353 513 l 353 460 l 336 444 l 285 444 l 248 407 l 248 249 l 285 211 l 549 211 l 564 196 l 564 -68 l 549 -83 l 285 -83 l 268 -68 l 268 -16 l 231 22 l 178 22 l 142 -16 l 142 -68 l 178 -106 l 231 -106 l 248 -121 l 248 -174 l 285 -211 l 549 -211 l 585 -174 l 585 -121 l 602 -106 l 654 -106 l 690 -68 l 690 196 l 654 233 l 602 233 l 585 249 z "},"ǰ":{"ha":833,"x_min":0,"x_max":0,"o":"m 458 -68 l 443 -83 l 285 -83 l 268 -68 l 268 -16 l 231 22 l 178 22 l 142 -16 l 142 -68 l 178 -106 l 231 -106 l 248 -121 l 248 -174 l 285 -211 l 443 -211 l 479 -174 l 479 -121 l 496 -106 l 549 -106 l 585 -68 l 585 618 l 558 644 l 575 660 l 602 633 l 654 633 l 690 671 l 690 724 l 654 761 l 390 761 l 353 724 l 353 671 l 390 633 l 443 633 l 469 660 l 485 644 l 458 618 z m 429 911 l 465 911 l 476 900 l 476 863 l 503 836 l 541 836 l 567 863 l 567 900 l 578 911 l 615 911 l 640 937 l 640 975 l 615 1000 l 578 1000 l 551 975 l 551 937 l 541 926 l 503 926 l 492 937 l 492 975 l 465 1000 l 429 1000 l 403 975 l 403 937 z "},"Ǵ":{"ha":833,"x_min":0,"x_max":0,"o":"m 142 829 l 142 142 l 179 106 l 232 106 l 248 89 l 248 36 l 285 0 l 549 0 l 586 36 l 586 89 l 602 106 l 654 106 l 692 142 l 692 513 l 654 549 l 390 549 l 354 513 l 354 460 l 390 422 l 549 422 l 575 449 l 591 433 l 566 406 l 566 142 l 549 126 l 285 126 l 269 142 l 269 829 l 285 844 l 549 844 l 566 829 l 566 777 l 602 739 l 654 739 l 692 777 l 692 829 l 654 867 l 602 867 l 586 882 l 586 935 l 549 972 l 285 972 l 248 935 l 248 882 l 232 867 l 179 867 z m 408 1149 l 397 1137 l 359 1137 l 335 1111 l 335 1074 l 359 1047 l 397 1047 l 424 1074 l 424 1111 l 435 1122 l 472 1122 l 498 1149 l 498 1185 l 472 1211 l 435 1211 l 408 1185 z "},"ǵ":{"ha":833,"x_min":0,"x_max":0,"o":"m 564 -16 l 564 -68 l 549 -83 l 285 -83 l 248 -121 l 248 -174 l 285 -211 l 549 -211 l 585 -174 l 585 -121 l 602 -106 l 654 -106 l 690 -68 l 690 725 l 654 761 l 285 761 l 248 725 l 248 672 l 231 656 l 178 656 l 142 618 l 142 143 l 178 107 l 231 107 l 248 90 l 248 37 l 285 0 l 549 0 l 575 28 l 590 11 z m 549 635 l 575 661 l 590 646 l 564 618 l 564 143 l 590 117 l 575 102 l 549 127 l 285 127 l 268 143 l 268 618 l 285 635 z m 408 936 l 397 925 l 359 925 l 334 899 l 334 861 l 359 835 l 397 835 l 424 861 l 424 899 l 435 909 l 472 909 l 497 936 l 497 974 l 472 1000 l 435 1000 l 408 974 z "},"Ǹ":{"ha":833,"x_min":0,"x_max":0,"o":"m 425 1185 l 399 1211 l 361 1211 l 335 1185 l 335 1149 l 361 1122 l 399 1122 l 410 1111 l 410 1074 l 436 1047 l 473 1047 l 498 1074 l 498 1111 l 473 1137 l 436 1137 l 425 1149 z m 258 765 l 496 528 l 549 528 l 575 554 l 591 539 l 566 513 l 566 36 l 603 0 l 654 0 l 692 36 l 692 935 l 654 972 l 603 972 l 566 935 l 566 671 l 591 644 l 575 628 l 338 867 l 285 867 l 258 839 l 243 856 l 269 882 l 269 935 l 232 972 l 179 972 l 142 935 l 142 36 l 179 0 l 232 0 l 269 36 l 269 724 l 243 750 z "},"ǹ":{"ha":833,"x_min":0,"x_max":0,"o":"m 585 724 l 547 761 l 178 761 l 142 724 l 142 37 l 178 0 l 231 0 l 268 37 l 268 618 l 241 644 l 257 660 l 283 633 l 547 633 l 564 618 l 564 37 l 602 0 l 654 0 l 690 37 l 690 618 l 654 656 l 602 656 l 585 671 z m 422 974 l 396 1000 l 358 1000 l 334 974 l 334 936 l 358 909 l 396 909 l 407 899 l 407 861 l 433 835 l 471 835 l 497 861 l 497 899 l 471 925 l 433 925 l 422 936 z "}}}
